G04 #@! TF.GenerationSoftware,KiCad,Pcbnew,8.0.7*
G04 #@! TF.CreationDate,2024-12-19T23:47:55-08:00*
G04 #@! TF.ProjectId,Deej keypad,4465656a-206b-4657-9970-61642e6b6963,rev?*
G04 #@! TF.SameCoordinates,Original*
G04 #@! TF.FileFunction,Soldermask,Top*
G04 #@! TF.FilePolarity,Negative*
%FSLAX46Y46*%
G04 Gerber Fmt 4.6, Leading zero omitted, Abs format (unit mm)*
G04 Created by KiCad (PCBNEW 8.0.7) date 2024-12-19 23:47:55*
%MOMM*%
%LPD*%
G01*
G04 APERTURE LIST*
G04 APERTURE END LIST*
G36*
X119550672Y-134353910D02*
G01*
X119606201Y-134353910D01*
X119655050Y-134363041D01*
X119699783Y-134366955D01*
X119754691Y-134381667D01*
X119814986Y-134392939D01*
X119855882Y-134408782D01*
X119893500Y-134418862D01*
X119950449Y-134445417D01*
X120013045Y-134469667D01*
X120045350Y-134489669D01*
X120075263Y-134503618D01*
X120131688Y-134543127D01*
X120193632Y-134581482D01*
X120217378Y-134603130D01*
X120239539Y-134618647D01*
X120292543Y-134671651D01*
X120350599Y-134724576D01*
X120366424Y-134745532D01*
X120381352Y-134760460D01*
X120427922Y-134826969D01*
X120478600Y-134894077D01*
X120487677Y-134912307D01*
X120496381Y-134924737D01*
X120533430Y-135004191D01*
X120573276Y-135084211D01*
X120577239Y-135098139D01*
X120581137Y-135106499D01*
X120605709Y-135198204D01*
X120631402Y-135288504D01*
X120632192Y-135297039D01*
X120633044Y-135300216D01*
X120642447Y-135407707D01*
X120651000Y-135500000D01*
X120642447Y-135592299D01*
X120633044Y-135699783D01*
X120632193Y-135702958D01*
X120631402Y-135711496D01*
X120605705Y-135801811D01*
X120581137Y-135893500D01*
X120577239Y-135901857D01*
X120573276Y-135915789D01*
X120533427Y-135995815D01*
X120496381Y-136075263D01*
X120487678Y-136087691D01*
X120478600Y-136105923D01*
X120427917Y-136173037D01*
X120381352Y-136239539D01*
X120366427Y-136254463D01*
X120350599Y-136275424D01*
X120292532Y-136328358D01*
X120239539Y-136381352D01*
X120217383Y-136396865D01*
X120193632Y-136418518D01*
X120131675Y-136456879D01*
X120075263Y-136496381D01*
X120045357Y-136510325D01*
X120013045Y-136530333D01*
X119950436Y-136554587D01*
X119893500Y-136581137D01*
X119855890Y-136591214D01*
X119814986Y-136607061D01*
X119754679Y-136618334D01*
X119699783Y-136633044D01*
X119655060Y-136636956D01*
X119606201Y-136646090D01*
X119550660Y-136646090D01*
X119500000Y-136650522D01*
X119449340Y-136646090D01*
X119393799Y-136646090D01*
X119344940Y-136636956D01*
X119300216Y-136633044D01*
X119245317Y-136618333D01*
X119185014Y-136607061D01*
X119144111Y-136591215D01*
X119106499Y-136581137D01*
X119049557Y-136554585D01*
X118986955Y-136530333D01*
X118954645Y-136510327D01*
X118924736Y-136496381D01*
X118868315Y-136456874D01*
X118806368Y-136418518D01*
X118782619Y-136396868D01*
X118760460Y-136381352D01*
X118707456Y-136328348D01*
X118649401Y-136275424D01*
X118633575Y-136254467D01*
X118618647Y-136239539D01*
X118572069Y-136173019D01*
X118521400Y-136105923D01*
X118512324Y-136087696D01*
X118503618Y-136075263D01*
X118466556Y-135995783D01*
X118426724Y-135915789D01*
X118422761Y-135901863D01*
X118418862Y-135893500D01*
X118394277Y-135801751D01*
X118368598Y-135711496D01*
X118367807Y-135702964D01*
X118366955Y-135699783D01*
X118357534Y-135592106D01*
X118349000Y-135500000D01*
X118357534Y-135407900D01*
X118366955Y-135300216D01*
X118367807Y-135297034D01*
X118368598Y-135288504D01*
X118394273Y-135198264D01*
X118418862Y-135106499D01*
X118422762Y-135098134D01*
X118426724Y-135084211D01*
X118466553Y-135004222D01*
X118503618Y-134924737D01*
X118512324Y-134912302D01*
X118521400Y-134894077D01*
X118572063Y-134826987D01*
X118618647Y-134760460D01*
X118633578Y-134745528D01*
X118649401Y-134724576D01*
X118707444Y-134671662D01*
X118760460Y-134618647D01*
X118782624Y-134603127D01*
X118806368Y-134581482D01*
X118868308Y-134543129D01*
X118924737Y-134503618D01*
X118954649Y-134489669D01*
X118986955Y-134469667D01*
X119049546Y-134445419D01*
X119106499Y-134418862D01*
X119144119Y-134408781D01*
X119185014Y-134392939D01*
X119245304Y-134381668D01*
X119300216Y-134366955D01*
X119344950Y-134363041D01*
X119393799Y-134353910D01*
X119449328Y-134353910D01*
X119500000Y-134349477D01*
X119550672Y-134353910D01*
G37*
G36*
X195050672Y-134353910D02*
G01*
X195106201Y-134353910D01*
X195155050Y-134363041D01*
X195199783Y-134366955D01*
X195254691Y-134381667D01*
X195314986Y-134392939D01*
X195355882Y-134408782D01*
X195393500Y-134418862D01*
X195450449Y-134445417D01*
X195513045Y-134469667D01*
X195545350Y-134489669D01*
X195575263Y-134503618D01*
X195631688Y-134543127D01*
X195693632Y-134581482D01*
X195717378Y-134603130D01*
X195739539Y-134618647D01*
X195792543Y-134671651D01*
X195850599Y-134724576D01*
X195866424Y-134745532D01*
X195881352Y-134760460D01*
X195927922Y-134826969D01*
X195978600Y-134894077D01*
X195987677Y-134912307D01*
X195996381Y-134924737D01*
X196033430Y-135004191D01*
X196073276Y-135084211D01*
X196077239Y-135098139D01*
X196081137Y-135106499D01*
X196105709Y-135198204D01*
X196131402Y-135288504D01*
X196132192Y-135297039D01*
X196133044Y-135300216D01*
X196142447Y-135407707D01*
X196151000Y-135500000D01*
X196142447Y-135592299D01*
X196133044Y-135699783D01*
X196132193Y-135702958D01*
X196131402Y-135711496D01*
X196105705Y-135801811D01*
X196081137Y-135893500D01*
X196077239Y-135901857D01*
X196073276Y-135915789D01*
X196033427Y-135995815D01*
X195996381Y-136075263D01*
X195987678Y-136087691D01*
X195978600Y-136105923D01*
X195927917Y-136173037D01*
X195881352Y-136239539D01*
X195866427Y-136254463D01*
X195850599Y-136275424D01*
X195792532Y-136328358D01*
X195739539Y-136381352D01*
X195717383Y-136396865D01*
X195693632Y-136418518D01*
X195631675Y-136456879D01*
X195575263Y-136496381D01*
X195545357Y-136510325D01*
X195513045Y-136530333D01*
X195450436Y-136554587D01*
X195393500Y-136581137D01*
X195355890Y-136591214D01*
X195314986Y-136607061D01*
X195254679Y-136618334D01*
X195199783Y-136633044D01*
X195155060Y-136636956D01*
X195106201Y-136646090D01*
X195050660Y-136646090D01*
X195000000Y-136650522D01*
X194949340Y-136646090D01*
X194893799Y-136646090D01*
X194844940Y-136636956D01*
X194800216Y-136633044D01*
X194745317Y-136618333D01*
X194685014Y-136607061D01*
X194644111Y-136591215D01*
X194606499Y-136581137D01*
X194549557Y-136554585D01*
X194486955Y-136530333D01*
X194454645Y-136510327D01*
X194424736Y-136496381D01*
X194368315Y-136456874D01*
X194306368Y-136418518D01*
X194282619Y-136396868D01*
X194260460Y-136381352D01*
X194207456Y-136328348D01*
X194149401Y-136275424D01*
X194133575Y-136254467D01*
X194118647Y-136239539D01*
X194072069Y-136173019D01*
X194021400Y-136105923D01*
X194012324Y-136087696D01*
X194003618Y-136075263D01*
X193966556Y-135995783D01*
X193926724Y-135915789D01*
X193922761Y-135901863D01*
X193918862Y-135893500D01*
X193894277Y-135801751D01*
X193868598Y-135711496D01*
X193867807Y-135702964D01*
X193866955Y-135699783D01*
X193857534Y-135592106D01*
X193849000Y-135500000D01*
X193857534Y-135407900D01*
X193866955Y-135300216D01*
X193867807Y-135297034D01*
X193868598Y-135288504D01*
X193894273Y-135198264D01*
X193918862Y-135106499D01*
X193922762Y-135098134D01*
X193926724Y-135084211D01*
X193966553Y-135004222D01*
X194003618Y-134924737D01*
X194012324Y-134912302D01*
X194021400Y-134894077D01*
X194072063Y-134826987D01*
X194118647Y-134760460D01*
X194133578Y-134745528D01*
X194149401Y-134724576D01*
X194207444Y-134671662D01*
X194260460Y-134618647D01*
X194282624Y-134603127D01*
X194306368Y-134581482D01*
X194368308Y-134543129D01*
X194424737Y-134503618D01*
X194454649Y-134489669D01*
X194486955Y-134469667D01*
X194549546Y-134445419D01*
X194606499Y-134418862D01*
X194644119Y-134408781D01*
X194685014Y-134392939D01*
X194745304Y-134381668D01*
X194800216Y-134366955D01*
X194844950Y-134363041D01*
X194893799Y-134353910D01*
X194949328Y-134353910D01*
X195000000Y-134349477D01*
X195050672Y-134353910D01*
G37*
G36*
X129003547Y-124997871D02*
G01*
X129272295Y-125073171D01*
X129528287Y-125184364D01*
X129766754Y-125329378D01*
X129983253Y-125505514D01*
X130173752Y-125709488D01*
X130334702Y-125937503D01*
X130463105Y-126185310D01*
X130556570Y-126448293D01*
X130613354Y-126721553D01*
X130632400Y-127000000D01*
X130613354Y-127278447D01*
X130556570Y-127551707D01*
X130463105Y-127814690D01*
X130334702Y-128062497D01*
X130173752Y-128290512D01*
X129983253Y-128494486D01*
X129766754Y-128670622D01*
X129528287Y-128815636D01*
X129272295Y-128926829D01*
X129003547Y-129002129D01*
X128727049Y-129040133D01*
X128447951Y-129040133D01*
X128171453Y-129002129D01*
X127902705Y-128926829D01*
X127646713Y-128815636D01*
X127408246Y-128670622D01*
X127191747Y-128494486D01*
X127001248Y-128290512D01*
X126840298Y-128062497D01*
X126711895Y-127814690D01*
X126618430Y-127551707D01*
X126561646Y-127278447D01*
X126542600Y-127000000D01*
X126561646Y-126721553D01*
X126618430Y-126448293D01*
X126711895Y-126185310D01*
X126840298Y-125937503D01*
X127001248Y-125709488D01*
X127191747Y-125505514D01*
X127408246Y-125329378D01*
X127646713Y-125184364D01*
X127902705Y-125073171D01*
X128171453Y-124997871D01*
X128447951Y-124959867D01*
X128727049Y-124959867D01*
X129003547Y-124997871D01*
G37*
G36*
X148053547Y-124997871D02*
G01*
X148322295Y-125073171D01*
X148578287Y-125184364D01*
X148816754Y-125329378D01*
X149033253Y-125505514D01*
X149223752Y-125709488D01*
X149384702Y-125937503D01*
X149513105Y-126185310D01*
X149606570Y-126448293D01*
X149663354Y-126721553D01*
X149682400Y-127000000D01*
X149663354Y-127278447D01*
X149606570Y-127551707D01*
X149513105Y-127814690D01*
X149384702Y-128062497D01*
X149223752Y-128290512D01*
X149033253Y-128494486D01*
X148816754Y-128670622D01*
X148578287Y-128815636D01*
X148322295Y-128926829D01*
X148053547Y-129002129D01*
X147777049Y-129040133D01*
X147497951Y-129040133D01*
X147221453Y-129002129D01*
X146952705Y-128926829D01*
X146696713Y-128815636D01*
X146458246Y-128670622D01*
X146241747Y-128494486D01*
X146051248Y-128290512D01*
X145890298Y-128062497D01*
X145761895Y-127814690D01*
X145668430Y-127551707D01*
X145611646Y-127278447D01*
X145592600Y-127000000D01*
X145611646Y-126721553D01*
X145668430Y-126448293D01*
X145761895Y-126185310D01*
X145890298Y-125937503D01*
X146051248Y-125709488D01*
X146241747Y-125505514D01*
X146458246Y-125329378D01*
X146696713Y-125184364D01*
X146952705Y-125073171D01*
X147221453Y-124997871D01*
X147497951Y-124959867D01*
X147777049Y-124959867D01*
X148053547Y-124997871D01*
G37*
G36*
X167103547Y-124997871D02*
G01*
X167372295Y-125073171D01*
X167628287Y-125184364D01*
X167866754Y-125329378D01*
X168083253Y-125505514D01*
X168273752Y-125709488D01*
X168434702Y-125937503D01*
X168563105Y-126185310D01*
X168656570Y-126448293D01*
X168713354Y-126721553D01*
X168732400Y-127000000D01*
X168713354Y-127278447D01*
X168656570Y-127551707D01*
X168563105Y-127814690D01*
X168434702Y-128062497D01*
X168273752Y-128290512D01*
X168083253Y-128494486D01*
X167866754Y-128670622D01*
X167628287Y-128815636D01*
X167372295Y-128926829D01*
X167103547Y-129002129D01*
X166827049Y-129040133D01*
X166547951Y-129040133D01*
X166271453Y-129002129D01*
X166002705Y-128926829D01*
X165746713Y-128815636D01*
X165508246Y-128670622D01*
X165291747Y-128494486D01*
X165101248Y-128290512D01*
X164940298Y-128062497D01*
X164811895Y-127814690D01*
X164718430Y-127551707D01*
X164661646Y-127278447D01*
X164642600Y-127000000D01*
X164661646Y-126721553D01*
X164718430Y-126448293D01*
X164811895Y-126185310D01*
X164940298Y-125937503D01*
X165101248Y-125709488D01*
X165291747Y-125505514D01*
X165508246Y-125329378D01*
X165746713Y-125184364D01*
X166002705Y-125073171D01*
X166271453Y-124997871D01*
X166547951Y-124959867D01*
X166827049Y-124959867D01*
X167103547Y-124997871D01*
G37*
G36*
X186153547Y-124997871D02*
G01*
X186422295Y-125073171D01*
X186678287Y-125184364D01*
X186916754Y-125329378D01*
X187133253Y-125505514D01*
X187323752Y-125709488D01*
X187484702Y-125937503D01*
X187613105Y-126185310D01*
X187706570Y-126448293D01*
X187763354Y-126721553D01*
X187782400Y-127000000D01*
X187763354Y-127278447D01*
X187706570Y-127551707D01*
X187613105Y-127814690D01*
X187484702Y-128062497D01*
X187323752Y-128290512D01*
X187133253Y-128494486D01*
X186916754Y-128670622D01*
X186678287Y-128815636D01*
X186422295Y-128926829D01*
X186153547Y-129002129D01*
X185877049Y-129040133D01*
X185597951Y-129040133D01*
X185321453Y-129002129D01*
X185052705Y-128926829D01*
X184796713Y-128815636D01*
X184558246Y-128670622D01*
X184341747Y-128494486D01*
X184151248Y-128290512D01*
X183990298Y-128062497D01*
X183861895Y-127814690D01*
X183768430Y-127551707D01*
X183711646Y-127278447D01*
X183692600Y-127000000D01*
X183711646Y-126721553D01*
X183768430Y-126448293D01*
X183861895Y-126185310D01*
X183990298Y-125937503D01*
X184151248Y-125709488D01*
X184341747Y-125505514D01*
X184558246Y-125329378D01*
X184796713Y-125184364D01*
X185052705Y-125073171D01*
X185321453Y-124997871D01*
X185597951Y-124959867D01*
X185877049Y-124959867D01*
X186153547Y-124997871D01*
G37*
G36*
X123552872Y-126079073D02*
G01*
X123604293Y-126079073D01*
X123648698Y-126088511D01*
X123688033Y-126092386D01*
X123737448Y-126107375D01*
X123793650Y-126119322D01*
X123829615Y-126135334D01*
X123861636Y-126145048D01*
X123912524Y-126172247D01*
X123970500Y-126198060D01*
X123997450Y-126217641D01*
X124021621Y-126230560D01*
X124070929Y-126271026D01*
X124127115Y-126311848D01*
X124145357Y-126332108D01*
X124161853Y-126345646D01*
X124206181Y-126399659D01*
X124256650Y-126455711D01*
X124267252Y-126474074D01*
X124276939Y-126485878D01*
X124312766Y-126552908D01*
X124353443Y-126623362D01*
X124358123Y-126637766D01*
X124362451Y-126645863D01*
X124386310Y-126724517D01*
X124413265Y-126807474D01*
X124414213Y-126816501D01*
X124415113Y-126819466D01*
X124423874Y-126908416D01*
X124433500Y-127000000D01*
X124423873Y-127091590D01*
X124415113Y-127180533D01*
X124414214Y-127183496D01*
X124413265Y-127192526D01*
X124386306Y-127275496D01*
X124362451Y-127354136D01*
X124358124Y-127362231D01*
X124353443Y-127376638D01*
X124312759Y-127447103D01*
X124276939Y-127514121D01*
X124267254Y-127525921D01*
X124256650Y-127544289D01*
X124206171Y-127600350D01*
X124161853Y-127654353D01*
X124145361Y-127667887D01*
X124127115Y-127688152D01*
X124070918Y-127728980D01*
X124021621Y-127769439D01*
X123997456Y-127782355D01*
X123970500Y-127801940D01*
X123912512Y-127827757D01*
X123861636Y-127854951D01*
X123829622Y-127864662D01*
X123793650Y-127880678D01*
X123737437Y-127892626D01*
X123688033Y-127907613D01*
X123648707Y-127911486D01*
X123604293Y-127920927D01*
X123552862Y-127920927D01*
X123507500Y-127925395D01*
X123462138Y-127920927D01*
X123410707Y-127920927D01*
X123366293Y-127911486D01*
X123326966Y-127907613D01*
X123277559Y-127892625D01*
X123221350Y-127880678D01*
X123185380Y-127864663D01*
X123153363Y-127854951D01*
X123102481Y-127827754D01*
X123044500Y-127801940D01*
X123017546Y-127782357D01*
X122993378Y-127769439D01*
X122944072Y-127728974D01*
X122887885Y-127688152D01*
X122869641Y-127667890D01*
X122853146Y-127654353D01*
X122808816Y-127600338D01*
X122758350Y-127544289D01*
X122747748Y-127525925D01*
X122738060Y-127514121D01*
X122702226Y-127447080D01*
X122661557Y-127376638D01*
X122656877Y-127362236D01*
X122652548Y-127354136D01*
X122628678Y-127275450D01*
X122601735Y-127192526D01*
X122600786Y-127183501D01*
X122599886Y-127180533D01*
X122591110Y-127091439D01*
X122581500Y-127000000D01*
X122591109Y-126908568D01*
X122599886Y-126819466D01*
X122600786Y-126816496D01*
X122601735Y-126807474D01*
X122628674Y-126724564D01*
X122652548Y-126645863D01*
X122656878Y-126637761D01*
X122661557Y-126623362D01*
X122702219Y-126552932D01*
X122738060Y-126485878D01*
X122747750Y-126474070D01*
X122758350Y-126455711D01*
X122808807Y-126399672D01*
X122853146Y-126345646D01*
X122869644Y-126332105D01*
X122887885Y-126311848D01*
X122944061Y-126271033D01*
X122993378Y-126230560D01*
X123017551Y-126217639D01*
X123044500Y-126198060D01*
X123102469Y-126172250D01*
X123153363Y-126145048D01*
X123185387Y-126135333D01*
X123221350Y-126119322D01*
X123277548Y-126107376D01*
X123326966Y-126092386D01*
X123366302Y-126088511D01*
X123410707Y-126079073D01*
X123462128Y-126079073D01*
X123507500Y-126074604D01*
X123552872Y-126079073D01*
G37*
G36*
X133712872Y-126079073D02*
G01*
X133764293Y-126079073D01*
X133808698Y-126088511D01*
X133848033Y-126092386D01*
X133897448Y-126107375D01*
X133953650Y-126119322D01*
X133989615Y-126135334D01*
X134021636Y-126145048D01*
X134072524Y-126172247D01*
X134130500Y-126198060D01*
X134157450Y-126217641D01*
X134181621Y-126230560D01*
X134230929Y-126271026D01*
X134287115Y-126311848D01*
X134305357Y-126332108D01*
X134321853Y-126345646D01*
X134366181Y-126399659D01*
X134416650Y-126455711D01*
X134427252Y-126474074D01*
X134436939Y-126485878D01*
X134472766Y-126552908D01*
X134513443Y-126623362D01*
X134518123Y-126637766D01*
X134522451Y-126645863D01*
X134546310Y-126724517D01*
X134573265Y-126807474D01*
X134574213Y-126816501D01*
X134575113Y-126819466D01*
X134583874Y-126908416D01*
X134593500Y-127000000D01*
X134583873Y-127091590D01*
X134575113Y-127180533D01*
X134574214Y-127183496D01*
X134573265Y-127192526D01*
X134546306Y-127275496D01*
X134522451Y-127354136D01*
X134518124Y-127362231D01*
X134513443Y-127376638D01*
X134472759Y-127447103D01*
X134436939Y-127514121D01*
X134427254Y-127525921D01*
X134416650Y-127544289D01*
X134366171Y-127600350D01*
X134321853Y-127654353D01*
X134305361Y-127667887D01*
X134287115Y-127688152D01*
X134230918Y-127728980D01*
X134181621Y-127769439D01*
X134157456Y-127782355D01*
X134130500Y-127801940D01*
X134072512Y-127827757D01*
X134021636Y-127854951D01*
X133989622Y-127864662D01*
X133953650Y-127880678D01*
X133897437Y-127892626D01*
X133848033Y-127907613D01*
X133808707Y-127911486D01*
X133764293Y-127920927D01*
X133712862Y-127920927D01*
X133667500Y-127925395D01*
X133622138Y-127920927D01*
X133570707Y-127920927D01*
X133526293Y-127911486D01*
X133486966Y-127907613D01*
X133437559Y-127892625D01*
X133381350Y-127880678D01*
X133345380Y-127864663D01*
X133313363Y-127854951D01*
X133262481Y-127827754D01*
X133204500Y-127801940D01*
X133177546Y-127782357D01*
X133153378Y-127769439D01*
X133104072Y-127728974D01*
X133047885Y-127688152D01*
X133029641Y-127667890D01*
X133013146Y-127654353D01*
X132968816Y-127600338D01*
X132918350Y-127544289D01*
X132907748Y-127525925D01*
X132898060Y-127514121D01*
X132862226Y-127447080D01*
X132821557Y-127376638D01*
X132816877Y-127362236D01*
X132812548Y-127354136D01*
X132788678Y-127275450D01*
X132761735Y-127192526D01*
X132760786Y-127183501D01*
X132759886Y-127180533D01*
X132751110Y-127091439D01*
X132741500Y-127000000D01*
X132751109Y-126908568D01*
X132759886Y-126819466D01*
X132760786Y-126816496D01*
X132761735Y-126807474D01*
X132788674Y-126724564D01*
X132812548Y-126645863D01*
X132816878Y-126637761D01*
X132821557Y-126623362D01*
X132862219Y-126552932D01*
X132898060Y-126485878D01*
X132907750Y-126474070D01*
X132918350Y-126455711D01*
X132968807Y-126399672D01*
X133013146Y-126345646D01*
X133029644Y-126332105D01*
X133047885Y-126311848D01*
X133104061Y-126271033D01*
X133153378Y-126230560D01*
X133177551Y-126217639D01*
X133204500Y-126198060D01*
X133262469Y-126172250D01*
X133313363Y-126145048D01*
X133345387Y-126135333D01*
X133381350Y-126119322D01*
X133437548Y-126107376D01*
X133486966Y-126092386D01*
X133526302Y-126088511D01*
X133570707Y-126079073D01*
X133622128Y-126079073D01*
X133667500Y-126074604D01*
X133712872Y-126079073D01*
G37*
G36*
X142602872Y-126079073D02*
G01*
X142654293Y-126079073D01*
X142698698Y-126088511D01*
X142738033Y-126092386D01*
X142787448Y-126107375D01*
X142843650Y-126119322D01*
X142879615Y-126135334D01*
X142911636Y-126145048D01*
X142962524Y-126172247D01*
X143020500Y-126198060D01*
X143047450Y-126217641D01*
X143071621Y-126230560D01*
X143120929Y-126271026D01*
X143177115Y-126311848D01*
X143195357Y-126332108D01*
X143211853Y-126345646D01*
X143256181Y-126399659D01*
X143306650Y-126455711D01*
X143317252Y-126474074D01*
X143326939Y-126485878D01*
X143362766Y-126552908D01*
X143403443Y-126623362D01*
X143408123Y-126637766D01*
X143412451Y-126645863D01*
X143436310Y-126724517D01*
X143463265Y-126807474D01*
X143464213Y-126816501D01*
X143465113Y-126819466D01*
X143473874Y-126908416D01*
X143483500Y-127000000D01*
X143473873Y-127091590D01*
X143465113Y-127180533D01*
X143464214Y-127183496D01*
X143463265Y-127192526D01*
X143436306Y-127275496D01*
X143412451Y-127354136D01*
X143408124Y-127362231D01*
X143403443Y-127376638D01*
X143362759Y-127447103D01*
X143326939Y-127514121D01*
X143317254Y-127525921D01*
X143306650Y-127544289D01*
X143256171Y-127600350D01*
X143211853Y-127654353D01*
X143195361Y-127667887D01*
X143177115Y-127688152D01*
X143120918Y-127728980D01*
X143071621Y-127769439D01*
X143047456Y-127782355D01*
X143020500Y-127801940D01*
X142962512Y-127827757D01*
X142911636Y-127854951D01*
X142879622Y-127864662D01*
X142843650Y-127880678D01*
X142787437Y-127892626D01*
X142738033Y-127907613D01*
X142698707Y-127911486D01*
X142654293Y-127920927D01*
X142602862Y-127920927D01*
X142557500Y-127925395D01*
X142512138Y-127920927D01*
X142460707Y-127920927D01*
X142416293Y-127911486D01*
X142376966Y-127907613D01*
X142327559Y-127892625D01*
X142271350Y-127880678D01*
X142235380Y-127864663D01*
X142203363Y-127854951D01*
X142152481Y-127827754D01*
X142094500Y-127801940D01*
X142067546Y-127782357D01*
X142043378Y-127769439D01*
X141994072Y-127728974D01*
X141937885Y-127688152D01*
X141919641Y-127667890D01*
X141903146Y-127654353D01*
X141858816Y-127600338D01*
X141808350Y-127544289D01*
X141797748Y-127525925D01*
X141788060Y-127514121D01*
X141752226Y-127447080D01*
X141711557Y-127376638D01*
X141706877Y-127362236D01*
X141702548Y-127354136D01*
X141678678Y-127275450D01*
X141651735Y-127192526D01*
X141650786Y-127183501D01*
X141649886Y-127180533D01*
X141641110Y-127091439D01*
X141631500Y-127000000D01*
X141641109Y-126908568D01*
X141649886Y-126819466D01*
X141650786Y-126816496D01*
X141651735Y-126807474D01*
X141678674Y-126724564D01*
X141702548Y-126645863D01*
X141706878Y-126637761D01*
X141711557Y-126623362D01*
X141752219Y-126552932D01*
X141788060Y-126485878D01*
X141797750Y-126474070D01*
X141808350Y-126455711D01*
X141858807Y-126399672D01*
X141903146Y-126345646D01*
X141919644Y-126332105D01*
X141937885Y-126311848D01*
X141994061Y-126271033D01*
X142043378Y-126230560D01*
X142067551Y-126217639D01*
X142094500Y-126198060D01*
X142152469Y-126172250D01*
X142203363Y-126145048D01*
X142235387Y-126135333D01*
X142271350Y-126119322D01*
X142327548Y-126107376D01*
X142376966Y-126092386D01*
X142416302Y-126088511D01*
X142460707Y-126079073D01*
X142512128Y-126079073D01*
X142557500Y-126074604D01*
X142602872Y-126079073D01*
G37*
G36*
X152762872Y-126079073D02*
G01*
X152814293Y-126079073D01*
X152858698Y-126088511D01*
X152898033Y-126092386D01*
X152947448Y-126107375D01*
X153003650Y-126119322D01*
X153039615Y-126135334D01*
X153071636Y-126145048D01*
X153122524Y-126172247D01*
X153180500Y-126198060D01*
X153207450Y-126217641D01*
X153231621Y-126230560D01*
X153280929Y-126271026D01*
X153337115Y-126311848D01*
X153355357Y-126332108D01*
X153371853Y-126345646D01*
X153416181Y-126399659D01*
X153466650Y-126455711D01*
X153477252Y-126474074D01*
X153486939Y-126485878D01*
X153522766Y-126552908D01*
X153563443Y-126623362D01*
X153568123Y-126637766D01*
X153572451Y-126645863D01*
X153596310Y-126724517D01*
X153623265Y-126807474D01*
X153624213Y-126816501D01*
X153625113Y-126819466D01*
X153633874Y-126908416D01*
X153643500Y-127000000D01*
X153633873Y-127091590D01*
X153625113Y-127180533D01*
X153624214Y-127183496D01*
X153623265Y-127192526D01*
X153596306Y-127275496D01*
X153572451Y-127354136D01*
X153568124Y-127362231D01*
X153563443Y-127376638D01*
X153522759Y-127447103D01*
X153486939Y-127514121D01*
X153477254Y-127525921D01*
X153466650Y-127544289D01*
X153416171Y-127600350D01*
X153371853Y-127654353D01*
X153355361Y-127667887D01*
X153337115Y-127688152D01*
X153280918Y-127728980D01*
X153231621Y-127769439D01*
X153207456Y-127782355D01*
X153180500Y-127801940D01*
X153122512Y-127827757D01*
X153071636Y-127854951D01*
X153039622Y-127864662D01*
X153003650Y-127880678D01*
X152947437Y-127892626D01*
X152898033Y-127907613D01*
X152858707Y-127911486D01*
X152814293Y-127920927D01*
X152762862Y-127920927D01*
X152717500Y-127925395D01*
X152672138Y-127920927D01*
X152620707Y-127920927D01*
X152576293Y-127911486D01*
X152536966Y-127907613D01*
X152487559Y-127892625D01*
X152431350Y-127880678D01*
X152395380Y-127864663D01*
X152363363Y-127854951D01*
X152312481Y-127827754D01*
X152254500Y-127801940D01*
X152227546Y-127782357D01*
X152203378Y-127769439D01*
X152154072Y-127728974D01*
X152097885Y-127688152D01*
X152079641Y-127667890D01*
X152063146Y-127654353D01*
X152018816Y-127600338D01*
X151968350Y-127544289D01*
X151957748Y-127525925D01*
X151948060Y-127514121D01*
X151912226Y-127447080D01*
X151871557Y-127376638D01*
X151866877Y-127362236D01*
X151862548Y-127354136D01*
X151838678Y-127275450D01*
X151811735Y-127192526D01*
X151810786Y-127183501D01*
X151809886Y-127180533D01*
X151801110Y-127091439D01*
X151791500Y-127000000D01*
X151801109Y-126908568D01*
X151809886Y-126819466D01*
X151810786Y-126816496D01*
X151811735Y-126807474D01*
X151838674Y-126724564D01*
X151862548Y-126645863D01*
X151866878Y-126637761D01*
X151871557Y-126623362D01*
X151912219Y-126552932D01*
X151948060Y-126485878D01*
X151957750Y-126474070D01*
X151968350Y-126455711D01*
X152018807Y-126399672D01*
X152063146Y-126345646D01*
X152079644Y-126332105D01*
X152097885Y-126311848D01*
X152154061Y-126271033D01*
X152203378Y-126230560D01*
X152227551Y-126217639D01*
X152254500Y-126198060D01*
X152312469Y-126172250D01*
X152363363Y-126145048D01*
X152395387Y-126135333D01*
X152431350Y-126119322D01*
X152487548Y-126107376D01*
X152536966Y-126092386D01*
X152576302Y-126088511D01*
X152620707Y-126079073D01*
X152672128Y-126079073D01*
X152717500Y-126074604D01*
X152762872Y-126079073D01*
G37*
G36*
X161652872Y-126079073D02*
G01*
X161704293Y-126079073D01*
X161748698Y-126088511D01*
X161788033Y-126092386D01*
X161837448Y-126107375D01*
X161893650Y-126119322D01*
X161929615Y-126135334D01*
X161961636Y-126145048D01*
X162012524Y-126172247D01*
X162070500Y-126198060D01*
X162097450Y-126217641D01*
X162121621Y-126230560D01*
X162170929Y-126271026D01*
X162227115Y-126311848D01*
X162245357Y-126332108D01*
X162261853Y-126345646D01*
X162306181Y-126399659D01*
X162356650Y-126455711D01*
X162367252Y-126474074D01*
X162376939Y-126485878D01*
X162412766Y-126552908D01*
X162453443Y-126623362D01*
X162458123Y-126637766D01*
X162462451Y-126645863D01*
X162486310Y-126724517D01*
X162513265Y-126807474D01*
X162514213Y-126816501D01*
X162515113Y-126819466D01*
X162523874Y-126908416D01*
X162533500Y-127000000D01*
X162523873Y-127091590D01*
X162515113Y-127180533D01*
X162514214Y-127183496D01*
X162513265Y-127192526D01*
X162486306Y-127275496D01*
X162462451Y-127354136D01*
X162458124Y-127362231D01*
X162453443Y-127376638D01*
X162412759Y-127447103D01*
X162376939Y-127514121D01*
X162367254Y-127525921D01*
X162356650Y-127544289D01*
X162306171Y-127600350D01*
X162261853Y-127654353D01*
X162245361Y-127667887D01*
X162227115Y-127688152D01*
X162170918Y-127728980D01*
X162121621Y-127769439D01*
X162097456Y-127782355D01*
X162070500Y-127801940D01*
X162012512Y-127827757D01*
X161961636Y-127854951D01*
X161929622Y-127864662D01*
X161893650Y-127880678D01*
X161837437Y-127892626D01*
X161788033Y-127907613D01*
X161748707Y-127911486D01*
X161704293Y-127920927D01*
X161652862Y-127920927D01*
X161607500Y-127925395D01*
X161562138Y-127920927D01*
X161510707Y-127920927D01*
X161466293Y-127911486D01*
X161426966Y-127907613D01*
X161377559Y-127892625D01*
X161321350Y-127880678D01*
X161285380Y-127864663D01*
X161253363Y-127854951D01*
X161202481Y-127827754D01*
X161144500Y-127801940D01*
X161117546Y-127782357D01*
X161093378Y-127769439D01*
X161044072Y-127728974D01*
X160987885Y-127688152D01*
X160969641Y-127667890D01*
X160953146Y-127654353D01*
X160908816Y-127600338D01*
X160858350Y-127544289D01*
X160847748Y-127525925D01*
X160838060Y-127514121D01*
X160802226Y-127447080D01*
X160761557Y-127376638D01*
X160756877Y-127362236D01*
X160752548Y-127354136D01*
X160728678Y-127275450D01*
X160701735Y-127192526D01*
X160700786Y-127183501D01*
X160699886Y-127180533D01*
X160691110Y-127091439D01*
X160681500Y-127000000D01*
X160691109Y-126908568D01*
X160699886Y-126819466D01*
X160700786Y-126816496D01*
X160701735Y-126807474D01*
X160728674Y-126724564D01*
X160752548Y-126645863D01*
X160756878Y-126637761D01*
X160761557Y-126623362D01*
X160802219Y-126552932D01*
X160838060Y-126485878D01*
X160847750Y-126474070D01*
X160858350Y-126455711D01*
X160908807Y-126399672D01*
X160953146Y-126345646D01*
X160969644Y-126332105D01*
X160987885Y-126311848D01*
X161044061Y-126271033D01*
X161093378Y-126230560D01*
X161117551Y-126217639D01*
X161144500Y-126198060D01*
X161202469Y-126172250D01*
X161253363Y-126145048D01*
X161285387Y-126135333D01*
X161321350Y-126119322D01*
X161377548Y-126107376D01*
X161426966Y-126092386D01*
X161466302Y-126088511D01*
X161510707Y-126079073D01*
X161562128Y-126079073D01*
X161607500Y-126074604D01*
X161652872Y-126079073D01*
G37*
G36*
X171812872Y-126079073D02*
G01*
X171864293Y-126079073D01*
X171908698Y-126088511D01*
X171948033Y-126092386D01*
X171997448Y-126107375D01*
X172053650Y-126119322D01*
X172089615Y-126135334D01*
X172121636Y-126145048D01*
X172172524Y-126172247D01*
X172230500Y-126198060D01*
X172257450Y-126217641D01*
X172281621Y-126230560D01*
X172330929Y-126271026D01*
X172387115Y-126311848D01*
X172405357Y-126332108D01*
X172421853Y-126345646D01*
X172466181Y-126399659D01*
X172516650Y-126455711D01*
X172527252Y-126474074D01*
X172536939Y-126485878D01*
X172572766Y-126552908D01*
X172613443Y-126623362D01*
X172618123Y-126637766D01*
X172622451Y-126645863D01*
X172646310Y-126724517D01*
X172673265Y-126807474D01*
X172674213Y-126816501D01*
X172675113Y-126819466D01*
X172683874Y-126908416D01*
X172693500Y-127000000D01*
X172683873Y-127091590D01*
X172675113Y-127180533D01*
X172674214Y-127183496D01*
X172673265Y-127192526D01*
X172646306Y-127275496D01*
X172622451Y-127354136D01*
X172618124Y-127362231D01*
X172613443Y-127376638D01*
X172572759Y-127447103D01*
X172536939Y-127514121D01*
X172527254Y-127525921D01*
X172516650Y-127544289D01*
X172466171Y-127600350D01*
X172421853Y-127654353D01*
X172405361Y-127667887D01*
X172387115Y-127688152D01*
X172330918Y-127728980D01*
X172281621Y-127769439D01*
X172257456Y-127782355D01*
X172230500Y-127801940D01*
X172172512Y-127827757D01*
X172121636Y-127854951D01*
X172089622Y-127864662D01*
X172053650Y-127880678D01*
X171997437Y-127892626D01*
X171948033Y-127907613D01*
X171908707Y-127911486D01*
X171864293Y-127920927D01*
X171812862Y-127920927D01*
X171767500Y-127925395D01*
X171722138Y-127920927D01*
X171670707Y-127920927D01*
X171626293Y-127911486D01*
X171586966Y-127907613D01*
X171537559Y-127892625D01*
X171481350Y-127880678D01*
X171445380Y-127864663D01*
X171413363Y-127854951D01*
X171362481Y-127827754D01*
X171304500Y-127801940D01*
X171277546Y-127782357D01*
X171253378Y-127769439D01*
X171204072Y-127728974D01*
X171147885Y-127688152D01*
X171129641Y-127667890D01*
X171113146Y-127654353D01*
X171068816Y-127600338D01*
X171018350Y-127544289D01*
X171007748Y-127525925D01*
X170998060Y-127514121D01*
X170962226Y-127447080D01*
X170921557Y-127376638D01*
X170916877Y-127362236D01*
X170912548Y-127354136D01*
X170888678Y-127275450D01*
X170861735Y-127192526D01*
X170860786Y-127183501D01*
X170859886Y-127180533D01*
X170851110Y-127091439D01*
X170841500Y-127000000D01*
X170851109Y-126908568D01*
X170859886Y-126819466D01*
X170860786Y-126816496D01*
X170861735Y-126807474D01*
X170888674Y-126724564D01*
X170912548Y-126645863D01*
X170916878Y-126637761D01*
X170921557Y-126623362D01*
X170962219Y-126552932D01*
X170998060Y-126485878D01*
X171007750Y-126474070D01*
X171018350Y-126455711D01*
X171068807Y-126399672D01*
X171113146Y-126345646D01*
X171129644Y-126332105D01*
X171147885Y-126311848D01*
X171204061Y-126271033D01*
X171253378Y-126230560D01*
X171277551Y-126217639D01*
X171304500Y-126198060D01*
X171362469Y-126172250D01*
X171413363Y-126145048D01*
X171445387Y-126135333D01*
X171481350Y-126119322D01*
X171537548Y-126107376D01*
X171586966Y-126092386D01*
X171626302Y-126088511D01*
X171670707Y-126079073D01*
X171722128Y-126079073D01*
X171767500Y-126074604D01*
X171812872Y-126079073D01*
G37*
G36*
X180702872Y-126079073D02*
G01*
X180754293Y-126079073D01*
X180798698Y-126088511D01*
X180838033Y-126092386D01*
X180887448Y-126107375D01*
X180943650Y-126119322D01*
X180979615Y-126135334D01*
X181011636Y-126145048D01*
X181062524Y-126172247D01*
X181120500Y-126198060D01*
X181147450Y-126217641D01*
X181171621Y-126230560D01*
X181220929Y-126271026D01*
X181277115Y-126311848D01*
X181295357Y-126332108D01*
X181311853Y-126345646D01*
X181356181Y-126399659D01*
X181406650Y-126455711D01*
X181417252Y-126474074D01*
X181426939Y-126485878D01*
X181462766Y-126552908D01*
X181503443Y-126623362D01*
X181508123Y-126637766D01*
X181512451Y-126645863D01*
X181536310Y-126724517D01*
X181563265Y-126807474D01*
X181564213Y-126816501D01*
X181565113Y-126819466D01*
X181573874Y-126908416D01*
X181583500Y-127000000D01*
X181573873Y-127091590D01*
X181565113Y-127180533D01*
X181564214Y-127183496D01*
X181563265Y-127192526D01*
X181536306Y-127275496D01*
X181512451Y-127354136D01*
X181508124Y-127362231D01*
X181503443Y-127376638D01*
X181462759Y-127447103D01*
X181426939Y-127514121D01*
X181417254Y-127525921D01*
X181406650Y-127544289D01*
X181356171Y-127600350D01*
X181311853Y-127654353D01*
X181295361Y-127667887D01*
X181277115Y-127688152D01*
X181220918Y-127728980D01*
X181171621Y-127769439D01*
X181147456Y-127782355D01*
X181120500Y-127801940D01*
X181062512Y-127827757D01*
X181011636Y-127854951D01*
X180979622Y-127864662D01*
X180943650Y-127880678D01*
X180887437Y-127892626D01*
X180838033Y-127907613D01*
X180798707Y-127911486D01*
X180754293Y-127920927D01*
X180702862Y-127920927D01*
X180657500Y-127925395D01*
X180612138Y-127920927D01*
X180560707Y-127920927D01*
X180516293Y-127911486D01*
X180476966Y-127907613D01*
X180427559Y-127892625D01*
X180371350Y-127880678D01*
X180335380Y-127864663D01*
X180303363Y-127854951D01*
X180252481Y-127827754D01*
X180194500Y-127801940D01*
X180167546Y-127782357D01*
X180143378Y-127769439D01*
X180094072Y-127728974D01*
X180037885Y-127688152D01*
X180019641Y-127667890D01*
X180003146Y-127654353D01*
X179958816Y-127600338D01*
X179908350Y-127544289D01*
X179897748Y-127525925D01*
X179888060Y-127514121D01*
X179852226Y-127447080D01*
X179811557Y-127376638D01*
X179806877Y-127362236D01*
X179802548Y-127354136D01*
X179778678Y-127275450D01*
X179751735Y-127192526D01*
X179750786Y-127183501D01*
X179749886Y-127180533D01*
X179741110Y-127091439D01*
X179731500Y-127000000D01*
X179741109Y-126908568D01*
X179749886Y-126819466D01*
X179750786Y-126816496D01*
X179751735Y-126807474D01*
X179778674Y-126724564D01*
X179802548Y-126645863D01*
X179806878Y-126637761D01*
X179811557Y-126623362D01*
X179852219Y-126552932D01*
X179888060Y-126485878D01*
X179897750Y-126474070D01*
X179908350Y-126455711D01*
X179958807Y-126399672D01*
X180003146Y-126345646D01*
X180019644Y-126332105D01*
X180037885Y-126311848D01*
X180094061Y-126271033D01*
X180143378Y-126230560D01*
X180167551Y-126217639D01*
X180194500Y-126198060D01*
X180252469Y-126172250D01*
X180303363Y-126145048D01*
X180335387Y-126135333D01*
X180371350Y-126119322D01*
X180427548Y-126107376D01*
X180476966Y-126092386D01*
X180516302Y-126088511D01*
X180560707Y-126079073D01*
X180612128Y-126079073D01*
X180657500Y-126074604D01*
X180702872Y-126079073D01*
G37*
G36*
X190862872Y-126079073D02*
G01*
X190914293Y-126079073D01*
X190958698Y-126088511D01*
X190998033Y-126092386D01*
X191047448Y-126107375D01*
X191103650Y-126119322D01*
X191139615Y-126135334D01*
X191171636Y-126145048D01*
X191222524Y-126172247D01*
X191280500Y-126198060D01*
X191307450Y-126217641D01*
X191331621Y-126230560D01*
X191380929Y-126271026D01*
X191437115Y-126311848D01*
X191455357Y-126332108D01*
X191471853Y-126345646D01*
X191516181Y-126399659D01*
X191566650Y-126455711D01*
X191577252Y-126474074D01*
X191586939Y-126485878D01*
X191622766Y-126552908D01*
X191663443Y-126623362D01*
X191668123Y-126637766D01*
X191672451Y-126645863D01*
X191696310Y-126724517D01*
X191723265Y-126807474D01*
X191724213Y-126816501D01*
X191725113Y-126819466D01*
X191733874Y-126908416D01*
X191743500Y-127000000D01*
X191733873Y-127091590D01*
X191725113Y-127180533D01*
X191724214Y-127183496D01*
X191723265Y-127192526D01*
X191696306Y-127275496D01*
X191672451Y-127354136D01*
X191668124Y-127362231D01*
X191663443Y-127376638D01*
X191622759Y-127447103D01*
X191586939Y-127514121D01*
X191577254Y-127525921D01*
X191566650Y-127544289D01*
X191516171Y-127600350D01*
X191471853Y-127654353D01*
X191455361Y-127667887D01*
X191437115Y-127688152D01*
X191380918Y-127728980D01*
X191331621Y-127769439D01*
X191307456Y-127782355D01*
X191280500Y-127801940D01*
X191222512Y-127827757D01*
X191171636Y-127854951D01*
X191139622Y-127864662D01*
X191103650Y-127880678D01*
X191047437Y-127892626D01*
X190998033Y-127907613D01*
X190958707Y-127911486D01*
X190914293Y-127920927D01*
X190862862Y-127920927D01*
X190817500Y-127925395D01*
X190772138Y-127920927D01*
X190720707Y-127920927D01*
X190676293Y-127911486D01*
X190636966Y-127907613D01*
X190587559Y-127892625D01*
X190531350Y-127880678D01*
X190495380Y-127864663D01*
X190463363Y-127854951D01*
X190412481Y-127827754D01*
X190354500Y-127801940D01*
X190327546Y-127782357D01*
X190303378Y-127769439D01*
X190254072Y-127728974D01*
X190197885Y-127688152D01*
X190179641Y-127667890D01*
X190163146Y-127654353D01*
X190118816Y-127600338D01*
X190068350Y-127544289D01*
X190057748Y-127525925D01*
X190048060Y-127514121D01*
X190012226Y-127447080D01*
X189971557Y-127376638D01*
X189966877Y-127362236D01*
X189962548Y-127354136D01*
X189938678Y-127275450D01*
X189911735Y-127192526D01*
X189910786Y-127183501D01*
X189909886Y-127180533D01*
X189901110Y-127091439D01*
X189891500Y-127000000D01*
X189901109Y-126908568D01*
X189909886Y-126819466D01*
X189910786Y-126816496D01*
X189911735Y-126807474D01*
X189938674Y-126724564D01*
X189962548Y-126645863D01*
X189966878Y-126637761D01*
X189971557Y-126623362D01*
X190012219Y-126552932D01*
X190048060Y-126485878D01*
X190057750Y-126474070D01*
X190068350Y-126455711D01*
X190118807Y-126399672D01*
X190163146Y-126345646D01*
X190179644Y-126332105D01*
X190197885Y-126311848D01*
X190254061Y-126271033D01*
X190303378Y-126230560D01*
X190327551Y-126217639D01*
X190354500Y-126198060D01*
X190412469Y-126172250D01*
X190463363Y-126145048D01*
X190495387Y-126135333D01*
X190531350Y-126119322D01*
X190587548Y-126107376D01*
X190636966Y-126092386D01*
X190676302Y-126088511D01*
X190720707Y-126079073D01*
X190772128Y-126079073D01*
X190817500Y-126074604D01*
X190862872Y-126079073D01*
G37*
G36*
X129003547Y-105947871D02*
G01*
X129272295Y-106023171D01*
X129528287Y-106134364D01*
X129766754Y-106279378D01*
X129983253Y-106455514D01*
X130173752Y-106659488D01*
X130334702Y-106887503D01*
X130463105Y-107135310D01*
X130556570Y-107398293D01*
X130613354Y-107671553D01*
X130632400Y-107950000D01*
X130613354Y-108228447D01*
X130556570Y-108501707D01*
X130463105Y-108764690D01*
X130334702Y-109012497D01*
X130173752Y-109240512D01*
X129983253Y-109444486D01*
X129766754Y-109620622D01*
X129528287Y-109765636D01*
X129272295Y-109876829D01*
X129003547Y-109952129D01*
X128727049Y-109990133D01*
X128447951Y-109990133D01*
X128171453Y-109952129D01*
X127902705Y-109876829D01*
X127646713Y-109765636D01*
X127408246Y-109620622D01*
X127191747Y-109444486D01*
X127001248Y-109240512D01*
X126840298Y-109012497D01*
X126711895Y-108764690D01*
X126618430Y-108501707D01*
X126561646Y-108228447D01*
X126542600Y-107950000D01*
X126561646Y-107671553D01*
X126618430Y-107398293D01*
X126711895Y-107135310D01*
X126840298Y-106887503D01*
X127001248Y-106659488D01*
X127191747Y-106455514D01*
X127408246Y-106279378D01*
X127646713Y-106134364D01*
X127902705Y-106023171D01*
X128171453Y-105947871D01*
X128447951Y-105909867D01*
X128727049Y-105909867D01*
X129003547Y-105947871D01*
G37*
G36*
X148053547Y-105947871D02*
G01*
X148322295Y-106023171D01*
X148578287Y-106134364D01*
X148816754Y-106279378D01*
X149033253Y-106455514D01*
X149223752Y-106659488D01*
X149384702Y-106887503D01*
X149513105Y-107135310D01*
X149606570Y-107398293D01*
X149663354Y-107671553D01*
X149682400Y-107950000D01*
X149663354Y-108228447D01*
X149606570Y-108501707D01*
X149513105Y-108764690D01*
X149384702Y-109012497D01*
X149223752Y-109240512D01*
X149033253Y-109444486D01*
X148816754Y-109620622D01*
X148578287Y-109765636D01*
X148322295Y-109876829D01*
X148053547Y-109952129D01*
X147777049Y-109990133D01*
X147497951Y-109990133D01*
X147221453Y-109952129D01*
X146952705Y-109876829D01*
X146696713Y-109765636D01*
X146458246Y-109620622D01*
X146241747Y-109444486D01*
X146051248Y-109240512D01*
X145890298Y-109012497D01*
X145761895Y-108764690D01*
X145668430Y-108501707D01*
X145611646Y-108228447D01*
X145592600Y-107950000D01*
X145611646Y-107671553D01*
X145668430Y-107398293D01*
X145761895Y-107135310D01*
X145890298Y-106887503D01*
X146051248Y-106659488D01*
X146241747Y-106455514D01*
X146458246Y-106279378D01*
X146696713Y-106134364D01*
X146952705Y-106023171D01*
X147221453Y-105947871D01*
X147497951Y-105909867D01*
X147777049Y-105909867D01*
X148053547Y-105947871D01*
G37*
G36*
X167103547Y-105947871D02*
G01*
X167372295Y-106023171D01*
X167628287Y-106134364D01*
X167866754Y-106279378D01*
X168083253Y-106455514D01*
X168273752Y-106659488D01*
X168434702Y-106887503D01*
X168563105Y-107135310D01*
X168656570Y-107398293D01*
X168713354Y-107671553D01*
X168732400Y-107950000D01*
X168713354Y-108228447D01*
X168656570Y-108501707D01*
X168563105Y-108764690D01*
X168434702Y-109012497D01*
X168273752Y-109240512D01*
X168083253Y-109444486D01*
X167866754Y-109620622D01*
X167628287Y-109765636D01*
X167372295Y-109876829D01*
X167103547Y-109952129D01*
X166827049Y-109990133D01*
X166547951Y-109990133D01*
X166271453Y-109952129D01*
X166002705Y-109876829D01*
X165746713Y-109765636D01*
X165508246Y-109620622D01*
X165291747Y-109444486D01*
X165101248Y-109240512D01*
X164940298Y-109012497D01*
X164811895Y-108764690D01*
X164718430Y-108501707D01*
X164661646Y-108228447D01*
X164642600Y-107950000D01*
X164661646Y-107671553D01*
X164718430Y-107398293D01*
X164811895Y-107135310D01*
X164940298Y-106887503D01*
X165101248Y-106659488D01*
X165291747Y-106455514D01*
X165508246Y-106279378D01*
X165746713Y-106134364D01*
X166002705Y-106023171D01*
X166271453Y-105947871D01*
X166547951Y-105909867D01*
X166827049Y-105909867D01*
X167103547Y-105947871D01*
G37*
G36*
X186153547Y-105947871D02*
G01*
X186422295Y-106023171D01*
X186678287Y-106134364D01*
X186916754Y-106279378D01*
X187133253Y-106455514D01*
X187323752Y-106659488D01*
X187484702Y-106887503D01*
X187613105Y-107135310D01*
X187706570Y-107398293D01*
X187763354Y-107671553D01*
X187782400Y-107950000D01*
X187763354Y-108228447D01*
X187706570Y-108501707D01*
X187613105Y-108764690D01*
X187484702Y-109012497D01*
X187323752Y-109240512D01*
X187133253Y-109444486D01*
X186916754Y-109620622D01*
X186678287Y-109765636D01*
X186422295Y-109876829D01*
X186153547Y-109952129D01*
X185877049Y-109990133D01*
X185597951Y-109990133D01*
X185321453Y-109952129D01*
X185052705Y-109876829D01*
X184796713Y-109765636D01*
X184558246Y-109620622D01*
X184341747Y-109444486D01*
X184151248Y-109240512D01*
X183990298Y-109012497D01*
X183861895Y-108764690D01*
X183768430Y-108501707D01*
X183711646Y-108228447D01*
X183692600Y-107950000D01*
X183711646Y-107671553D01*
X183768430Y-107398293D01*
X183861895Y-107135310D01*
X183990298Y-106887503D01*
X184151248Y-106659488D01*
X184341747Y-106455514D01*
X184558246Y-106279378D01*
X184796713Y-106134364D01*
X185052705Y-106023171D01*
X185321453Y-105947871D01*
X185597951Y-105909867D01*
X185877049Y-105909867D01*
X186153547Y-105947871D01*
G37*
G36*
X123552872Y-107029073D02*
G01*
X123604293Y-107029073D01*
X123648698Y-107038511D01*
X123688033Y-107042386D01*
X123737448Y-107057375D01*
X123793650Y-107069322D01*
X123829615Y-107085334D01*
X123861636Y-107095048D01*
X123912524Y-107122247D01*
X123970500Y-107148060D01*
X123997450Y-107167641D01*
X124021621Y-107180560D01*
X124070929Y-107221026D01*
X124127115Y-107261848D01*
X124145357Y-107282108D01*
X124161853Y-107295646D01*
X124206181Y-107349659D01*
X124256650Y-107405711D01*
X124267252Y-107424074D01*
X124276939Y-107435878D01*
X124312766Y-107502908D01*
X124353443Y-107573362D01*
X124358123Y-107587766D01*
X124362451Y-107595863D01*
X124386310Y-107674517D01*
X124413265Y-107757474D01*
X124414213Y-107766501D01*
X124415113Y-107769466D01*
X124423874Y-107858416D01*
X124433500Y-107950000D01*
X124423873Y-108041590D01*
X124415113Y-108130533D01*
X124414214Y-108133496D01*
X124413265Y-108142526D01*
X124386306Y-108225496D01*
X124362451Y-108304136D01*
X124358124Y-108312231D01*
X124353443Y-108326638D01*
X124312759Y-108397103D01*
X124276939Y-108464121D01*
X124267254Y-108475921D01*
X124256650Y-108494289D01*
X124206171Y-108550350D01*
X124161853Y-108604353D01*
X124145361Y-108617887D01*
X124127115Y-108638152D01*
X124070918Y-108678980D01*
X124021621Y-108719439D01*
X123997456Y-108732355D01*
X123970500Y-108751940D01*
X123912512Y-108777757D01*
X123861636Y-108804951D01*
X123829622Y-108814662D01*
X123793650Y-108830678D01*
X123737437Y-108842626D01*
X123688033Y-108857613D01*
X123648707Y-108861486D01*
X123604293Y-108870927D01*
X123552862Y-108870927D01*
X123507500Y-108875395D01*
X123462138Y-108870927D01*
X123410707Y-108870927D01*
X123366293Y-108861486D01*
X123326966Y-108857613D01*
X123277559Y-108842625D01*
X123221350Y-108830678D01*
X123185380Y-108814663D01*
X123153363Y-108804951D01*
X123102481Y-108777754D01*
X123044500Y-108751940D01*
X123017546Y-108732357D01*
X122993378Y-108719439D01*
X122944072Y-108678974D01*
X122887885Y-108638152D01*
X122869641Y-108617890D01*
X122853146Y-108604353D01*
X122808816Y-108550338D01*
X122758350Y-108494289D01*
X122747748Y-108475925D01*
X122738060Y-108464121D01*
X122702226Y-108397080D01*
X122661557Y-108326638D01*
X122656877Y-108312236D01*
X122652548Y-108304136D01*
X122628678Y-108225450D01*
X122601735Y-108142526D01*
X122600786Y-108133501D01*
X122599886Y-108130533D01*
X122591110Y-108041439D01*
X122581500Y-107950000D01*
X122591109Y-107858568D01*
X122599886Y-107769466D01*
X122600786Y-107766496D01*
X122601735Y-107757474D01*
X122628674Y-107674564D01*
X122652548Y-107595863D01*
X122656878Y-107587761D01*
X122661557Y-107573362D01*
X122702219Y-107502932D01*
X122738060Y-107435878D01*
X122747750Y-107424070D01*
X122758350Y-107405711D01*
X122808807Y-107349672D01*
X122853146Y-107295646D01*
X122869644Y-107282105D01*
X122887885Y-107261848D01*
X122944061Y-107221033D01*
X122993378Y-107180560D01*
X123017551Y-107167639D01*
X123044500Y-107148060D01*
X123102469Y-107122250D01*
X123153363Y-107095048D01*
X123185387Y-107085333D01*
X123221350Y-107069322D01*
X123277548Y-107057376D01*
X123326966Y-107042386D01*
X123366302Y-107038511D01*
X123410707Y-107029073D01*
X123462128Y-107029073D01*
X123507500Y-107024604D01*
X123552872Y-107029073D01*
G37*
G36*
X133712872Y-107029073D02*
G01*
X133764293Y-107029073D01*
X133808698Y-107038511D01*
X133848033Y-107042386D01*
X133897448Y-107057375D01*
X133953650Y-107069322D01*
X133989615Y-107085334D01*
X134021636Y-107095048D01*
X134072524Y-107122247D01*
X134130500Y-107148060D01*
X134157450Y-107167641D01*
X134181621Y-107180560D01*
X134230929Y-107221026D01*
X134287115Y-107261848D01*
X134305357Y-107282108D01*
X134321853Y-107295646D01*
X134366181Y-107349659D01*
X134416650Y-107405711D01*
X134427252Y-107424074D01*
X134436939Y-107435878D01*
X134472766Y-107502908D01*
X134513443Y-107573362D01*
X134518123Y-107587766D01*
X134522451Y-107595863D01*
X134546310Y-107674517D01*
X134573265Y-107757474D01*
X134574213Y-107766501D01*
X134575113Y-107769466D01*
X134583874Y-107858416D01*
X134593500Y-107950000D01*
X134583873Y-108041590D01*
X134575113Y-108130533D01*
X134574214Y-108133496D01*
X134573265Y-108142526D01*
X134546306Y-108225496D01*
X134522451Y-108304136D01*
X134518124Y-108312231D01*
X134513443Y-108326638D01*
X134472759Y-108397103D01*
X134436939Y-108464121D01*
X134427254Y-108475921D01*
X134416650Y-108494289D01*
X134366171Y-108550350D01*
X134321853Y-108604353D01*
X134305361Y-108617887D01*
X134287115Y-108638152D01*
X134230918Y-108678980D01*
X134181621Y-108719439D01*
X134157456Y-108732355D01*
X134130500Y-108751940D01*
X134072512Y-108777757D01*
X134021636Y-108804951D01*
X133989622Y-108814662D01*
X133953650Y-108830678D01*
X133897437Y-108842626D01*
X133848033Y-108857613D01*
X133808707Y-108861486D01*
X133764293Y-108870927D01*
X133712862Y-108870927D01*
X133667500Y-108875395D01*
X133622138Y-108870927D01*
X133570707Y-108870927D01*
X133526293Y-108861486D01*
X133486966Y-108857613D01*
X133437559Y-108842625D01*
X133381350Y-108830678D01*
X133345380Y-108814663D01*
X133313363Y-108804951D01*
X133262481Y-108777754D01*
X133204500Y-108751940D01*
X133177546Y-108732357D01*
X133153378Y-108719439D01*
X133104072Y-108678974D01*
X133047885Y-108638152D01*
X133029641Y-108617890D01*
X133013146Y-108604353D01*
X132968816Y-108550338D01*
X132918350Y-108494289D01*
X132907748Y-108475925D01*
X132898060Y-108464121D01*
X132862226Y-108397080D01*
X132821557Y-108326638D01*
X132816877Y-108312236D01*
X132812548Y-108304136D01*
X132788678Y-108225450D01*
X132761735Y-108142526D01*
X132760786Y-108133501D01*
X132759886Y-108130533D01*
X132751110Y-108041439D01*
X132741500Y-107950000D01*
X132751109Y-107858568D01*
X132759886Y-107769466D01*
X132760786Y-107766496D01*
X132761735Y-107757474D01*
X132788674Y-107674564D01*
X132812548Y-107595863D01*
X132816878Y-107587761D01*
X132821557Y-107573362D01*
X132862219Y-107502932D01*
X132898060Y-107435878D01*
X132907750Y-107424070D01*
X132918350Y-107405711D01*
X132968807Y-107349672D01*
X133013146Y-107295646D01*
X133029644Y-107282105D01*
X133047885Y-107261848D01*
X133104061Y-107221033D01*
X133153378Y-107180560D01*
X133177551Y-107167639D01*
X133204500Y-107148060D01*
X133262469Y-107122250D01*
X133313363Y-107095048D01*
X133345387Y-107085333D01*
X133381350Y-107069322D01*
X133437548Y-107057376D01*
X133486966Y-107042386D01*
X133526302Y-107038511D01*
X133570707Y-107029073D01*
X133622128Y-107029073D01*
X133667500Y-107024604D01*
X133712872Y-107029073D01*
G37*
G36*
X142602872Y-107029073D02*
G01*
X142654293Y-107029073D01*
X142698698Y-107038511D01*
X142738033Y-107042386D01*
X142787448Y-107057375D01*
X142843650Y-107069322D01*
X142879615Y-107085334D01*
X142911636Y-107095048D01*
X142962524Y-107122247D01*
X143020500Y-107148060D01*
X143047450Y-107167641D01*
X143071621Y-107180560D01*
X143120929Y-107221026D01*
X143177115Y-107261848D01*
X143195357Y-107282108D01*
X143211853Y-107295646D01*
X143256181Y-107349659D01*
X143306650Y-107405711D01*
X143317252Y-107424074D01*
X143326939Y-107435878D01*
X143362766Y-107502908D01*
X143403443Y-107573362D01*
X143408123Y-107587766D01*
X143412451Y-107595863D01*
X143436310Y-107674517D01*
X143463265Y-107757474D01*
X143464213Y-107766501D01*
X143465113Y-107769466D01*
X143473874Y-107858416D01*
X143483500Y-107950000D01*
X143473873Y-108041590D01*
X143465113Y-108130533D01*
X143464214Y-108133496D01*
X143463265Y-108142526D01*
X143436306Y-108225496D01*
X143412451Y-108304136D01*
X143408124Y-108312231D01*
X143403443Y-108326638D01*
X143362759Y-108397103D01*
X143326939Y-108464121D01*
X143317254Y-108475921D01*
X143306650Y-108494289D01*
X143256171Y-108550350D01*
X143211853Y-108604353D01*
X143195361Y-108617887D01*
X143177115Y-108638152D01*
X143120918Y-108678980D01*
X143071621Y-108719439D01*
X143047456Y-108732355D01*
X143020500Y-108751940D01*
X142962512Y-108777757D01*
X142911636Y-108804951D01*
X142879622Y-108814662D01*
X142843650Y-108830678D01*
X142787437Y-108842626D01*
X142738033Y-108857613D01*
X142698707Y-108861486D01*
X142654293Y-108870927D01*
X142602862Y-108870927D01*
X142557500Y-108875395D01*
X142512138Y-108870927D01*
X142460707Y-108870927D01*
X142416293Y-108861486D01*
X142376966Y-108857613D01*
X142327559Y-108842625D01*
X142271350Y-108830678D01*
X142235380Y-108814663D01*
X142203363Y-108804951D01*
X142152481Y-108777754D01*
X142094500Y-108751940D01*
X142067546Y-108732357D01*
X142043378Y-108719439D01*
X141994072Y-108678974D01*
X141937885Y-108638152D01*
X141919641Y-108617890D01*
X141903146Y-108604353D01*
X141858816Y-108550338D01*
X141808350Y-108494289D01*
X141797748Y-108475925D01*
X141788060Y-108464121D01*
X141752226Y-108397080D01*
X141711557Y-108326638D01*
X141706877Y-108312236D01*
X141702548Y-108304136D01*
X141678678Y-108225450D01*
X141651735Y-108142526D01*
X141650786Y-108133501D01*
X141649886Y-108130533D01*
X141641110Y-108041439D01*
X141631500Y-107950000D01*
X141641109Y-107858568D01*
X141649886Y-107769466D01*
X141650786Y-107766496D01*
X141651735Y-107757474D01*
X141678674Y-107674564D01*
X141702548Y-107595863D01*
X141706878Y-107587761D01*
X141711557Y-107573362D01*
X141752219Y-107502932D01*
X141788060Y-107435878D01*
X141797750Y-107424070D01*
X141808350Y-107405711D01*
X141858807Y-107349672D01*
X141903146Y-107295646D01*
X141919644Y-107282105D01*
X141937885Y-107261848D01*
X141994061Y-107221033D01*
X142043378Y-107180560D01*
X142067551Y-107167639D01*
X142094500Y-107148060D01*
X142152469Y-107122250D01*
X142203363Y-107095048D01*
X142235387Y-107085333D01*
X142271350Y-107069322D01*
X142327548Y-107057376D01*
X142376966Y-107042386D01*
X142416302Y-107038511D01*
X142460707Y-107029073D01*
X142512128Y-107029073D01*
X142557500Y-107024604D01*
X142602872Y-107029073D01*
G37*
G36*
X152762872Y-107029073D02*
G01*
X152814293Y-107029073D01*
X152858698Y-107038511D01*
X152898033Y-107042386D01*
X152947448Y-107057375D01*
X153003650Y-107069322D01*
X153039615Y-107085334D01*
X153071636Y-107095048D01*
X153122524Y-107122247D01*
X153180500Y-107148060D01*
X153207450Y-107167641D01*
X153231621Y-107180560D01*
X153280929Y-107221026D01*
X153337115Y-107261848D01*
X153355357Y-107282108D01*
X153371853Y-107295646D01*
X153416181Y-107349659D01*
X153466650Y-107405711D01*
X153477252Y-107424074D01*
X153486939Y-107435878D01*
X153522766Y-107502908D01*
X153563443Y-107573362D01*
X153568123Y-107587766D01*
X153572451Y-107595863D01*
X153596310Y-107674517D01*
X153623265Y-107757474D01*
X153624213Y-107766501D01*
X153625113Y-107769466D01*
X153633874Y-107858416D01*
X153643500Y-107950000D01*
X153633873Y-108041590D01*
X153625113Y-108130533D01*
X153624214Y-108133496D01*
X153623265Y-108142526D01*
X153596306Y-108225496D01*
X153572451Y-108304136D01*
X153568124Y-108312231D01*
X153563443Y-108326638D01*
X153522759Y-108397103D01*
X153486939Y-108464121D01*
X153477254Y-108475921D01*
X153466650Y-108494289D01*
X153416171Y-108550350D01*
X153371853Y-108604353D01*
X153355361Y-108617887D01*
X153337115Y-108638152D01*
X153280918Y-108678980D01*
X153231621Y-108719439D01*
X153207456Y-108732355D01*
X153180500Y-108751940D01*
X153122512Y-108777757D01*
X153071636Y-108804951D01*
X153039622Y-108814662D01*
X153003650Y-108830678D01*
X152947437Y-108842626D01*
X152898033Y-108857613D01*
X152858707Y-108861486D01*
X152814293Y-108870927D01*
X152762862Y-108870927D01*
X152717500Y-108875395D01*
X152672138Y-108870927D01*
X152620707Y-108870927D01*
X152576293Y-108861486D01*
X152536966Y-108857613D01*
X152487559Y-108842625D01*
X152431350Y-108830678D01*
X152395380Y-108814663D01*
X152363363Y-108804951D01*
X152312481Y-108777754D01*
X152254500Y-108751940D01*
X152227546Y-108732357D01*
X152203378Y-108719439D01*
X152154072Y-108678974D01*
X152097885Y-108638152D01*
X152079641Y-108617890D01*
X152063146Y-108604353D01*
X152018816Y-108550338D01*
X151968350Y-108494289D01*
X151957748Y-108475925D01*
X151948060Y-108464121D01*
X151912226Y-108397080D01*
X151871557Y-108326638D01*
X151866877Y-108312236D01*
X151862548Y-108304136D01*
X151838678Y-108225450D01*
X151811735Y-108142526D01*
X151810786Y-108133501D01*
X151809886Y-108130533D01*
X151801110Y-108041439D01*
X151791500Y-107950000D01*
X151801109Y-107858568D01*
X151809886Y-107769466D01*
X151810786Y-107766496D01*
X151811735Y-107757474D01*
X151838674Y-107674564D01*
X151862548Y-107595863D01*
X151866878Y-107587761D01*
X151871557Y-107573362D01*
X151912219Y-107502932D01*
X151948060Y-107435878D01*
X151957750Y-107424070D01*
X151968350Y-107405711D01*
X152018807Y-107349672D01*
X152063146Y-107295646D01*
X152079644Y-107282105D01*
X152097885Y-107261848D01*
X152154061Y-107221033D01*
X152203378Y-107180560D01*
X152227551Y-107167639D01*
X152254500Y-107148060D01*
X152312469Y-107122250D01*
X152363363Y-107095048D01*
X152395387Y-107085333D01*
X152431350Y-107069322D01*
X152487548Y-107057376D01*
X152536966Y-107042386D01*
X152576302Y-107038511D01*
X152620707Y-107029073D01*
X152672128Y-107029073D01*
X152717500Y-107024604D01*
X152762872Y-107029073D01*
G37*
G36*
X161652872Y-107029073D02*
G01*
X161704293Y-107029073D01*
X161748698Y-107038511D01*
X161788033Y-107042386D01*
X161837448Y-107057375D01*
X161893650Y-107069322D01*
X161929615Y-107085334D01*
X161961636Y-107095048D01*
X162012524Y-107122247D01*
X162070500Y-107148060D01*
X162097450Y-107167641D01*
X162121621Y-107180560D01*
X162170929Y-107221026D01*
X162227115Y-107261848D01*
X162245357Y-107282108D01*
X162261853Y-107295646D01*
X162306181Y-107349659D01*
X162356650Y-107405711D01*
X162367252Y-107424074D01*
X162376939Y-107435878D01*
X162412766Y-107502908D01*
X162453443Y-107573362D01*
X162458123Y-107587766D01*
X162462451Y-107595863D01*
X162486310Y-107674517D01*
X162513265Y-107757474D01*
X162514213Y-107766501D01*
X162515113Y-107769466D01*
X162523874Y-107858416D01*
X162533500Y-107950000D01*
X162523873Y-108041590D01*
X162515113Y-108130533D01*
X162514214Y-108133496D01*
X162513265Y-108142526D01*
X162486306Y-108225496D01*
X162462451Y-108304136D01*
X162458124Y-108312231D01*
X162453443Y-108326638D01*
X162412759Y-108397103D01*
X162376939Y-108464121D01*
X162367254Y-108475921D01*
X162356650Y-108494289D01*
X162306171Y-108550350D01*
X162261853Y-108604353D01*
X162245361Y-108617887D01*
X162227115Y-108638152D01*
X162170918Y-108678980D01*
X162121621Y-108719439D01*
X162097456Y-108732355D01*
X162070500Y-108751940D01*
X162012512Y-108777757D01*
X161961636Y-108804951D01*
X161929622Y-108814662D01*
X161893650Y-108830678D01*
X161837437Y-108842626D01*
X161788033Y-108857613D01*
X161748707Y-108861486D01*
X161704293Y-108870927D01*
X161652862Y-108870927D01*
X161607500Y-108875395D01*
X161562138Y-108870927D01*
X161510707Y-108870927D01*
X161466293Y-108861486D01*
X161426966Y-108857613D01*
X161377559Y-108842625D01*
X161321350Y-108830678D01*
X161285380Y-108814663D01*
X161253363Y-108804951D01*
X161202481Y-108777754D01*
X161144500Y-108751940D01*
X161117546Y-108732357D01*
X161093378Y-108719439D01*
X161044072Y-108678974D01*
X160987885Y-108638152D01*
X160969641Y-108617890D01*
X160953146Y-108604353D01*
X160908816Y-108550338D01*
X160858350Y-108494289D01*
X160847748Y-108475925D01*
X160838060Y-108464121D01*
X160802226Y-108397080D01*
X160761557Y-108326638D01*
X160756877Y-108312236D01*
X160752548Y-108304136D01*
X160728678Y-108225450D01*
X160701735Y-108142526D01*
X160700786Y-108133501D01*
X160699886Y-108130533D01*
X160691110Y-108041439D01*
X160681500Y-107950000D01*
X160691109Y-107858568D01*
X160699886Y-107769466D01*
X160700786Y-107766496D01*
X160701735Y-107757474D01*
X160728674Y-107674564D01*
X160752548Y-107595863D01*
X160756878Y-107587761D01*
X160761557Y-107573362D01*
X160802219Y-107502932D01*
X160838060Y-107435878D01*
X160847750Y-107424070D01*
X160858350Y-107405711D01*
X160908807Y-107349672D01*
X160953146Y-107295646D01*
X160969644Y-107282105D01*
X160987885Y-107261848D01*
X161044061Y-107221033D01*
X161093378Y-107180560D01*
X161117551Y-107167639D01*
X161144500Y-107148060D01*
X161202469Y-107122250D01*
X161253363Y-107095048D01*
X161285387Y-107085333D01*
X161321350Y-107069322D01*
X161377548Y-107057376D01*
X161426966Y-107042386D01*
X161466302Y-107038511D01*
X161510707Y-107029073D01*
X161562128Y-107029073D01*
X161607500Y-107024604D01*
X161652872Y-107029073D01*
G37*
G36*
X171812872Y-107029073D02*
G01*
X171864293Y-107029073D01*
X171908698Y-107038511D01*
X171948033Y-107042386D01*
X171997448Y-107057375D01*
X172053650Y-107069322D01*
X172089615Y-107085334D01*
X172121636Y-107095048D01*
X172172524Y-107122247D01*
X172230500Y-107148060D01*
X172257450Y-107167641D01*
X172281621Y-107180560D01*
X172330929Y-107221026D01*
X172387115Y-107261848D01*
X172405357Y-107282108D01*
X172421853Y-107295646D01*
X172466181Y-107349659D01*
X172516650Y-107405711D01*
X172527252Y-107424074D01*
X172536939Y-107435878D01*
X172572766Y-107502908D01*
X172613443Y-107573362D01*
X172618123Y-107587766D01*
X172622451Y-107595863D01*
X172646310Y-107674517D01*
X172673265Y-107757474D01*
X172674213Y-107766501D01*
X172675113Y-107769466D01*
X172683874Y-107858416D01*
X172693500Y-107950000D01*
X172683873Y-108041590D01*
X172675113Y-108130533D01*
X172674214Y-108133496D01*
X172673265Y-108142526D01*
X172646306Y-108225496D01*
X172622451Y-108304136D01*
X172618124Y-108312231D01*
X172613443Y-108326638D01*
X172572759Y-108397103D01*
X172536939Y-108464121D01*
X172527254Y-108475921D01*
X172516650Y-108494289D01*
X172466171Y-108550350D01*
X172421853Y-108604353D01*
X172405361Y-108617887D01*
X172387115Y-108638152D01*
X172330918Y-108678980D01*
X172281621Y-108719439D01*
X172257456Y-108732355D01*
X172230500Y-108751940D01*
X172172512Y-108777757D01*
X172121636Y-108804951D01*
X172089622Y-108814662D01*
X172053650Y-108830678D01*
X171997437Y-108842626D01*
X171948033Y-108857613D01*
X171908707Y-108861486D01*
X171864293Y-108870927D01*
X171812862Y-108870927D01*
X171767500Y-108875395D01*
X171722138Y-108870927D01*
X171670707Y-108870927D01*
X171626293Y-108861486D01*
X171586966Y-108857613D01*
X171537559Y-108842625D01*
X171481350Y-108830678D01*
X171445380Y-108814663D01*
X171413363Y-108804951D01*
X171362481Y-108777754D01*
X171304500Y-108751940D01*
X171277546Y-108732357D01*
X171253378Y-108719439D01*
X171204072Y-108678974D01*
X171147885Y-108638152D01*
X171129641Y-108617890D01*
X171113146Y-108604353D01*
X171068816Y-108550338D01*
X171018350Y-108494289D01*
X171007748Y-108475925D01*
X170998060Y-108464121D01*
X170962226Y-108397080D01*
X170921557Y-108326638D01*
X170916877Y-108312236D01*
X170912548Y-108304136D01*
X170888678Y-108225450D01*
X170861735Y-108142526D01*
X170860786Y-108133501D01*
X170859886Y-108130533D01*
X170851110Y-108041439D01*
X170841500Y-107950000D01*
X170851109Y-107858568D01*
X170859886Y-107769466D01*
X170860786Y-107766496D01*
X170861735Y-107757474D01*
X170888674Y-107674564D01*
X170912548Y-107595863D01*
X170916878Y-107587761D01*
X170921557Y-107573362D01*
X170962219Y-107502932D01*
X170998060Y-107435878D01*
X171007750Y-107424070D01*
X171018350Y-107405711D01*
X171068807Y-107349672D01*
X171113146Y-107295646D01*
X171129644Y-107282105D01*
X171147885Y-107261848D01*
X171204061Y-107221033D01*
X171253378Y-107180560D01*
X171277551Y-107167639D01*
X171304500Y-107148060D01*
X171362469Y-107122250D01*
X171413363Y-107095048D01*
X171445387Y-107085333D01*
X171481350Y-107069322D01*
X171537548Y-107057376D01*
X171586966Y-107042386D01*
X171626302Y-107038511D01*
X171670707Y-107029073D01*
X171722128Y-107029073D01*
X171767500Y-107024604D01*
X171812872Y-107029073D01*
G37*
G36*
X180702872Y-107029073D02*
G01*
X180754293Y-107029073D01*
X180798698Y-107038511D01*
X180838033Y-107042386D01*
X180887448Y-107057375D01*
X180943650Y-107069322D01*
X180979615Y-107085334D01*
X181011636Y-107095048D01*
X181062524Y-107122247D01*
X181120500Y-107148060D01*
X181147450Y-107167641D01*
X181171621Y-107180560D01*
X181220929Y-107221026D01*
X181277115Y-107261848D01*
X181295357Y-107282108D01*
X181311853Y-107295646D01*
X181356181Y-107349659D01*
X181406650Y-107405711D01*
X181417252Y-107424074D01*
X181426939Y-107435878D01*
X181462766Y-107502908D01*
X181503443Y-107573362D01*
X181508123Y-107587766D01*
X181512451Y-107595863D01*
X181536310Y-107674517D01*
X181563265Y-107757474D01*
X181564213Y-107766501D01*
X181565113Y-107769466D01*
X181573874Y-107858416D01*
X181583500Y-107950000D01*
X181573873Y-108041590D01*
X181565113Y-108130533D01*
X181564214Y-108133496D01*
X181563265Y-108142526D01*
X181536306Y-108225496D01*
X181512451Y-108304136D01*
X181508124Y-108312231D01*
X181503443Y-108326638D01*
X181462759Y-108397103D01*
X181426939Y-108464121D01*
X181417254Y-108475921D01*
X181406650Y-108494289D01*
X181356171Y-108550350D01*
X181311853Y-108604353D01*
X181295361Y-108617887D01*
X181277115Y-108638152D01*
X181220918Y-108678980D01*
X181171621Y-108719439D01*
X181147456Y-108732355D01*
X181120500Y-108751940D01*
X181062512Y-108777757D01*
X181011636Y-108804951D01*
X180979622Y-108814662D01*
X180943650Y-108830678D01*
X180887437Y-108842626D01*
X180838033Y-108857613D01*
X180798707Y-108861486D01*
X180754293Y-108870927D01*
X180702862Y-108870927D01*
X180657500Y-108875395D01*
X180612138Y-108870927D01*
X180560707Y-108870927D01*
X180516293Y-108861486D01*
X180476966Y-108857613D01*
X180427559Y-108842625D01*
X180371350Y-108830678D01*
X180335380Y-108814663D01*
X180303363Y-108804951D01*
X180252481Y-108777754D01*
X180194500Y-108751940D01*
X180167546Y-108732357D01*
X180143378Y-108719439D01*
X180094072Y-108678974D01*
X180037885Y-108638152D01*
X180019641Y-108617890D01*
X180003146Y-108604353D01*
X179958816Y-108550338D01*
X179908350Y-108494289D01*
X179897748Y-108475925D01*
X179888060Y-108464121D01*
X179852226Y-108397080D01*
X179811557Y-108326638D01*
X179806877Y-108312236D01*
X179802548Y-108304136D01*
X179778678Y-108225450D01*
X179751735Y-108142526D01*
X179750786Y-108133501D01*
X179749886Y-108130533D01*
X179741110Y-108041439D01*
X179731500Y-107950000D01*
X179741109Y-107858568D01*
X179749886Y-107769466D01*
X179750786Y-107766496D01*
X179751735Y-107757474D01*
X179778674Y-107674564D01*
X179802548Y-107595863D01*
X179806878Y-107587761D01*
X179811557Y-107573362D01*
X179852219Y-107502932D01*
X179888060Y-107435878D01*
X179897750Y-107424070D01*
X179908350Y-107405711D01*
X179958807Y-107349672D01*
X180003146Y-107295646D01*
X180019644Y-107282105D01*
X180037885Y-107261848D01*
X180094061Y-107221033D01*
X180143378Y-107180560D01*
X180167551Y-107167639D01*
X180194500Y-107148060D01*
X180252469Y-107122250D01*
X180303363Y-107095048D01*
X180335387Y-107085333D01*
X180371350Y-107069322D01*
X180427548Y-107057376D01*
X180476966Y-107042386D01*
X180516302Y-107038511D01*
X180560707Y-107029073D01*
X180612128Y-107029073D01*
X180657500Y-107024604D01*
X180702872Y-107029073D01*
G37*
G36*
X190862872Y-107029073D02*
G01*
X190914293Y-107029073D01*
X190958698Y-107038511D01*
X190998033Y-107042386D01*
X191047448Y-107057375D01*
X191103650Y-107069322D01*
X191139615Y-107085334D01*
X191171636Y-107095048D01*
X191222524Y-107122247D01*
X191280500Y-107148060D01*
X191307450Y-107167641D01*
X191331621Y-107180560D01*
X191380929Y-107221026D01*
X191437115Y-107261848D01*
X191455357Y-107282108D01*
X191471853Y-107295646D01*
X191516181Y-107349659D01*
X191566650Y-107405711D01*
X191577252Y-107424074D01*
X191586939Y-107435878D01*
X191622766Y-107502908D01*
X191663443Y-107573362D01*
X191668123Y-107587766D01*
X191672451Y-107595863D01*
X191696310Y-107674517D01*
X191723265Y-107757474D01*
X191724213Y-107766501D01*
X191725113Y-107769466D01*
X191733874Y-107858416D01*
X191743500Y-107950000D01*
X191733873Y-108041590D01*
X191725113Y-108130533D01*
X191724214Y-108133496D01*
X191723265Y-108142526D01*
X191696306Y-108225496D01*
X191672451Y-108304136D01*
X191668124Y-108312231D01*
X191663443Y-108326638D01*
X191622759Y-108397103D01*
X191586939Y-108464121D01*
X191577254Y-108475921D01*
X191566650Y-108494289D01*
X191516171Y-108550350D01*
X191471853Y-108604353D01*
X191455361Y-108617887D01*
X191437115Y-108638152D01*
X191380918Y-108678980D01*
X191331621Y-108719439D01*
X191307456Y-108732355D01*
X191280500Y-108751940D01*
X191222512Y-108777757D01*
X191171636Y-108804951D01*
X191139622Y-108814662D01*
X191103650Y-108830678D01*
X191047437Y-108842626D01*
X190998033Y-108857613D01*
X190958707Y-108861486D01*
X190914293Y-108870927D01*
X190862862Y-108870927D01*
X190817500Y-108875395D01*
X190772138Y-108870927D01*
X190720707Y-108870927D01*
X190676293Y-108861486D01*
X190636966Y-108857613D01*
X190587559Y-108842625D01*
X190531350Y-108830678D01*
X190495380Y-108814663D01*
X190463363Y-108804951D01*
X190412481Y-108777754D01*
X190354500Y-108751940D01*
X190327546Y-108732357D01*
X190303378Y-108719439D01*
X190254072Y-108678974D01*
X190197885Y-108638152D01*
X190179641Y-108617890D01*
X190163146Y-108604353D01*
X190118816Y-108550338D01*
X190068350Y-108494289D01*
X190057748Y-108475925D01*
X190048060Y-108464121D01*
X190012226Y-108397080D01*
X189971557Y-108326638D01*
X189966877Y-108312236D01*
X189962548Y-108304136D01*
X189938678Y-108225450D01*
X189911735Y-108142526D01*
X189910786Y-108133501D01*
X189909886Y-108130533D01*
X189901110Y-108041439D01*
X189891500Y-107950000D01*
X189901109Y-107858568D01*
X189909886Y-107769466D01*
X189910786Y-107766496D01*
X189911735Y-107757474D01*
X189938674Y-107674564D01*
X189962548Y-107595863D01*
X189966878Y-107587761D01*
X189971557Y-107573362D01*
X190012219Y-107502932D01*
X190048060Y-107435878D01*
X190057750Y-107424070D01*
X190068350Y-107405711D01*
X190118807Y-107349672D01*
X190163146Y-107295646D01*
X190179644Y-107282105D01*
X190197885Y-107261848D01*
X190254061Y-107221033D01*
X190303378Y-107180560D01*
X190327551Y-107167639D01*
X190354500Y-107148060D01*
X190412469Y-107122250D01*
X190463363Y-107095048D01*
X190495387Y-107085333D01*
X190531350Y-107069322D01*
X190587548Y-107057376D01*
X190636966Y-107042386D01*
X190676302Y-107038511D01*
X190720707Y-107029073D01*
X190772128Y-107029073D01*
X190817500Y-107024604D01*
X190862872Y-107029073D01*
G37*
G36*
X129003547Y-86897871D02*
G01*
X129272295Y-86973171D01*
X129528287Y-87084364D01*
X129766754Y-87229378D01*
X129983253Y-87405514D01*
X130173752Y-87609488D01*
X130334702Y-87837503D01*
X130463105Y-88085310D01*
X130556570Y-88348293D01*
X130613354Y-88621553D01*
X130632400Y-88900000D01*
X130613354Y-89178447D01*
X130556570Y-89451707D01*
X130463105Y-89714690D01*
X130334702Y-89962497D01*
X130173752Y-90190512D01*
X129983253Y-90394486D01*
X129766754Y-90570622D01*
X129528287Y-90715636D01*
X129272295Y-90826829D01*
X129003547Y-90902129D01*
X128727049Y-90940133D01*
X128447951Y-90940133D01*
X128171453Y-90902129D01*
X127902705Y-90826829D01*
X127646713Y-90715636D01*
X127408246Y-90570622D01*
X127191747Y-90394486D01*
X127001248Y-90190512D01*
X126840298Y-89962497D01*
X126711895Y-89714690D01*
X126618430Y-89451707D01*
X126561646Y-89178447D01*
X126542600Y-88900000D01*
X126561646Y-88621553D01*
X126618430Y-88348293D01*
X126711895Y-88085310D01*
X126840298Y-87837503D01*
X127001248Y-87609488D01*
X127191747Y-87405514D01*
X127408246Y-87229378D01*
X127646713Y-87084364D01*
X127902705Y-86973171D01*
X128171453Y-86897871D01*
X128447951Y-86859867D01*
X128727049Y-86859867D01*
X129003547Y-86897871D01*
G37*
G36*
X148053547Y-86897871D02*
G01*
X148322295Y-86973171D01*
X148578287Y-87084364D01*
X148816754Y-87229378D01*
X149033253Y-87405514D01*
X149223752Y-87609488D01*
X149384702Y-87837503D01*
X149513105Y-88085310D01*
X149606570Y-88348293D01*
X149663354Y-88621553D01*
X149682400Y-88900000D01*
X149663354Y-89178447D01*
X149606570Y-89451707D01*
X149513105Y-89714690D01*
X149384702Y-89962497D01*
X149223752Y-90190512D01*
X149033253Y-90394486D01*
X148816754Y-90570622D01*
X148578287Y-90715636D01*
X148322295Y-90826829D01*
X148053547Y-90902129D01*
X147777049Y-90940133D01*
X147497951Y-90940133D01*
X147221453Y-90902129D01*
X146952705Y-90826829D01*
X146696713Y-90715636D01*
X146458246Y-90570622D01*
X146241747Y-90394486D01*
X146051248Y-90190512D01*
X145890298Y-89962497D01*
X145761895Y-89714690D01*
X145668430Y-89451707D01*
X145611646Y-89178447D01*
X145592600Y-88900000D01*
X145611646Y-88621553D01*
X145668430Y-88348293D01*
X145761895Y-88085310D01*
X145890298Y-87837503D01*
X146051248Y-87609488D01*
X146241747Y-87405514D01*
X146458246Y-87229378D01*
X146696713Y-87084364D01*
X146952705Y-86973171D01*
X147221453Y-86897871D01*
X147497951Y-86859867D01*
X147777049Y-86859867D01*
X148053547Y-86897871D01*
G37*
G36*
X167103547Y-86897871D02*
G01*
X167372295Y-86973171D01*
X167628287Y-87084364D01*
X167866754Y-87229378D01*
X168083253Y-87405514D01*
X168273752Y-87609488D01*
X168434702Y-87837503D01*
X168563105Y-88085310D01*
X168656570Y-88348293D01*
X168713354Y-88621553D01*
X168732400Y-88900000D01*
X168713354Y-89178447D01*
X168656570Y-89451707D01*
X168563105Y-89714690D01*
X168434702Y-89962497D01*
X168273752Y-90190512D01*
X168083253Y-90394486D01*
X167866754Y-90570622D01*
X167628287Y-90715636D01*
X167372295Y-90826829D01*
X167103547Y-90902129D01*
X166827049Y-90940133D01*
X166547951Y-90940133D01*
X166271453Y-90902129D01*
X166002705Y-90826829D01*
X165746713Y-90715636D01*
X165508246Y-90570622D01*
X165291747Y-90394486D01*
X165101248Y-90190512D01*
X164940298Y-89962497D01*
X164811895Y-89714690D01*
X164718430Y-89451707D01*
X164661646Y-89178447D01*
X164642600Y-88900000D01*
X164661646Y-88621553D01*
X164718430Y-88348293D01*
X164811895Y-88085310D01*
X164940298Y-87837503D01*
X165101248Y-87609488D01*
X165291747Y-87405514D01*
X165508246Y-87229378D01*
X165746713Y-87084364D01*
X166002705Y-86973171D01*
X166271453Y-86897871D01*
X166547951Y-86859867D01*
X166827049Y-86859867D01*
X167103547Y-86897871D01*
G37*
G36*
X186153547Y-86897871D02*
G01*
X186422295Y-86973171D01*
X186678287Y-87084364D01*
X186916754Y-87229378D01*
X187133253Y-87405514D01*
X187323752Y-87609488D01*
X187484702Y-87837503D01*
X187613105Y-88085310D01*
X187706570Y-88348293D01*
X187763354Y-88621553D01*
X187782400Y-88900000D01*
X187763354Y-89178447D01*
X187706570Y-89451707D01*
X187613105Y-89714690D01*
X187484702Y-89962497D01*
X187323752Y-90190512D01*
X187133253Y-90394486D01*
X186916754Y-90570622D01*
X186678287Y-90715636D01*
X186422295Y-90826829D01*
X186153547Y-90902129D01*
X185877049Y-90940133D01*
X185597951Y-90940133D01*
X185321453Y-90902129D01*
X185052705Y-90826829D01*
X184796713Y-90715636D01*
X184558246Y-90570622D01*
X184341747Y-90394486D01*
X184151248Y-90190512D01*
X183990298Y-89962497D01*
X183861895Y-89714690D01*
X183768430Y-89451707D01*
X183711646Y-89178447D01*
X183692600Y-88900000D01*
X183711646Y-88621553D01*
X183768430Y-88348293D01*
X183861895Y-88085310D01*
X183990298Y-87837503D01*
X184151248Y-87609488D01*
X184341747Y-87405514D01*
X184558246Y-87229378D01*
X184796713Y-87084364D01*
X185052705Y-86973171D01*
X185321453Y-86897871D01*
X185597951Y-86859867D01*
X185877049Y-86859867D01*
X186153547Y-86897871D01*
G37*
G36*
X123552872Y-87979073D02*
G01*
X123604293Y-87979073D01*
X123648698Y-87988511D01*
X123688033Y-87992386D01*
X123737448Y-88007375D01*
X123793650Y-88019322D01*
X123829615Y-88035334D01*
X123861636Y-88045048D01*
X123912524Y-88072247D01*
X123970500Y-88098060D01*
X123997450Y-88117641D01*
X124021621Y-88130560D01*
X124070929Y-88171026D01*
X124127115Y-88211848D01*
X124145357Y-88232108D01*
X124161853Y-88245646D01*
X124206181Y-88299659D01*
X124256650Y-88355711D01*
X124267252Y-88374074D01*
X124276939Y-88385878D01*
X124312766Y-88452908D01*
X124353443Y-88523362D01*
X124358123Y-88537766D01*
X124362451Y-88545863D01*
X124386310Y-88624517D01*
X124413265Y-88707474D01*
X124414213Y-88716501D01*
X124415113Y-88719466D01*
X124423874Y-88808416D01*
X124433500Y-88900000D01*
X124423873Y-88991590D01*
X124415113Y-89080533D01*
X124414214Y-89083496D01*
X124413265Y-89092526D01*
X124386306Y-89175496D01*
X124362451Y-89254136D01*
X124358124Y-89262231D01*
X124353443Y-89276638D01*
X124312759Y-89347103D01*
X124276939Y-89414121D01*
X124267254Y-89425921D01*
X124256650Y-89444289D01*
X124206171Y-89500350D01*
X124161853Y-89554353D01*
X124145361Y-89567887D01*
X124127115Y-89588152D01*
X124070918Y-89628980D01*
X124021621Y-89669439D01*
X123997456Y-89682355D01*
X123970500Y-89701940D01*
X123912512Y-89727757D01*
X123861636Y-89754951D01*
X123829622Y-89764662D01*
X123793650Y-89780678D01*
X123737437Y-89792626D01*
X123688033Y-89807613D01*
X123648707Y-89811486D01*
X123604293Y-89820927D01*
X123552862Y-89820927D01*
X123507500Y-89825395D01*
X123462138Y-89820927D01*
X123410707Y-89820927D01*
X123366293Y-89811486D01*
X123326966Y-89807613D01*
X123277559Y-89792625D01*
X123221350Y-89780678D01*
X123185380Y-89764663D01*
X123153363Y-89754951D01*
X123102481Y-89727754D01*
X123044500Y-89701940D01*
X123017546Y-89682357D01*
X122993378Y-89669439D01*
X122944072Y-89628974D01*
X122887885Y-89588152D01*
X122869641Y-89567890D01*
X122853146Y-89554353D01*
X122808816Y-89500338D01*
X122758350Y-89444289D01*
X122747748Y-89425925D01*
X122738060Y-89414121D01*
X122702226Y-89347080D01*
X122661557Y-89276638D01*
X122656877Y-89262236D01*
X122652548Y-89254136D01*
X122628678Y-89175450D01*
X122601735Y-89092526D01*
X122600786Y-89083501D01*
X122599886Y-89080533D01*
X122591110Y-88991439D01*
X122581500Y-88900000D01*
X122591109Y-88808568D01*
X122599886Y-88719466D01*
X122600786Y-88716496D01*
X122601735Y-88707474D01*
X122628674Y-88624564D01*
X122652548Y-88545863D01*
X122656878Y-88537761D01*
X122661557Y-88523362D01*
X122702219Y-88452932D01*
X122738060Y-88385878D01*
X122747750Y-88374070D01*
X122758350Y-88355711D01*
X122808807Y-88299672D01*
X122853146Y-88245646D01*
X122869644Y-88232105D01*
X122887885Y-88211848D01*
X122944061Y-88171033D01*
X122993378Y-88130560D01*
X123017551Y-88117639D01*
X123044500Y-88098060D01*
X123102469Y-88072250D01*
X123153363Y-88045048D01*
X123185387Y-88035333D01*
X123221350Y-88019322D01*
X123277548Y-88007376D01*
X123326966Y-87992386D01*
X123366302Y-87988511D01*
X123410707Y-87979073D01*
X123462128Y-87979073D01*
X123507500Y-87974604D01*
X123552872Y-87979073D01*
G37*
G36*
X133712872Y-87979073D02*
G01*
X133764293Y-87979073D01*
X133808698Y-87988511D01*
X133848033Y-87992386D01*
X133897448Y-88007375D01*
X133953650Y-88019322D01*
X133989615Y-88035334D01*
X134021636Y-88045048D01*
X134072524Y-88072247D01*
X134130500Y-88098060D01*
X134157450Y-88117641D01*
X134181621Y-88130560D01*
X134230929Y-88171026D01*
X134287115Y-88211848D01*
X134305357Y-88232108D01*
X134321853Y-88245646D01*
X134366181Y-88299659D01*
X134416650Y-88355711D01*
X134427252Y-88374074D01*
X134436939Y-88385878D01*
X134472766Y-88452908D01*
X134513443Y-88523362D01*
X134518123Y-88537766D01*
X134522451Y-88545863D01*
X134546310Y-88624517D01*
X134573265Y-88707474D01*
X134574213Y-88716501D01*
X134575113Y-88719466D01*
X134583874Y-88808416D01*
X134593500Y-88900000D01*
X134583873Y-88991590D01*
X134575113Y-89080533D01*
X134574214Y-89083496D01*
X134573265Y-89092526D01*
X134546306Y-89175496D01*
X134522451Y-89254136D01*
X134518124Y-89262231D01*
X134513443Y-89276638D01*
X134472759Y-89347103D01*
X134436939Y-89414121D01*
X134427254Y-89425921D01*
X134416650Y-89444289D01*
X134366171Y-89500350D01*
X134321853Y-89554353D01*
X134305361Y-89567887D01*
X134287115Y-89588152D01*
X134230918Y-89628980D01*
X134181621Y-89669439D01*
X134157456Y-89682355D01*
X134130500Y-89701940D01*
X134072512Y-89727757D01*
X134021636Y-89754951D01*
X133989622Y-89764662D01*
X133953650Y-89780678D01*
X133897437Y-89792626D01*
X133848033Y-89807613D01*
X133808707Y-89811486D01*
X133764293Y-89820927D01*
X133712862Y-89820927D01*
X133667500Y-89825395D01*
X133622138Y-89820927D01*
X133570707Y-89820927D01*
X133526293Y-89811486D01*
X133486966Y-89807613D01*
X133437559Y-89792625D01*
X133381350Y-89780678D01*
X133345380Y-89764663D01*
X133313363Y-89754951D01*
X133262481Y-89727754D01*
X133204500Y-89701940D01*
X133177546Y-89682357D01*
X133153378Y-89669439D01*
X133104072Y-89628974D01*
X133047885Y-89588152D01*
X133029641Y-89567890D01*
X133013146Y-89554353D01*
X132968816Y-89500338D01*
X132918350Y-89444289D01*
X132907748Y-89425925D01*
X132898060Y-89414121D01*
X132862226Y-89347080D01*
X132821557Y-89276638D01*
X132816877Y-89262236D01*
X132812548Y-89254136D01*
X132788678Y-89175450D01*
X132761735Y-89092526D01*
X132760786Y-89083501D01*
X132759886Y-89080533D01*
X132751110Y-88991439D01*
X132741500Y-88900000D01*
X132751109Y-88808568D01*
X132759886Y-88719466D01*
X132760786Y-88716496D01*
X132761735Y-88707474D01*
X132788674Y-88624564D01*
X132812548Y-88545863D01*
X132816878Y-88537761D01*
X132821557Y-88523362D01*
X132862219Y-88452932D01*
X132898060Y-88385878D01*
X132907750Y-88374070D01*
X132918350Y-88355711D01*
X132968807Y-88299672D01*
X133013146Y-88245646D01*
X133029644Y-88232105D01*
X133047885Y-88211848D01*
X133104061Y-88171033D01*
X133153378Y-88130560D01*
X133177551Y-88117639D01*
X133204500Y-88098060D01*
X133262469Y-88072250D01*
X133313363Y-88045048D01*
X133345387Y-88035333D01*
X133381350Y-88019322D01*
X133437548Y-88007376D01*
X133486966Y-87992386D01*
X133526302Y-87988511D01*
X133570707Y-87979073D01*
X133622128Y-87979073D01*
X133667500Y-87974604D01*
X133712872Y-87979073D01*
G37*
G36*
X142602872Y-87979073D02*
G01*
X142654293Y-87979073D01*
X142698698Y-87988511D01*
X142738033Y-87992386D01*
X142787448Y-88007375D01*
X142843650Y-88019322D01*
X142879615Y-88035334D01*
X142911636Y-88045048D01*
X142962524Y-88072247D01*
X143020500Y-88098060D01*
X143047450Y-88117641D01*
X143071621Y-88130560D01*
X143120929Y-88171026D01*
X143177115Y-88211848D01*
X143195357Y-88232108D01*
X143211853Y-88245646D01*
X143256181Y-88299659D01*
X143306650Y-88355711D01*
X143317252Y-88374074D01*
X143326939Y-88385878D01*
X143362766Y-88452908D01*
X143403443Y-88523362D01*
X143408123Y-88537766D01*
X143412451Y-88545863D01*
X143436310Y-88624517D01*
X143463265Y-88707474D01*
X143464213Y-88716501D01*
X143465113Y-88719466D01*
X143473874Y-88808416D01*
X143483500Y-88900000D01*
X143473873Y-88991590D01*
X143465113Y-89080533D01*
X143464214Y-89083496D01*
X143463265Y-89092526D01*
X143436306Y-89175496D01*
X143412451Y-89254136D01*
X143408124Y-89262231D01*
X143403443Y-89276638D01*
X143362759Y-89347103D01*
X143326939Y-89414121D01*
X143317254Y-89425921D01*
X143306650Y-89444289D01*
X143256171Y-89500350D01*
X143211853Y-89554353D01*
X143195361Y-89567887D01*
X143177115Y-89588152D01*
X143120918Y-89628980D01*
X143071621Y-89669439D01*
X143047456Y-89682355D01*
X143020500Y-89701940D01*
X142962512Y-89727757D01*
X142911636Y-89754951D01*
X142879622Y-89764662D01*
X142843650Y-89780678D01*
X142787437Y-89792626D01*
X142738033Y-89807613D01*
X142698707Y-89811486D01*
X142654293Y-89820927D01*
X142602862Y-89820927D01*
X142557500Y-89825395D01*
X142512138Y-89820927D01*
X142460707Y-89820927D01*
X142416293Y-89811486D01*
X142376966Y-89807613D01*
X142327559Y-89792625D01*
X142271350Y-89780678D01*
X142235380Y-89764663D01*
X142203363Y-89754951D01*
X142152481Y-89727754D01*
X142094500Y-89701940D01*
X142067546Y-89682357D01*
X142043378Y-89669439D01*
X141994072Y-89628974D01*
X141937885Y-89588152D01*
X141919641Y-89567890D01*
X141903146Y-89554353D01*
X141858816Y-89500338D01*
X141808350Y-89444289D01*
X141797748Y-89425925D01*
X141788060Y-89414121D01*
X141752226Y-89347080D01*
X141711557Y-89276638D01*
X141706877Y-89262236D01*
X141702548Y-89254136D01*
X141678678Y-89175450D01*
X141651735Y-89092526D01*
X141650786Y-89083501D01*
X141649886Y-89080533D01*
X141641110Y-88991439D01*
X141631500Y-88900000D01*
X141641109Y-88808568D01*
X141649886Y-88719466D01*
X141650786Y-88716496D01*
X141651735Y-88707474D01*
X141678674Y-88624564D01*
X141702548Y-88545863D01*
X141706878Y-88537761D01*
X141711557Y-88523362D01*
X141752219Y-88452932D01*
X141788060Y-88385878D01*
X141797750Y-88374070D01*
X141808350Y-88355711D01*
X141858807Y-88299672D01*
X141903146Y-88245646D01*
X141919644Y-88232105D01*
X141937885Y-88211848D01*
X141994061Y-88171033D01*
X142043378Y-88130560D01*
X142067551Y-88117639D01*
X142094500Y-88098060D01*
X142152469Y-88072250D01*
X142203363Y-88045048D01*
X142235387Y-88035333D01*
X142271350Y-88019322D01*
X142327548Y-88007376D01*
X142376966Y-87992386D01*
X142416302Y-87988511D01*
X142460707Y-87979073D01*
X142512128Y-87979073D01*
X142557500Y-87974604D01*
X142602872Y-87979073D01*
G37*
G36*
X152762872Y-87979073D02*
G01*
X152814293Y-87979073D01*
X152858698Y-87988511D01*
X152898033Y-87992386D01*
X152947448Y-88007375D01*
X153003650Y-88019322D01*
X153039615Y-88035334D01*
X153071636Y-88045048D01*
X153122524Y-88072247D01*
X153180500Y-88098060D01*
X153207450Y-88117641D01*
X153231621Y-88130560D01*
X153280929Y-88171026D01*
X153337115Y-88211848D01*
X153355357Y-88232108D01*
X153371853Y-88245646D01*
X153416181Y-88299659D01*
X153466650Y-88355711D01*
X153477252Y-88374074D01*
X153486939Y-88385878D01*
X153522766Y-88452908D01*
X153563443Y-88523362D01*
X153568123Y-88537766D01*
X153572451Y-88545863D01*
X153596310Y-88624517D01*
X153623265Y-88707474D01*
X153624213Y-88716501D01*
X153625113Y-88719466D01*
X153633874Y-88808416D01*
X153643500Y-88900000D01*
X153633873Y-88991590D01*
X153625113Y-89080533D01*
X153624214Y-89083496D01*
X153623265Y-89092526D01*
X153596306Y-89175496D01*
X153572451Y-89254136D01*
X153568124Y-89262231D01*
X153563443Y-89276638D01*
X153522759Y-89347103D01*
X153486939Y-89414121D01*
X153477254Y-89425921D01*
X153466650Y-89444289D01*
X153416171Y-89500350D01*
X153371853Y-89554353D01*
X153355361Y-89567887D01*
X153337115Y-89588152D01*
X153280918Y-89628980D01*
X153231621Y-89669439D01*
X153207456Y-89682355D01*
X153180500Y-89701940D01*
X153122512Y-89727757D01*
X153071636Y-89754951D01*
X153039622Y-89764662D01*
X153003650Y-89780678D01*
X152947437Y-89792626D01*
X152898033Y-89807613D01*
X152858707Y-89811486D01*
X152814293Y-89820927D01*
X152762862Y-89820927D01*
X152717500Y-89825395D01*
X152672138Y-89820927D01*
X152620707Y-89820927D01*
X152576293Y-89811486D01*
X152536966Y-89807613D01*
X152487559Y-89792625D01*
X152431350Y-89780678D01*
X152395380Y-89764663D01*
X152363363Y-89754951D01*
X152312481Y-89727754D01*
X152254500Y-89701940D01*
X152227546Y-89682357D01*
X152203378Y-89669439D01*
X152154072Y-89628974D01*
X152097885Y-89588152D01*
X152079641Y-89567890D01*
X152063146Y-89554353D01*
X152018816Y-89500338D01*
X151968350Y-89444289D01*
X151957748Y-89425925D01*
X151948060Y-89414121D01*
X151912226Y-89347080D01*
X151871557Y-89276638D01*
X151866877Y-89262236D01*
X151862548Y-89254136D01*
X151838678Y-89175450D01*
X151811735Y-89092526D01*
X151810786Y-89083501D01*
X151809886Y-89080533D01*
X151801110Y-88991439D01*
X151791500Y-88900000D01*
X151801109Y-88808568D01*
X151809886Y-88719466D01*
X151810786Y-88716496D01*
X151811735Y-88707474D01*
X151838674Y-88624564D01*
X151862548Y-88545863D01*
X151866878Y-88537761D01*
X151871557Y-88523362D01*
X151912219Y-88452932D01*
X151948060Y-88385878D01*
X151957750Y-88374070D01*
X151968350Y-88355711D01*
X152018807Y-88299672D01*
X152063146Y-88245646D01*
X152079644Y-88232105D01*
X152097885Y-88211848D01*
X152154061Y-88171033D01*
X152203378Y-88130560D01*
X152227551Y-88117639D01*
X152254500Y-88098060D01*
X152312469Y-88072250D01*
X152363363Y-88045048D01*
X152395387Y-88035333D01*
X152431350Y-88019322D01*
X152487548Y-88007376D01*
X152536966Y-87992386D01*
X152576302Y-87988511D01*
X152620707Y-87979073D01*
X152672128Y-87979073D01*
X152717500Y-87974604D01*
X152762872Y-87979073D01*
G37*
G36*
X161652872Y-87979073D02*
G01*
X161704293Y-87979073D01*
X161748698Y-87988511D01*
X161788033Y-87992386D01*
X161837448Y-88007375D01*
X161893650Y-88019322D01*
X161929615Y-88035334D01*
X161961636Y-88045048D01*
X162012524Y-88072247D01*
X162070500Y-88098060D01*
X162097450Y-88117641D01*
X162121621Y-88130560D01*
X162170929Y-88171026D01*
X162227115Y-88211848D01*
X162245357Y-88232108D01*
X162261853Y-88245646D01*
X162306181Y-88299659D01*
X162356650Y-88355711D01*
X162367252Y-88374074D01*
X162376939Y-88385878D01*
X162412766Y-88452908D01*
X162453443Y-88523362D01*
X162458123Y-88537766D01*
X162462451Y-88545863D01*
X162486310Y-88624517D01*
X162513265Y-88707474D01*
X162514213Y-88716501D01*
X162515113Y-88719466D01*
X162523874Y-88808416D01*
X162533500Y-88900000D01*
X162523873Y-88991590D01*
X162515113Y-89080533D01*
X162514214Y-89083496D01*
X162513265Y-89092526D01*
X162486306Y-89175496D01*
X162462451Y-89254136D01*
X162458124Y-89262231D01*
X162453443Y-89276638D01*
X162412759Y-89347103D01*
X162376939Y-89414121D01*
X162367254Y-89425921D01*
X162356650Y-89444289D01*
X162306171Y-89500350D01*
X162261853Y-89554353D01*
X162245361Y-89567887D01*
X162227115Y-89588152D01*
X162170918Y-89628980D01*
X162121621Y-89669439D01*
X162097456Y-89682355D01*
X162070500Y-89701940D01*
X162012512Y-89727757D01*
X161961636Y-89754951D01*
X161929622Y-89764662D01*
X161893650Y-89780678D01*
X161837437Y-89792626D01*
X161788033Y-89807613D01*
X161748707Y-89811486D01*
X161704293Y-89820927D01*
X161652862Y-89820927D01*
X161607500Y-89825395D01*
X161562138Y-89820927D01*
X161510707Y-89820927D01*
X161466293Y-89811486D01*
X161426966Y-89807613D01*
X161377559Y-89792625D01*
X161321350Y-89780678D01*
X161285380Y-89764663D01*
X161253363Y-89754951D01*
X161202481Y-89727754D01*
X161144500Y-89701940D01*
X161117546Y-89682357D01*
X161093378Y-89669439D01*
X161044072Y-89628974D01*
X160987885Y-89588152D01*
X160969641Y-89567890D01*
X160953146Y-89554353D01*
X160908816Y-89500338D01*
X160858350Y-89444289D01*
X160847748Y-89425925D01*
X160838060Y-89414121D01*
X160802226Y-89347080D01*
X160761557Y-89276638D01*
X160756877Y-89262236D01*
X160752548Y-89254136D01*
X160728678Y-89175450D01*
X160701735Y-89092526D01*
X160700786Y-89083501D01*
X160699886Y-89080533D01*
X160691110Y-88991439D01*
X160681500Y-88900000D01*
X160691109Y-88808568D01*
X160699886Y-88719466D01*
X160700786Y-88716496D01*
X160701735Y-88707474D01*
X160728674Y-88624564D01*
X160752548Y-88545863D01*
X160756878Y-88537761D01*
X160761557Y-88523362D01*
X160802219Y-88452932D01*
X160838060Y-88385878D01*
X160847750Y-88374070D01*
X160858350Y-88355711D01*
X160908807Y-88299672D01*
X160953146Y-88245646D01*
X160969644Y-88232105D01*
X160987885Y-88211848D01*
X161044061Y-88171033D01*
X161093378Y-88130560D01*
X161117551Y-88117639D01*
X161144500Y-88098060D01*
X161202469Y-88072250D01*
X161253363Y-88045048D01*
X161285387Y-88035333D01*
X161321350Y-88019322D01*
X161377548Y-88007376D01*
X161426966Y-87992386D01*
X161466302Y-87988511D01*
X161510707Y-87979073D01*
X161562128Y-87979073D01*
X161607500Y-87974604D01*
X161652872Y-87979073D01*
G37*
G36*
X171812872Y-87979073D02*
G01*
X171864293Y-87979073D01*
X171908698Y-87988511D01*
X171948033Y-87992386D01*
X171997448Y-88007375D01*
X172053650Y-88019322D01*
X172089615Y-88035334D01*
X172121636Y-88045048D01*
X172172524Y-88072247D01*
X172230500Y-88098060D01*
X172257450Y-88117641D01*
X172281621Y-88130560D01*
X172330929Y-88171026D01*
X172387115Y-88211848D01*
X172405357Y-88232108D01*
X172421853Y-88245646D01*
X172466181Y-88299659D01*
X172516650Y-88355711D01*
X172527252Y-88374074D01*
X172536939Y-88385878D01*
X172572766Y-88452908D01*
X172613443Y-88523362D01*
X172618123Y-88537766D01*
X172622451Y-88545863D01*
X172646310Y-88624517D01*
X172673265Y-88707474D01*
X172674213Y-88716501D01*
X172675113Y-88719466D01*
X172683874Y-88808416D01*
X172693500Y-88900000D01*
X172683873Y-88991590D01*
X172675113Y-89080533D01*
X172674214Y-89083496D01*
X172673265Y-89092526D01*
X172646306Y-89175496D01*
X172622451Y-89254136D01*
X172618124Y-89262231D01*
X172613443Y-89276638D01*
X172572759Y-89347103D01*
X172536939Y-89414121D01*
X172527254Y-89425921D01*
X172516650Y-89444289D01*
X172466171Y-89500350D01*
X172421853Y-89554353D01*
X172405361Y-89567887D01*
X172387115Y-89588152D01*
X172330918Y-89628980D01*
X172281621Y-89669439D01*
X172257456Y-89682355D01*
X172230500Y-89701940D01*
X172172512Y-89727757D01*
X172121636Y-89754951D01*
X172089622Y-89764662D01*
X172053650Y-89780678D01*
X171997437Y-89792626D01*
X171948033Y-89807613D01*
X171908707Y-89811486D01*
X171864293Y-89820927D01*
X171812862Y-89820927D01*
X171767500Y-89825395D01*
X171722138Y-89820927D01*
X171670707Y-89820927D01*
X171626293Y-89811486D01*
X171586966Y-89807613D01*
X171537559Y-89792625D01*
X171481350Y-89780678D01*
X171445380Y-89764663D01*
X171413363Y-89754951D01*
X171362481Y-89727754D01*
X171304500Y-89701940D01*
X171277546Y-89682357D01*
X171253378Y-89669439D01*
X171204072Y-89628974D01*
X171147885Y-89588152D01*
X171129641Y-89567890D01*
X171113146Y-89554353D01*
X171068816Y-89500338D01*
X171018350Y-89444289D01*
X171007748Y-89425925D01*
X170998060Y-89414121D01*
X170962226Y-89347080D01*
X170921557Y-89276638D01*
X170916877Y-89262236D01*
X170912548Y-89254136D01*
X170888678Y-89175450D01*
X170861735Y-89092526D01*
X170860786Y-89083501D01*
X170859886Y-89080533D01*
X170851110Y-88991439D01*
X170841500Y-88900000D01*
X170851109Y-88808568D01*
X170859886Y-88719466D01*
X170860786Y-88716496D01*
X170861735Y-88707474D01*
X170888674Y-88624564D01*
X170912548Y-88545863D01*
X170916878Y-88537761D01*
X170921557Y-88523362D01*
X170962219Y-88452932D01*
X170998060Y-88385878D01*
X171007750Y-88374070D01*
X171018350Y-88355711D01*
X171068807Y-88299672D01*
X171113146Y-88245646D01*
X171129644Y-88232105D01*
X171147885Y-88211848D01*
X171204061Y-88171033D01*
X171253378Y-88130560D01*
X171277551Y-88117639D01*
X171304500Y-88098060D01*
X171362469Y-88072250D01*
X171413363Y-88045048D01*
X171445387Y-88035333D01*
X171481350Y-88019322D01*
X171537548Y-88007376D01*
X171586966Y-87992386D01*
X171626302Y-87988511D01*
X171670707Y-87979073D01*
X171722128Y-87979073D01*
X171767500Y-87974604D01*
X171812872Y-87979073D01*
G37*
G36*
X180702872Y-87979073D02*
G01*
X180754293Y-87979073D01*
X180798698Y-87988511D01*
X180838033Y-87992386D01*
X180887448Y-88007375D01*
X180943650Y-88019322D01*
X180979615Y-88035334D01*
X181011636Y-88045048D01*
X181062524Y-88072247D01*
X181120500Y-88098060D01*
X181147450Y-88117641D01*
X181171621Y-88130560D01*
X181220929Y-88171026D01*
X181277115Y-88211848D01*
X181295357Y-88232108D01*
X181311853Y-88245646D01*
X181356181Y-88299659D01*
X181406650Y-88355711D01*
X181417252Y-88374074D01*
X181426939Y-88385878D01*
X181462766Y-88452908D01*
X181503443Y-88523362D01*
X181508123Y-88537766D01*
X181512451Y-88545863D01*
X181536310Y-88624517D01*
X181563265Y-88707474D01*
X181564213Y-88716501D01*
X181565113Y-88719466D01*
X181573874Y-88808416D01*
X181583500Y-88900000D01*
X181573873Y-88991590D01*
X181565113Y-89080533D01*
X181564214Y-89083496D01*
X181563265Y-89092526D01*
X181536306Y-89175496D01*
X181512451Y-89254136D01*
X181508124Y-89262231D01*
X181503443Y-89276638D01*
X181462759Y-89347103D01*
X181426939Y-89414121D01*
X181417254Y-89425921D01*
X181406650Y-89444289D01*
X181356171Y-89500350D01*
X181311853Y-89554353D01*
X181295361Y-89567887D01*
X181277115Y-89588152D01*
X181220918Y-89628980D01*
X181171621Y-89669439D01*
X181147456Y-89682355D01*
X181120500Y-89701940D01*
X181062512Y-89727757D01*
X181011636Y-89754951D01*
X180979622Y-89764662D01*
X180943650Y-89780678D01*
X180887437Y-89792626D01*
X180838033Y-89807613D01*
X180798707Y-89811486D01*
X180754293Y-89820927D01*
X180702862Y-89820927D01*
X180657500Y-89825395D01*
X180612138Y-89820927D01*
X180560707Y-89820927D01*
X180516293Y-89811486D01*
X180476966Y-89807613D01*
X180427559Y-89792625D01*
X180371350Y-89780678D01*
X180335380Y-89764663D01*
X180303363Y-89754951D01*
X180252481Y-89727754D01*
X180194500Y-89701940D01*
X180167546Y-89682357D01*
X180143378Y-89669439D01*
X180094072Y-89628974D01*
X180037885Y-89588152D01*
X180019641Y-89567890D01*
X180003146Y-89554353D01*
X179958816Y-89500338D01*
X179908350Y-89444289D01*
X179897748Y-89425925D01*
X179888060Y-89414121D01*
X179852226Y-89347080D01*
X179811557Y-89276638D01*
X179806877Y-89262236D01*
X179802548Y-89254136D01*
X179778678Y-89175450D01*
X179751735Y-89092526D01*
X179750786Y-89083501D01*
X179749886Y-89080533D01*
X179741110Y-88991439D01*
X179731500Y-88900000D01*
X179741109Y-88808568D01*
X179749886Y-88719466D01*
X179750786Y-88716496D01*
X179751735Y-88707474D01*
X179778674Y-88624564D01*
X179802548Y-88545863D01*
X179806878Y-88537761D01*
X179811557Y-88523362D01*
X179852219Y-88452932D01*
X179888060Y-88385878D01*
X179897750Y-88374070D01*
X179908350Y-88355711D01*
X179958807Y-88299672D01*
X180003146Y-88245646D01*
X180019644Y-88232105D01*
X180037885Y-88211848D01*
X180094061Y-88171033D01*
X180143378Y-88130560D01*
X180167551Y-88117639D01*
X180194500Y-88098060D01*
X180252469Y-88072250D01*
X180303363Y-88045048D01*
X180335387Y-88035333D01*
X180371350Y-88019322D01*
X180427548Y-88007376D01*
X180476966Y-87992386D01*
X180516302Y-87988511D01*
X180560707Y-87979073D01*
X180612128Y-87979073D01*
X180657500Y-87974604D01*
X180702872Y-87979073D01*
G37*
G36*
X190862872Y-87979073D02*
G01*
X190914293Y-87979073D01*
X190958698Y-87988511D01*
X190998033Y-87992386D01*
X191047448Y-88007375D01*
X191103650Y-88019322D01*
X191139615Y-88035334D01*
X191171636Y-88045048D01*
X191222524Y-88072247D01*
X191280500Y-88098060D01*
X191307450Y-88117641D01*
X191331621Y-88130560D01*
X191380929Y-88171026D01*
X191437115Y-88211848D01*
X191455357Y-88232108D01*
X191471853Y-88245646D01*
X191516181Y-88299659D01*
X191566650Y-88355711D01*
X191577252Y-88374074D01*
X191586939Y-88385878D01*
X191622766Y-88452908D01*
X191663443Y-88523362D01*
X191668123Y-88537766D01*
X191672451Y-88545863D01*
X191696310Y-88624517D01*
X191723265Y-88707474D01*
X191724213Y-88716501D01*
X191725113Y-88719466D01*
X191733874Y-88808416D01*
X191743500Y-88900000D01*
X191733873Y-88991590D01*
X191725113Y-89080533D01*
X191724214Y-89083496D01*
X191723265Y-89092526D01*
X191696306Y-89175496D01*
X191672451Y-89254136D01*
X191668124Y-89262231D01*
X191663443Y-89276638D01*
X191622759Y-89347103D01*
X191586939Y-89414121D01*
X191577254Y-89425921D01*
X191566650Y-89444289D01*
X191516171Y-89500350D01*
X191471853Y-89554353D01*
X191455361Y-89567887D01*
X191437115Y-89588152D01*
X191380918Y-89628980D01*
X191331621Y-89669439D01*
X191307456Y-89682355D01*
X191280500Y-89701940D01*
X191222512Y-89727757D01*
X191171636Y-89754951D01*
X191139622Y-89764662D01*
X191103650Y-89780678D01*
X191047437Y-89792626D01*
X190998033Y-89807613D01*
X190958707Y-89811486D01*
X190914293Y-89820927D01*
X190862862Y-89820927D01*
X190817500Y-89825395D01*
X190772138Y-89820927D01*
X190720707Y-89820927D01*
X190676293Y-89811486D01*
X190636966Y-89807613D01*
X190587559Y-89792625D01*
X190531350Y-89780678D01*
X190495380Y-89764663D01*
X190463363Y-89754951D01*
X190412481Y-89727754D01*
X190354500Y-89701940D01*
X190327546Y-89682357D01*
X190303378Y-89669439D01*
X190254072Y-89628974D01*
X190197885Y-89588152D01*
X190179641Y-89567890D01*
X190163146Y-89554353D01*
X190118816Y-89500338D01*
X190068350Y-89444289D01*
X190057748Y-89425925D01*
X190048060Y-89414121D01*
X190012226Y-89347080D01*
X189971557Y-89276638D01*
X189966877Y-89262236D01*
X189962548Y-89254136D01*
X189938678Y-89175450D01*
X189911735Y-89092526D01*
X189910786Y-89083501D01*
X189909886Y-89080533D01*
X189901110Y-88991439D01*
X189891500Y-88900000D01*
X189901109Y-88808568D01*
X189909886Y-88719466D01*
X189910786Y-88716496D01*
X189911735Y-88707474D01*
X189938674Y-88624564D01*
X189962548Y-88545863D01*
X189966878Y-88537761D01*
X189971557Y-88523362D01*
X190012219Y-88452932D01*
X190048060Y-88385878D01*
X190057750Y-88374070D01*
X190068350Y-88355711D01*
X190118807Y-88299672D01*
X190163146Y-88245646D01*
X190179644Y-88232105D01*
X190197885Y-88211848D01*
X190254061Y-88171033D01*
X190303378Y-88130560D01*
X190327551Y-88117639D01*
X190354500Y-88098060D01*
X190412469Y-88072250D01*
X190463363Y-88045048D01*
X190495387Y-88035333D01*
X190531350Y-88019322D01*
X190587548Y-88007376D01*
X190636966Y-87992386D01*
X190676302Y-87988511D01*
X190720707Y-87979073D01*
X190772128Y-87979073D01*
X190817500Y-87974604D01*
X190862872Y-87979073D01*
G37*
G36*
X136859517Y-73452882D02*
G01*
X136876062Y-73463938D01*
X136887118Y-73480483D01*
X136891000Y-73500000D01*
X136891000Y-76500000D01*
X136887118Y-76519517D01*
X136876062Y-76536062D01*
X136859517Y-76547118D01*
X136840000Y-76551000D01*
X133840000Y-76551000D01*
X133820483Y-76547118D01*
X133803938Y-76536062D01*
X133792882Y-76519517D01*
X133789000Y-76500000D01*
X133789000Y-73500000D01*
X133792882Y-73480483D01*
X133803938Y-73463938D01*
X133820483Y-73452882D01*
X133840000Y-73449000D01*
X136840000Y-73449000D01*
X136859517Y-73452882D01*
G37*
G36*
X140479543Y-73453686D02*
G01*
X140535880Y-73453686D01*
X140597437Y-73462964D01*
X140662630Y-73468095D01*
X140715181Y-73480711D01*
X140765050Y-73488228D01*
X140830215Y-73508328D01*
X140899285Y-73524911D01*
X140943943Y-73543409D01*
X140986519Y-73556542D01*
X141053365Y-73588733D01*
X141124139Y-73618049D01*
X141160466Y-73640310D01*
X141195322Y-73657096D01*
X141261620Y-73702297D01*
X141331655Y-73745215D01*
X141359700Y-73769167D01*
X141386813Y-73787653D01*
X141450119Y-73846392D01*
X141516723Y-73903277D01*
X141536946Y-73926956D01*
X141556706Y-73945290D01*
X141614478Y-74017734D01*
X141674785Y-74088345D01*
X141688048Y-74109988D01*
X141701206Y-74126488D01*
X141750834Y-74212447D01*
X141801951Y-74295861D01*
X141809458Y-74313984D01*
X141817088Y-74327200D01*
X141855994Y-74426331D01*
X141895089Y-74520715D01*
X141898322Y-74534184D01*
X141901757Y-74542935D01*
X141927473Y-74655604D01*
X141951905Y-74757370D01*
X141952538Y-74765423D01*
X141953330Y-74768890D01*
X141963656Y-74906692D01*
X141971000Y-75000000D01*
X141963656Y-75093315D01*
X141953330Y-75231109D01*
X141952538Y-75234574D01*
X141951905Y-75242630D01*
X141927468Y-75344414D01*
X141901757Y-75457064D01*
X141898323Y-75465812D01*
X141895089Y-75479285D01*
X141855986Y-75573686D01*
X141817088Y-75672799D01*
X141809459Y-75686011D01*
X141801951Y-75704139D01*
X141750824Y-75787569D01*
X141701206Y-75873511D01*
X141688050Y-75890007D01*
X141674785Y-75911655D01*
X141614466Y-75982279D01*
X141556706Y-76054709D01*
X141536951Y-76073038D01*
X141516723Y-76096723D01*
X141450105Y-76153618D01*
X141386813Y-76212346D01*
X141359706Y-76230827D01*
X141331655Y-76254785D01*
X141261606Y-76297710D01*
X141195322Y-76342903D01*
X141160474Y-76359684D01*
X141124139Y-76381951D01*
X141053350Y-76411272D01*
X140986519Y-76443457D01*
X140943952Y-76456586D01*
X140899285Y-76475089D01*
X140830200Y-76491674D01*
X140765050Y-76511771D01*
X140715189Y-76519286D01*
X140662630Y-76531905D01*
X140597433Y-76537035D01*
X140535880Y-76546314D01*
X140479543Y-76546314D01*
X140420000Y-76551000D01*
X140360457Y-76546314D01*
X140304120Y-76546314D01*
X140242565Y-76537035D01*
X140177370Y-76531905D01*
X140124811Y-76519286D01*
X140074949Y-76511771D01*
X140009796Y-76491673D01*
X139940715Y-76475089D01*
X139896047Y-76456587D01*
X139853481Y-76443457D01*
X139786646Y-76411271D01*
X139715861Y-76381951D01*
X139679528Y-76359686D01*
X139644675Y-76342902D01*
X139578377Y-76297700D01*
X139508345Y-76254785D01*
X139480301Y-76230833D01*
X139453188Y-76212348D01*
X139389880Y-76153607D01*
X139323277Y-76096723D01*
X139303052Y-76073043D01*
X139283293Y-76054709D01*
X139225518Y-75982261D01*
X139165215Y-75911655D01*
X139151952Y-75890012D01*
X139138793Y-75873511D01*
X139089157Y-75787540D01*
X139038049Y-75704139D01*
X139030542Y-75686017D01*
X139022911Y-75672799D01*
X138983994Y-75573640D01*
X138944911Y-75479285D01*
X138941678Y-75465819D01*
X138938242Y-75457064D01*
X138912511Y-75344329D01*
X138888095Y-75242630D01*
X138887461Y-75234581D01*
X138886669Y-75231109D01*
X138876323Y-75093050D01*
X138869000Y-75000000D01*
X138876322Y-74906957D01*
X138886669Y-74768890D01*
X138887461Y-74765416D01*
X138888095Y-74757370D01*
X138912506Y-74655689D01*
X138938242Y-74542935D01*
X138941678Y-74534178D01*
X138944911Y-74520715D01*
X138983986Y-74426377D01*
X139022911Y-74327200D01*
X139030544Y-74313978D01*
X139038049Y-74295861D01*
X139089147Y-74212475D01*
X139138793Y-74126488D01*
X139151955Y-74109983D01*
X139165215Y-74088345D01*
X139225506Y-74017752D01*
X139283293Y-73945290D01*
X139303056Y-73926951D01*
X139323277Y-73903277D01*
X139389866Y-73846404D01*
X139453188Y-73787651D01*
X139480307Y-73769161D01*
X139508345Y-73745215D01*
X139578362Y-73702308D01*
X139644675Y-73657097D01*
X139679536Y-73640308D01*
X139715861Y-73618049D01*
X139786632Y-73588734D01*
X139853481Y-73556542D01*
X139896057Y-73543408D01*
X139940715Y-73524911D01*
X140009781Y-73508329D01*
X140074949Y-73488228D01*
X140124820Y-73480711D01*
X140177370Y-73468095D01*
X140242561Y-73462964D01*
X140304120Y-73453686D01*
X140360457Y-73453686D01*
X140420000Y-73449000D01*
X140479543Y-73453686D01*
G37*
G36*
X145559543Y-73453686D02*
G01*
X145615880Y-73453686D01*
X145677437Y-73462964D01*
X145742630Y-73468095D01*
X145795181Y-73480711D01*
X145845050Y-73488228D01*
X145910215Y-73508328D01*
X145979285Y-73524911D01*
X146023943Y-73543409D01*
X146066519Y-73556542D01*
X146133365Y-73588733D01*
X146204139Y-73618049D01*
X146240466Y-73640310D01*
X146275322Y-73657096D01*
X146341620Y-73702297D01*
X146411655Y-73745215D01*
X146439700Y-73769167D01*
X146466813Y-73787653D01*
X146530119Y-73846392D01*
X146596723Y-73903277D01*
X146616946Y-73926956D01*
X146636706Y-73945290D01*
X146694478Y-74017734D01*
X146754785Y-74088345D01*
X146768048Y-74109988D01*
X146781206Y-74126488D01*
X146830834Y-74212447D01*
X146881951Y-74295861D01*
X146889458Y-74313984D01*
X146897088Y-74327200D01*
X146935994Y-74426331D01*
X146975089Y-74520715D01*
X146978322Y-74534184D01*
X146981757Y-74542935D01*
X147007473Y-74655604D01*
X147031905Y-74757370D01*
X147032538Y-74765423D01*
X147033330Y-74768890D01*
X147043656Y-74906692D01*
X147051000Y-75000000D01*
X147043656Y-75093315D01*
X147033330Y-75231109D01*
X147032538Y-75234574D01*
X147031905Y-75242630D01*
X147007468Y-75344414D01*
X146981757Y-75457064D01*
X146978323Y-75465812D01*
X146975089Y-75479285D01*
X146935986Y-75573686D01*
X146897088Y-75672799D01*
X146889459Y-75686011D01*
X146881951Y-75704139D01*
X146830824Y-75787569D01*
X146781206Y-75873511D01*
X146768050Y-75890007D01*
X146754785Y-75911655D01*
X146694466Y-75982279D01*
X146636706Y-76054709D01*
X146616951Y-76073038D01*
X146596723Y-76096723D01*
X146530105Y-76153618D01*
X146466813Y-76212346D01*
X146439706Y-76230827D01*
X146411655Y-76254785D01*
X146341606Y-76297710D01*
X146275322Y-76342903D01*
X146240474Y-76359684D01*
X146204139Y-76381951D01*
X146133350Y-76411272D01*
X146066519Y-76443457D01*
X146023952Y-76456586D01*
X145979285Y-76475089D01*
X145910200Y-76491674D01*
X145845050Y-76511771D01*
X145795189Y-76519286D01*
X145742630Y-76531905D01*
X145677433Y-76537035D01*
X145615880Y-76546314D01*
X145559543Y-76546314D01*
X145500000Y-76551000D01*
X145440457Y-76546314D01*
X145384120Y-76546314D01*
X145322565Y-76537035D01*
X145257370Y-76531905D01*
X145204811Y-76519286D01*
X145154949Y-76511771D01*
X145089796Y-76491673D01*
X145020715Y-76475089D01*
X144976047Y-76456587D01*
X144933481Y-76443457D01*
X144866646Y-76411271D01*
X144795861Y-76381951D01*
X144759528Y-76359686D01*
X144724675Y-76342902D01*
X144658377Y-76297700D01*
X144588345Y-76254785D01*
X144560301Y-76230833D01*
X144533188Y-76212348D01*
X144469880Y-76153607D01*
X144403277Y-76096723D01*
X144383052Y-76073043D01*
X144363293Y-76054709D01*
X144305518Y-75982261D01*
X144245215Y-75911655D01*
X144231952Y-75890012D01*
X144218793Y-75873511D01*
X144169157Y-75787540D01*
X144118049Y-75704139D01*
X144110542Y-75686017D01*
X144102911Y-75672799D01*
X144063994Y-75573640D01*
X144024911Y-75479285D01*
X144021678Y-75465819D01*
X144018242Y-75457064D01*
X143992511Y-75344329D01*
X143968095Y-75242630D01*
X143967461Y-75234581D01*
X143966669Y-75231109D01*
X143956323Y-75093050D01*
X143949000Y-75000000D01*
X143956322Y-74906957D01*
X143966669Y-74768890D01*
X143967461Y-74765416D01*
X143968095Y-74757370D01*
X143992506Y-74655689D01*
X144018242Y-74542935D01*
X144021678Y-74534178D01*
X144024911Y-74520715D01*
X144063986Y-74426377D01*
X144102911Y-74327200D01*
X144110544Y-74313978D01*
X144118049Y-74295861D01*
X144169147Y-74212475D01*
X144218793Y-74126488D01*
X144231955Y-74109983D01*
X144245215Y-74088345D01*
X144305506Y-74017752D01*
X144363293Y-73945290D01*
X144383056Y-73926951D01*
X144403277Y-73903277D01*
X144469866Y-73846404D01*
X144533188Y-73787651D01*
X144560307Y-73769161D01*
X144588345Y-73745215D01*
X144658362Y-73702308D01*
X144724675Y-73657097D01*
X144759536Y-73640308D01*
X144795861Y-73618049D01*
X144866632Y-73588734D01*
X144933481Y-73556542D01*
X144976057Y-73543408D01*
X145020715Y-73524911D01*
X145089781Y-73508329D01*
X145154949Y-73488228D01*
X145204820Y-73480711D01*
X145257370Y-73468095D01*
X145322561Y-73462964D01*
X145384120Y-73453686D01*
X145440457Y-73453686D01*
X145500000Y-73449000D01*
X145559543Y-73453686D01*
G37*
G36*
X170588267Y-73452882D02*
G01*
X170604812Y-73463938D01*
X170615868Y-73480483D01*
X170619750Y-73500000D01*
X170619750Y-76500000D01*
X170615868Y-76519517D01*
X170604812Y-76536062D01*
X170588267Y-76547118D01*
X170568750Y-76551000D01*
X167568750Y-76551000D01*
X167549233Y-76547118D01*
X167532688Y-76536062D01*
X167521632Y-76519517D01*
X167517750Y-76500000D01*
X167517750Y-73500000D01*
X167521632Y-73480483D01*
X167532688Y-73463938D01*
X167549233Y-73452882D01*
X167568750Y-73449000D01*
X170568750Y-73449000D01*
X170588267Y-73452882D01*
G37*
G36*
X174208293Y-73453686D02*
G01*
X174264630Y-73453686D01*
X174326187Y-73462964D01*
X174391380Y-73468095D01*
X174443931Y-73480711D01*
X174493800Y-73488228D01*
X174558965Y-73508328D01*
X174628035Y-73524911D01*
X174672693Y-73543409D01*
X174715269Y-73556542D01*
X174782115Y-73588733D01*
X174852889Y-73618049D01*
X174889216Y-73640310D01*
X174924072Y-73657096D01*
X174990370Y-73702297D01*
X175060405Y-73745215D01*
X175088450Y-73769167D01*
X175115563Y-73787653D01*
X175178869Y-73846392D01*
X175245473Y-73903277D01*
X175265696Y-73926956D01*
X175285456Y-73945290D01*
X175343228Y-74017734D01*
X175403535Y-74088345D01*
X175416798Y-74109988D01*
X175429956Y-74126488D01*
X175479584Y-74212447D01*
X175530701Y-74295861D01*
X175538208Y-74313984D01*
X175545838Y-74327200D01*
X175584744Y-74426331D01*
X175623839Y-74520715D01*
X175627072Y-74534184D01*
X175630507Y-74542935D01*
X175656223Y-74655604D01*
X175680655Y-74757370D01*
X175681288Y-74765423D01*
X175682080Y-74768890D01*
X175692406Y-74906692D01*
X175699750Y-75000000D01*
X175692406Y-75093315D01*
X175682080Y-75231109D01*
X175681288Y-75234574D01*
X175680655Y-75242630D01*
X175656218Y-75344414D01*
X175630507Y-75457064D01*
X175627073Y-75465812D01*
X175623839Y-75479285D01*
X175584736Y-75573686D01*
X175545838Y-75672799D01*
X175538209Y-75686011D01*
X175530701Y-75704139D01*
X175479574Y-75787569D01*
X175429956Y-75873511D01*
X175416800Y-75890007D01*
X175403535Y-75911655D01*
X175343216Y-75982279D01*
X175285456Y-76054709D01*
X175265701Y-76073038D01*
X175245473Y-76096723D01*
X175178855Y-76153618D01*
X175115563Y-76212346D01*
X175088456Y-76230827D01*
X175060405Y-76254785D01*
X174990356Y-76297710D01*
X174924072Y-76342903D01*
X174889224Y-76359684D01*
X174852889Y-76381951D01*
X174782100Y-76411272D01*
X174715269Y-76443457D01*
X174672702Y-76456586D01*
X174628035Y-76475089D01*
X174558950Y-76491674D01*
X174493800Y-76511771D01*
X174443939Y-76519286D01*
X174391380Y-76531905D01*
X174326183Y-76537035D01*
X174264630Y-76546314D01*
X174208293Y-76546314D01*
X174148750Y-76551000D01*
X174089207Y-76546314D01*
X174032870Y-76546314D01*
X173971315Y-76537035D01*
X173906120Y-76531905D01*
X173853561Y-76519286D01*
X173803699Y-76511771D01*
X173738546Y-76491673D01*
X173669465Y-76475089D01*
X173624797Y-76456587D01*
X173582231Y-76443457D01*
X173515396Y-76411271D01*
X173444611Y-76381951D01*
X173408278Y-76359686D01*
X173373425Y-76342902D01*
X173307127Y-76297700D01*
X173237095Y-76254785D01*
X173209051Y-76230833D01*
X173181938Y-76212348D01*
X173118630Y-76153607D01*
X173052027Y-76096723D01*
X173031802Y-76073043D01*
X173012043Y-76054709D01*
X172954268Y-75982261D01*
X172893965Y-75911655D01*
X172880702Y-75890012D01*
X172867543Y-75873511D01*
X172817907Y-75787540D01*
X172766799Y-75704139D01*
X172759292Y-75686017D01*
X172751661Y-75672799D01*
X172712744Y-75573640D01*
X172673661Y-75479285D01*
X172670428Y-75465819D01*
X172666992Y-75457064D01*
X172641261Y-75344329D01*
X172616845Y-75242630D01*
X172616211Y-75234581D01*
X172615419Y-75231109D01*
X172605073Y-75093050D01*
X172597750Y-75000000D01*
X172605072Y-74906957D01*
X172615419Y-74768890D01*
X172616211Y-74765416D01*
X172616845Y-74757370D01*
X172641256Y-74655689D01*
X172666992Y-74542935D01*
X172670428Y-74534178D01*
X172673661Y-74520715D01*
X172712736Y-74426377D01*
X172751661Y-74327200D01*
X172759294Y-74313978D01*
X172766799Y-74295861D01*
X172817897Y-74212475D01*
X172867543Y-74126488D01*
X172880705Y-74109983D01*
X172893965Y-74088345D01*
X172954256Y-74017752D01*
X173012043Y-73945290D01*
X173031806Y-73926951D01*
X173052027Y-73903277D01*
X173118616Y-73846404D01*
X173181938Y-73787651D01*
X173209057Y-73769161D01*
X173237095Y-73745215D01*
X173307112Y-73702308D01*
X173373425Y-73657097D01*
X173408286Y-73640308D01*
X173444611Y-73618049D01*
X173515382Y-73588734D01*
X173582231Y-73556542D01*
X173624807Y-73543408D01*
X173669465Y-73524911D01*
X173738531Y-73508329D01*
X173803699Y-73488228D01*
X173853570Y-73480711D01*
X173906120Y-73468095D01*
X173971311Y-73462964D01*
X174032870Y-73453686D01*
X174089207Y-73453686D01*
X174148750Y-73449000D01*
X174208293Y-73453686D01*
G37*
G36*
X179288293Y-73453686D02*
G01*
X179344630Y-73453686D01*
X179406187Y-73462964D01*
X179471380Y-73468095D01*
X179523931Y-73480711D01*
X179573800Y-73488228D01*
X179638965Y-73508328D01*
X179708035Y-73524911D01*
X179752693Y-73543409D01*
X179795269Y-73556542D01*
X179862115Y-73588733D01*
X179932889Y-73618049D01*
X179969216Y-73640310D01*
X180004072Y-73657096D01*
X180070370Y-73702297D01*
X180140405Y-73745215D01*
X180168450Y-73769167D01*
X180195563Y-73787653D01*
X180258869Y-73846392D01*
X180325473Y-73903277D01*
X180345696Y-73926956D01*
X180365456Y-73945290D01*
X180423228Y-74017734D01*
X180483535Y-74088345D01*
X180496798Y-74109988D01*
X180509956Y-74126488D01*
X180559584Y-74212447D01*
X180610701Y-74295861D01*
X180618208Y-74313984D01*
X180625838Y-74327200D01*
X180664744Y-74426331D01*
X180703839Y-74520715D01*
X180707072Y-74534184D01*
X180710507Y-74542935D01*
X180736223Y-74655604D01*
X180760655Y-74757370D01*
X180761288Y-74765423D01*
X180762080Y-74768890D01*
X180772406Y-74906692D01*
X180779750Y-75000000D01*
X180772406Y-75093315D01*
X180762080Y-75231109D01*
X180761288Y-75234574D01*
X180760655Y-75242630D01*
X180736218Y-75344414D01*
X180710507Y-75457064D01*
X180707073Y-75465812D01*
X180703839Y-75479285D01*
X180664736Y-75573686D01*
X180625838Y-75672799D01*
X180618209Y-75686011D01*
X180610701Y-75704139D01*
X180559574Y-75787569D01*
X180509956Y-75873511D01*
X180496800Y-75890007D01*
X180483535Y-75911655D01*
X180423216Y-75982279D01*
X180365456Y-76054709D01*
X180345701Y-76073038D01*
X180325473Y-76096723D01*
X180258855Y-76153618D01*
X180195563Y-76212346D01*
X180168456Y-76230827D01*
X180140405Y-76254785D01*
X180070356Y-76297710D01*
X180004072Y-76342903D01*
X179969224Y-76359684D01*
X179932889Y-76381951D01*
X179862100Y-76411272D01*
X179795269Y-76443457D01*
X179752702Y-76456586D01*
X179708035Y-76475089D01*
X179638950Y-76491674D01*
X179573800Y-76511771D01*
X179523939Y-76519286D01*
X179471380Y-76531905D01*
X179406183Y-76537035D01*
X179344630Y-76546314D01*
X179288293Y-76546314D01*
X179228750Y-76551000D01*
X179169207Y-76546314D01*
X179112870Y-76546314D01*
X179051315Y-76537035D01*
X178986120Y-76531905D01*
X178933561Y-76519286D01*
X178883699Y-76511771D01*
X178818546Y-76491673D01*
X178749465Y-76475089D01*
X178704797Y-76456587D01*
X178662231Y-76443457D01*
X178595396Y-76411271D01*
X178524611Y-76381951D01*
X178488278Y-76359686D01*
X178453425Y-76342902D01*
X178387127Y-76297700D01*
X178317095Y-76254785D01*
X178289051Y-76230833D01*
X178261938Y-76212348D01*
X178198630Y-76153607D01*
X178132027Y-76096723D01*
X178111802Y-76073043D01*
X178092043Y-76054709D01*
X178034268Y-75982261D01*
X177973965Y-75911655D01*
X177960702Y-75890012D01*
X177947543Y-75873511D01*
X177897907Y-75787540D01*
X177846799Y-75704139D01*
X177839292Y-75686017D01*
X177831661Y-75672799D01*
X177792744Y-75573640D01*
X177753661Y-75479285D01*
X177750428Y-75465819D01*
X177746992Y-75457064D01*
X177721261Y-75344329D01*
X177696845Y-75242630D01*
X177696211Y-75234581D01*
X177695419Y-75231109D01*
X177685073Y-75093050D01*
X177677750Y-75000000D01*
X177685072Y-74906957D01*
X177695419Y-74768890D01*
X177696211Y-74765416D01*
X177696845Y-74757370D01*
X177721256Y-74655689D01*
X177746992Y-74542935D01*
X177750428Y-74534178D01*
X177753661Y-74520715D01*
X177792736Y-74426377D01*
X177831661Y-74327200D01*
X177839294Y-74313978D01*
X177846799Y-74295861D01*
X177897897Y-74212475D01*
X177947543Y-74126488D01*
X177960705Y-74109983D01*
X177973965Y-74088345D01*
X178034256Y-74017752D01*
X178092043Y-73945290D01*
X178111806Y-73926951D01*
X178132027Y-73903277D01*
X178198616Y-73846404D01*
X178261938Y-73787651D01*
X178289057Y-73769161D01*
X178317095Y-73745215D01*
X178387112Y-73702308D01*
X178453425Y-73657097D01*
X178488286Y-73640308D01*
X178524611Y-73618049D01*
X178595382Y-73588734D01*
X178662231Y-73556542D01*
X178704807Y-73543408D01*
X178749465Y-73524911D01*
X178818531Y-73508329D01*
X178883699Y-73488228D01*
X178933570Y-73480711D01*
X178986120Y-73468095D01*
X179051311Y-73462964D01*
X179112870Y-73453686D01*
X179169207Y-73453686D01*
X179228750Y-73449000D01*
X179288293Y-73453686D01*
G37*
G36*
X184368293Y-73453686D02*
G01*
X184424630Y-73453686D01*
X184486187Y-73462964D01*
X184551380Y-73468095D01*
X184603931Y-73480711D01*
X184653800Y-73488228D01*
X184718965Y-73508328D01*
X184788035Y-73524911D01*
X184832693Y-73543409D01*
X184875269Y-73556542D01*
X184942115Y-73588733D01*
X185012889Y-73618049D01*
X185049216Y-73640310D01*
X185084072Y-73657096D01*
X185150370Y-73702297D01*
X185220405Y-73745215D01*
X185248450Y-73769167D01*
X185275563Y-73787653D01*
X185338869Y-73846392D01*
X185405473Y-73903277D01*
X185425696Y-73926956D01*
X185445456Y-73945290D01*
X185503228Y-74017734D01*
X185563535Y-74088345D01*
X185576798Y-74109988D01*
X185589956Y-74126488D01*
X185639584Y-74212447D01*
X185690701Y-74295861D01*
X185698208Y-74313984D01*
X185705838Y-74327200D01*
X185744744Y-74426331D01*
X185783839Y-74520715D01*
X185787072Y-74534184D01*
X185790507Y-74542935D01*
X185816223Y-74655604D01*
X185840655Y-74757370D01*
X185841288Y-74765423D01*
X185842080Y-74768890D01*
X185852406Y-74906692D01*
X185859750Y-75000000D01*
X185852406Y-75093315D01*
X185842080Y-75231109D01*
X185841288Y-75234574D01*
X185840655Y-75242630D01*
X185816218Y-75344414D01*
X185790507Y-75457064D01*
X185787073Y-75465812D01*
X185783839Y-75479285D01*
X185744736Y-75573686D01*
X185705838Y-75672799D01*
X185698209Y-75686011D01*
X185690701Y-75704139D01*
X185639574Y-75787569D01*
X185589956Y-75873511D01*
X185576800Y-75890007D01*
X185563535Y-75911655D01*
X185503216Y-75982279D01*
X185445456Y-76054709D01*
X185425701Y-76073038D01*
X185405473Y-76096723D01*
X185338855Y-76153618D01*
X185275563Y-76212346D01*
X185248456Y-76230827D01*
X185220405Y-76254785D01*
X185150356Y-76297710D01*
X185084072Y-76342903D01*
X185049224Y-76359684D01*
X185012889Y-76381951D01*
X184942100Y-76411272D01*
X184875269Y-76443457D01*
X184832702Y-76456586D01*
X184788035Y-76475089D01*
X184718950Y-76491674D01*
X184653800Y-76511771D01*
X184603939Y-76519286D01*
X184551380Y-76531905D01*
X184486183Y-76537035D01*
X184424630Y-76546314D01*
X184368293Y-76546314D01*
X184308750Y-76551000D01*
X184249207Y-76546314D01*
X184192870Y-76546314D01*
X184131315Y-76537035D01*
X184066120Y-76531905D01*
X184013561Y-76519286D01*
X183963699Y-76511771D01*
X183898546Y-76491673D01*
X183829465Y-76475089D01*
X183784797Y-76456587D01*
X183742231Y-76443457D01*
X183675396Y-76411271D01*
X183604611Y-76381951D01*
X183568278Y-76359686D01*
X183533425Y-76342902D01*
X183467127Y-76297700D01*
X183397095Y-76254785D01*
X183369051Y-76230833D01*
X183341938Y-76212348D01*
X183278630Y-76153607D01*
X183212027Y-76096723D01*
X183191802Y-76073043D01*
X183172043Y-76054709D01*
X183114268Y-75982261D01*
X183053965Y-75911655D01*
X183040702Y-75890012D01*
X183027543Y-75873511D01*
X182977907Y-75787540D01*
X182926799Y-75704139D01*
X182919292Y-75686017D01*
X182911661Y-75672799D01*
X182872744Y-75573640D01*
X182833661Y-75479285D01*
X182830428Y-75465819D01*
X182826992Y-75457064D01*
X182801261Y-75344329D01*
X182776845Y-75242630D01*
X182776211Y-75234581D01*
X182775419Y-75231109D01*
X182765073Y-75093050D01*
X182757750Y-75000000D01*
X182765072Y-74906957D01*
X182775419Y-74768890D01*
X182776211Y-74765416D01*
X182776845Y-74757370D01*
X182801256Y-74655689D01*
X182826992Y-74542935D01*
X182830428Y-74534178D01*
X182833661Y-74520715D01*
X182872736Y-74426377D01*
X182911661Y-74327200D01*
X182919294Y-74313978D01*
X182926799Y-74295861D01*
X182977897Y-74212475D01*
X183027543Y-74126488D01*
X183040705Y-74109983D01*
X183053965Y-74088345D01*
X183114256Y-74017752D01*
X183172043Y-73945290D01*
X183191806Y-73926951D01*
X183212027Y-73903277D01*
X183278616Y-73846404D01*
X183341938Y-73787651D01*
X183369057Y-73769161D01*
X183397095Y-73745215D01*
X183467112Y-73702308D01*
X183533425Y-73657097D01*
X183568286Y-73640308D01*
X183604611Y-73618049D01*
X183675382Y-73588734D01*
X183742231Y-73556542D01*
X183784807Y-73543408D01*
X183829465Y-73524911D01*
X183898531Y-73508329D01*
X183963699Y-73488228D01*
X184013570Y-73480711D01*
X184066120Y-73468095D01*
X184131311Y-73462964D01*
X184192870Y-73453686D01*
X184249207Y-73453686D01*
X184308750Y-73449000D01*
X184368293Y-73453686D01*
G37*
G36*
X119550672Y-73853910D02*
G01*
X119606201Y-73853910D01*
X119655050Y-73863041D01*
X119699783Y-73866955D01*
X119754691Y-73881667D01*
X119814986Y-73892939D01*
X119855882Y-73908782D01*
X119893500Y-73918862D01*
X119950449Y-73945417D01*
X120013045Y-73969667D01*
X120045350Y-73989669D01*
X120075263Y-74003618D01*
X120131688Y-74043127D01*
X120193632Y-74081482D01*
X120217378Y-74103130D01*
X120239539Y-74118647D01*
X120292543Y-74171651D01*
X120350599Y-74224576D01*
X120366424Y-74245532D01*
X120381352Y-74260460D01*
X120427922Y-74326969D01*
X120478600Y-74394077D01*
X120487677Y-74412307D01*
X120496381Y-74424737D01*
X120533430Y-74504191D01*
X120573276Y-74584211D01*
X120577239Y-74598139D01*
X120581137Y-74606499D01*
X120605709Y-74698204D01*
X120631402Y-74788504D01*
X120632192Y-74797039D01*
X120633044Y-74800216D01*
X120642447Y-74907707D01*
X120651000Y-75000000D01*
X120642447Y-75092299D01*
X120633044Y-75199783D01*
X120632193Y-75202958D01*
X120631402Y-75211496D01*
X120605705Y-75301811D01*
X120581137Y-75393500D01*
X120577239Y-75401857D01*
X120573276Y-75415789D01*
X120533427Y-75495815D01*
X120496381Y-75575263D01*
X120487678Y-75587691D01*
X120478600Y-75605923D01*
X120427917Y-75673037D01*
X120381352Y-75739539D01*
X120366427Y-75754463D01*
X120350599Y-75775424D01*
X120292532Y-75828358D01*
X120239539Y-75881352D01*
X120217383Y-75896865D01*
X120193632Y-75918518D01*
X120131675Y-75956879D01*
X120075263Y-75996381D01*
X120045357Y-76010325D01*
X120013045Y-76030333D01*
X119950436Y-76054587D01*
X119893500Y-76081137D01*
X119855890Y-76091214D01*
X119814986Y-76107061D01*
X119754679Y-76118334D01*
X119699783Y-76133044D01*
X119655060Y-76136956D01*
X119606201Y-76146090D01*
X119550660Y-76146090D01*
X119500000Y-76150522D01*
X119449340Y-76146090D01*
X119393799Y-76146090D01*
X119344940Y-76136956D01*
X119300216Y-76133044D01*
X119245317Y-76118333D01*
X119185014Y-76107061D01*
X119144111Y-76091215D01*
X119106499Y-76081137D01*
X119049557Y-76054585D01*
X118986955Y-76030333D01*
X118954645Y-76010327D01*
X118924736Y-75996381D01*
X118868315Y-75956874D01*
X118806368Y-75918518D01*
X118782619Y-75896868D01*
X118760460Y-75881352D01*
X118707456Y-75828348D01*
X118649401Y-75775424D01*
X118633575Y-75754467D01*
X118618647Y-75739539D01*
X118572069Y-75673019D01*
X118521400Y-75605923D01*
X118512324Y-75587696D01*
X118503618Y-75575263D01*
X118466556Y-75495783D01*
X118426724Y-75415789D01*
X118422761Y-75401863D01*
X118418862Y-75393500D01*
X118394277Y-75301751D01*
X118368598Y-75211496D01*
X118367807Y-75202964D01*
X118366955Y-75199783D01*
X118357534Y-75092106D01*
X118349000Y-75000000D01*
X118357534Y-74907900D01*
X118366955Y-74800216D01*
X118367807Y-74797034D01*
X118368598Y-74788504D01*
X118394273Y-74698264D01*
X118418862Y-74606499D01*
X118422762Y-74598134D01*
X118426724Y-74584211D01*
X118466553Y-74504222D01*
X118503618Y-74424737D01*
X118512324Y-74412302D01*
X118521400Y-74394077D01*
X118572063Y-74326987D01*
X118618647Y-74260460D01*
X118633578Y-74245528D01*
X118649401Y-74224576D01*
X118707444Y-74171662D01*
X118760460Y-74118647D01*
X118782624Y-74103127D01*
X118806368Y-74081482D01*
X118868308Y-74043129D01*
X118924737Y-74003618D01*
X118954649Y-73989669D01*
X118986955Y-73969667D01*
X119049546Y-73945419D01*
X119106499Y-73918862D01*
X119144119Y-73908781D01*
X119185014Y-73892939D01*
X119245304Y-73881668D01*
X119300216Y-73866955D01*
X119344950Y-73863041D01*
X119393799Y-73853910D01*
X119449328Y-73853910D01*
X119500000Y-73849477D01*
X119550672Y-73853910D01*
G37*
G36*
X195050672Y-73853910D02*
G01*
X195106201Y-73853910D01*
X195155050Y-73863041D01*
X195199783Y-73866955D01*
X195254691Y-73881667D01*
X195314986Y-73892939D01*
X195355882Y-73908782D01*
X195393500Y-73918862D01*
X195450449Y-73945417D01*
X195513045Y-73969667D01*
X195545350Y-73989669D01*
X195575263Y-74003618D01*
X195631688Y-74043127D01*
X195693632Y-74081482D01*
X195717378Y-74103130D01*
X195739539Y-74118647D01*
X195792543Y-74171651D01*
X195850599Y-74224576D01*
X195866424Y-74245532D01*
X195881352Y-74260460D01*
X195927922Y-74326969D01*
X195978600Y-74394077D01*
X195987677Y-74412307D01*
X195996381Y-74424737D01*
X196033430Y-74504191D01*
X196073276Y-74584211D01*
X196077239Y-74598139D01*
X196081137Y-74606499D01*
X196105709Y-74698204D01*
X196131402Y-74788504D01*
X196132192Y-74797039D01*
X196133044Y-74800216D01*
X196142447Y-74907707D01*
X196151000Y-75000000D01*
X196142447Y-75092299D01*
X196133044Y-75199783D01*
X196132193Y-75202958D01*
X196131402Y-75211496D01*
X196105705Y-75301811D01*
X196081137Y-75393500D01*
X196077239Y-75401857D01*
X196073276Y-75415789D01*
X196033427Y-75495815D01*
X195996381Y-75575263D01*
X195987678Y-75587691D01*
X195978600Y-75605923D01*
X195927917Y-75673037D01*
X195881352Y-75739539D01*
X195866427Y-75754463D01*
X195850599Y-75775424D01*
X195792532Y-75828358D01*
X195739539Y-75881352D01*
X195717383Y-75896865D01*
X195693632Y-75918518D01*
X195631675Y-75956879D01*
X195575263Y-75996381D01*
X195545357Y-76010325D01*
X195513045Y-76030333D01*
X195450436Y-76054587D01*
X195393500Y-76081137D01*
X195355890Y-76091214D01*
X195314986Y-76107061D01*
X195254679Y-76118334D01*
X195199783Y-76133044D01*
X195155060Y-76136956D01*
X195106201Y-76146090D01*
X195050660Y-76146090D01*
X195000000Y-76150522D01*
X194949340Y-76146090D01*
X194893799Y-76146090D01*
X194844940Y-76136956D01*
X194800216Y-76133044D01*
X194745317Y-76118333D01*
X194685014Y-76107061D01*
X194644111Y-76091215D01*
X194606499Y-76081137D01*
X194549557Y-76054585D01*
X194486955Y-76030333D01*
X194454645Y-76010327D01*
X194424736Y-75996381D01*
X194368315Y-75956874D01*
X194306368Y-75918518D01*
X194282619Y-75896868D01*
X194260460Y-75881352D01*
X194207456Y-75828348D01*
X194149401Y-75775424D01*
X194133575Y-75754467D01*
X194118647Y-75739539D01*
X194072069Y-75673019D01*
X194021400Y-75605923D01*
X194012324Y-75587696D01*
X194003618Y-75575263D01*
X193966556Y-75495783D01*
X193926724Y-75415789D01*
X193922761Y-75401863D01*
X193918862Y-75393500D01*
X193894277Y-75301751D01*
X193868598Y-75211496D01*
X193867807Y-75202964D01*
X193866955Y-75199783D01*
X193857534Y-75092106D01*
X193849000Y-75000000D01*
X193857534Y-74907900D01*
X193866955Y-74800216D01*
X193867807Y-74797034D01*
X193868598Y-74788504D01*
X193894273Y-74698264D01*
X193918862Y-74606499D01*
X193922762Y-74598134D01*
X193926724Y-74584211D01*
X193966553Y-74504222D01*
X194003618Y-74424737D01*
X194012324Y-74412302D01*
X194021400Y-74394077D01*
X194072063Y-74326987D01*
X194118647Y-74260460D01*
X194133578Y-74245528D01*
X194149401Y-74224576D01*
X194207444Y-74171662D01*
X194260460Y-74118647D01*
X194282624Y-74103127D01*
X194306368Y-74081482D01*
X194368308Y-74043129D01*
X194424737Y-74003618D01*
X194454649Y-73989669D01*
X194486955Y-73969667D01*
X194549546Y-73945419D01*
X194606499Y-73918862D01*
X194644119Y-73908781D01*
X194685014Y-73892939D01*
X194745304Y-73881668D01*
X194800216Y-73866955D01*
X194844950Y-73863041D01*
X194893799Y-73853910D01*
X194949328Y-73853910D01*
X195000000Y-73849477D01*
X195050672Y-73853910D01*
G37*
M02*
