M48
; DRILL file {KiCad 8.0.7} date 2024-12-19T23:48:03-0800
; FORMAT={-:-/ absolute / inch / decimal}
; #@! TF.CreationDate,2024-12-19T23:48:03-08:00
; #@! TF.GenerationSoftware,Kicad,Pcbnew,8.0.7
; #@! TF.FileFunction,Plated,1,2,PTH
FMAT,2
INCH
; #@! TA.AperFunction,Plated,PTH,ViaDrill
T1C0.0157
; #@! TA.AperFunction,Plated,PTH,ComponentDrill
T2C0.0579
; #@! TA.AperFunction,Plated,PTH,ComponentDrill
T3C0.0598
%
G90
G05
T1
X5.375Y-3.5625
X5.375Y-3.5625
X5.375Y-3.5625
X5.375Y-4.3125
X5.375Y-5.0312
X6.125Y-3.5625
X6.125Y-4.3125
X6.125Y-5.0625
X6.875Y-3.5625
X6.875Y-4.3125
X6.875Y-5.0625
X7.4803Y-4.6654
X7.625Y-3.5625
X7.625Y-4.3125
T2
X4.9125Y-3.4
X4.9125Y-4.15
X4.9125Y-4.9
X4.9641Y-3.3425
X4.9641Y-4.0925
X4.9641Y-4.8425
X5.1609Y-3.3228
X5.1609Y-4.0728
X5.1609Y-4.8228
X5.1625Y-3.3
X5.1625Y-4.05
X5.1625Y-4.8
X5.6625Y-3.4
X5.6625Y-4.15
X5.6625Y-4.9
X5.7141Y-3.3425
X5.7141Y-4.0925
X5.7141Y-4.8425
X5.9109Y-3.3228
X5.9109Y-4.0728
X5.9109Y-4.8228
X5.9125Y-3.3
X5.9125Y-4.05
X5.9125Y-4.8
X6.4125Y-3.4
X6.4125Y-4.15
X6.4125Y-4.9
X6.4641Y-3.3425
X6.4641Y-4.0925
X6.4641Y-4.8425
X6.6609Y-3.3228
X6.6609Y-4.0728
X6.6609Y-4.8228
X6.6625Y-3.3
X6.6625Y-4.05
X6.6625Y-4.8
X7.1625Y-3.4
X7.1625Y-4.15
X7.1625Y-4.9
X7.2141Y-3.3425
X7.2141Y-4.0925
X7.2141Y-4.8425
X7.4109Y-3.3228
X7.4109Y-4.0728
X7.4109Y-4.8228
X7.4125Y-3.3
X7.4125Y-4.05
X7.4125Y-4.8
T3
X5.3283Y-2.9528
X5.5283Y-2.9528
X5.7283Y-2.9528
X6.6562Y-2.9528
X6.8563Y-2.9528
X7.0562Y-2.9528
X7.2562Y-2.9528
M30
