G04 #@! TF.GenerationSoftware,KiCad,Pcbnew,8.0.7*
G04 #@! TF.CreationDate,2024-12-19T23:47:55-08:00*
G04 #@! TF.ProjectId,Deej keypad,4465656a-206b-4657-9970-61642e6b6963,rev?*
G04 #@! TF.SameCoordinates,Original*
G04 #@! TF.FileFunction,Legend,Bot*
G04 #@! TF.FilePolarity,Positive*
%FSLAX46Y46*%
G04 Gerber Fmt 4.6, Leading zero omitted, Abs format (unit mm)*
G04 Created by KiCad (PCBNEW 8.0.7) date 2024-12-19 23:47:55*
%MOMM*%
%LPD*%
G01*
G04 APERTURE LIST*
G04 Aperture macros list*
%AMRoundRect*
0 Rectangle with rounded corners*
0 $1 Rounding radius*
0 $2 $3 $4 $5 $6 $7 $8 $9 X,Y pos of 4 corners*
0 Add a 4 corners polygon primitive as box body*
4,1,4,$2,$3,$4,$5,$6,$7,$8,$9,$2,$3,0*
0 Add four circle primitives for the rounded corners*
1,1,$1+$1,$2,$3*
1,1,$1+$1,$4,$5*
1,1,$1+$1,$6,$7*
1,1,$1+$1,$8,$9*
0 Add four rect primitives between the rounded corners*
20,1,$1+$1,$2,$3,$4,$5,0*
20,1,$1+$1,$4,$5,$6,$7,0*
20,1,$1+$1,$6,$7,$8,$9,0*
20,1,$1+$1,$8,$9,$2,$3,0*%
%AMHorizOval*
0 Thick line with rounded ends*
0 $1 width*
0 $2 $3 position (X,Y) of the first rounded end (center of the circle)*
0 $4 $5 position (X,Y) of the second rounded end (center of the circle)*
0 Add line between two ends*
20,1,$1,$2,$3,$4,$5,0*
0 Add two circle primitives to create the rounded ends*
1,1,$1,$2,$3*
1,1,$1,$4,$5*%
G04 Aperture macros list end*
%ADD10C,0.150000*%
%ADD11C,0.120000*%
%ADD12C,1.852000*%
%ADD13C,4.089800*%
%ADD14HorizOval,2.352000X0.655001X0.730000X-0.655001X-0.730000X0*%
%ADD15C,2.352000*%
%ADD16HorizOval,2.352000X0.020000X0.290000X-0.020000X-0.290000X0*%
%ADD17C,2.302000*%
%ADD18RoundRect,0.051000X0.600000X-0.450000X0.600000X0.450000X-0.600000X0.450000X-0.600000X-0.450000X0*%
%ADD19RoundRect,0.051000X-1.500000X-1.500000X1.500000X-1.500000X1.500000X1.500000X-1.500000X1.500000X0*%
%ADD20C,3.102000*%
G04 APERTURE END LIST*
D10*
X138979819Y-92924405D02*
X137979819Y-92924405D01*
X137979819Y-92924405D02*
X137979819Y-93162500D01*
X137979819Y-93162500D02*
X138027438Y-93305357D01*
X138027438Y-93305357D02*
X138122676Y-93400595D01*
X138122676Y-93400595D02*
X138217914Y-93448214D01*
X138217914Y-93448214D02*
X138408390Y-93495833D01*
X138408390Y-93495833D02*
X138551247Y-93495833D01*
X138551247Y-93495833D02*
X138741723Y-93448214D01*
X138741723Y-93448214D02*
X138836961Y-93400595D01*
X138836961Y-93400595D02*
X138932200Y-93305357D01*
X138932200Y-93305357D02*
X138979819Y-93162500D01*
X138979819Y-93162500D02*
X138979819Y-92924405D01*
X138979819Y-94448214D02*
X138979819Y-93876786D01*
X138979819Y-94162500D02*
X137979819Y-94162500D01*
X137979819Y-94162500D02*
X138122676Y-94067262D01*
X138122676Y-94067262D02*
X138217914Y-93972024D01*
X138217914Y-93972024D02*
X138265533Y-93876786D01*
X138979819Y-111974405D02*
X137979819Y-111974405D01*
X137979819Y-111974405D02*
X137979819Y-112212500D01*
X137979819Y-112212500D02*
X138027438Y-112355357D01*
X138027438Y-112355357D02*
X138122676Y-112450595D01*
X138122676Y-112450595D02*
X138217914Y-112498214D01*
X138217914Y-112498214D02*
X138408390Y-112545833D01*
X138408390Y-112545833D02*
X138551247Y-112545833D01*
X138551247Y-112545833D02*
X138741723Y-112498214D01*
X138741723Y-112498214D02*
X138836961Y-112450595D01*
X138836961Y-112450595D02*
X138932200Y-112355357D01*
X138932200Y-112355357D02*
X138979819Y-112212500D01*
X138979819Y-112212500D02*
X138979819Y-111974405D01*
X138075057Y-112926786D02*
X138027438Y-112974405D01*
X138027438Y-112974405D02*
X137979819Y-113069643D01*
X137979819Y-113069643D02*
X137979819Y-113307738D01*
X137979819Y-113307738D02*
X138027438Y-113402976D01*
X138027438Y-113402976D02*
X138075057Y-113450595D01*
X138075057Y-113450595D02*
X138170295Y-113498214D01*
X138170295Y-113498214D02*
X138265533Y-113498214D01*
X138265533Y-113498214D02*
X138408390Y-113450595D01*
X138408390Y-113450595D02*
X138979819Y-112879167D01*
X138979819Y-112879167D02*
X138979819Y-113498214D01*
X138979819Y-131024405D02*
X137979819Y-131024405D01*
X137979819Y-131024405D02*
X137979819Y-131262500D01*
X137979819Y-131262500D02*
X138027438Y-131405357D01*
X138027438Y-131405357D02*
X138122676Y-131500595D01*
X138122676Y-131500595D02*
X138217914Y-131548214D01*
X138217914Y-131548214D02*
X138408390Y-131595833D01*
X138408390Y-131595833D02*
X138551247Y-131595833D01*
X138551247Y-131595833D02*
X138741723Y-131548214D01*
X138741723Y-131548214D02*
X138836961Y-131500595D01*
X138836961Y-131500595D02*
X138932200Y-131405357D01*
X138932200Y-131405357D02*
X138979819Y-131262500D01*
X138979819Y-131262500D02*
X138979819Y-131024405D01*
X137979819Y-131929167D02*
X137979819Y-132548214D01*
X137979819Y-132548214D02*
X138360771Y-132214881D01*
X138360771Y-132214881D02*
X138360771Y-132357738D01*
X138360771Y-132357738D02*
X138408390Y-132452976D01*
X138408390Y-132452976D02*
X138456009Y-132500595D01*
X138456009Y-132500595D02*
X138551247Y-132548214D01*
X138551247Y-132548214D02*
X138789342Y-132548214D01*
X138789342Y-132548214D02*
X138884580Y-132500595D01*
X138884580Y-132500595D02*
X138932200Y-132452976D01*
X138932200Y-132452976D02*
X138979819Y-132357738D01*
X138979819Y-132357738D02*
X138979819Y-132072024D01*
X138979819Y-132072024D02*
X138932200Y-131976786D01*
X138932200Y-131976786D02*
X138884580Y-131929167D01*
X158029819Y-92924405D02*
X157029819Y-92924405D01*
X157029819Y-92924405D02*
X157029819Y-93162500D01*
X157029819Y-93162500D02*
X157077438Y-93305357D01*
X157077438Y-93305357D02*
X157172676Y-93400595D01*
X157172676Y-93400595D02*
X157267914Y-93448214D01*
X157267914Y-93448214D02*
X157458390Y-93495833D01*
X157458390Y-93495833D02*
X157601247Y-93495833D01*
X157601247Y-93495833D02*
X157791723Y-93448214D01*
X157791723Y-93448214D02*
X157886961Y-93400595D01*
X157886961Y-93400595D02*
X157982200Y-93305357D01*
X157982200Y-93305357D02*
X158029819Y-93162500D01*
X158029819Y-93162500D02*
X158029819Y-92924405D01*
X157363152Y-94352976D02*
X158029819Y-94352976D01*
X156982200Y-94114881D02*
X157696485Y-93876786D01*
X157696485Y-93876786D02*
X157696485Y-94495833D01*
X158029819Y-111974405D02*
X157029819Y-111974405D01*
X157029819Y-111974405D02*
X157029819Y-112212500D01*
X157029819Y-112212500D02*
X157077438Y-112355357D01*
X157077438Y-112355357D02*
X157172676Y-112450595D01*
X157172676Y-112450595D02*
X157267914Y-112498214D01*
X157267914Y-112498214D02*
X157458390Y-112545833D01*
X157458390Y-112545833D02*
X157601247Y-112545833D01*
X157601247Y-112545833D02*
X157791723Y-112498214D01*
X157791723Y-112498214D02*
X157886961Y-112450595D01*
X157886961Y-112450595D02*
X157982200Y-112355357D01*
X157982200Y-112355357D02*
X158029819Y-112212500D01*
X158029819Y-112212500D02*
X158029819Y-111974405D01*
X157029819Y-113450595D02*
X157029819Y-112974405D01*
X157029819Y-112974405D02*
X157506009Y-112926786D01*
X157506009Y-112926786D02*
X157458390Y-112974405D01*
X157458390Y-112974405D02*
X157410771Y-113069643D01*
X157410771Y-113069643D02*
X157410771Y-113307738D01*
X157410771Y-113307738D02*
X157458390Y-113402976D01*
X157458390Y-113402976D02*
X157506009Y-113450595D01*
X157506009Y-113450595D02*
X157601247Y-113498214D01*
X157601247Y-113498214D02*
X157839342Y-113498214D01*
X157839342Y-113498214D02*
X157934580Y-113450595D01*
X157934580Y-113450595D02*
X157982200Y-113402976D01*
X157982200Y-113402976D02*
X158029819Y-113307738D01*
X158029819Y-113307738D02*
X158029819Y-113069643D01*
X158029819Y-113069643D02*
X157982200Y-112974405D01*
X157982200Y-112974405D02*
X157934580Y-112926786D01*
X158029819Y-131024405D02*
X157029819Y-131024405D01*
X157029819Y-131024405D02*
X157029819Y-131262500D01*
X157029819Y-131262500D02*
X157077438Y-131405357D01*
X157077438Y-131405357D02*
X157172676Y-131500595D01*
X157172676Y-131500595D02*
X157267914Y-131548214D01*
X157267914Y-131548214D02*
X157458390Y-131595833D01*
X157458390Y-131595833D02*
X157601247Y-131595833D01*
X157601247Y-131595833D02*
X157791723Y-131548214D01*
X157791723Y-131548214D02*
X157886961Y-131500595D01*
X157886961Y-131500595D02*
X157982200Y-131405357D01*
X157982200Y-131405357D02*
X158029819Y-131262500D01*
X158029819Y-131262500D02*
X158029819Y-131024405D01*
X157029819Y-132452976D02*
X157029819Y-132262500D01*
X157029819Y-132262500D02*
X157077438Y-132167262D01*
X157077438Y-132167262D02*
X157125057Y-132119643D01*
X157125057Y-132119643D02*
X157267914Y-132024405D01*
X157267914Y-132024405D02*
X157458390Y-131976786D01*
X157458390Y-131976786D02*
X157839342Y-131976786D01*
X157839342Y-131976786D02*
X157934580Y-132024405D01*
X157934580Y-132024405D02*
X157982200Y-132072024D01*
X157982200Y-132072024D02*
X158029819Y-132167262D01*
X158029819Y-132167262D02*
X158029819Y-132357738D01*
X158029819Y-132357738D02*
X157982200Y-132452976D01*
X157982200Y-132452976D02*
X157934580Y-132500595D01*
X157934580Y-132500595D02*
X157839342Y-132548214D01*
X157839342Y-132548214D02*
X157601247Y-132548214D01*
X157601247Y-132548214D02*
X157506009Y-132500595D01*
X157506009Y-132500595D02*
X157458390Y-132452976D01*
X157458390Y-132452976D02*
X157410771Y-132357738D01*
X157410771Y-132357738D02*
X157410771Y-132167262D01*
X157410771Y-132167262D02*
X157458390Y-132072024D01*
X157458390Y-132072024D02*
X157506009Y-132024405D01*
X157506009Y-132024405D02*
X157601247Y-131976786D01*
X177079819Y-92924405D02*
X176079819Y-92924405D01*
X176079819Y-92924405D02*
X176079819Y-93162500D01*
X176079819Y-93162500D02*
X176127438Y-93305357D01*
X176127438Y-93305357D02*
X176222676Y-93400595D01*
X176222676Y-93400595D02*
X176317914Y-93448214D01*
X176317914Y-93448214D02*
X176508390Y-93495833D01*
X176508390Y-93495833D02*
X176651247Y-93495833D01*
X176651247Y-93495833D02*
X176841723Y-93448214D01*
X176841723Y-93448214D02*
X176936961Y-93400595D01*
X176936961Y-93400595D02*
X177032200Y-93305357D01*
X177032200Y-93305357D02*
X177079819Y-93162500D01*
X177079819Y-93162500D02*
X177079819Y-92924405D01*
X176079819Y-93829167D02*
X176079819Y-94495833D01*
X176079819Y-94495833D02*
X177079819Y-94067262D01*
X177079819Y-111974405D02*
X176079819Y-111974405D01*
X176079819Y-111974405D02*
X176079819Y-112212500D01*
X176079819Y-112212500D02*
X176127438Y-112355357D01*
X176127438Y-112355357D02*
X176222676Y-112450595D01*
X176222676Y-112450595D02*
X176317914Y-112498214D01*
X176317914Y-112498214D02*
X176508390Y-112545833D01*
X176508390Y-112545833D02*
X176651247Y-112545833D01*
X176651247Y-112545833D02*
X176841723Y-112498214D01*
X176841723Y-112498214D02*
X176936961Y-112450595D01*
X176936961Y-112450595D02*
X177032200Y-112355357D01*
X177032200Y-112355357D02*
X177079819Y-112212500D01*
X177079819Y-112212500D02*
X177079819Y-111974405D01*
X176508390Y-113117262D02*
X176460771Y-113022024D01*
X176460771Y-113022024D02*
X176413152Y-112974405D01*
X176413152Y-112974405D02*
X176317914Y-112926786D01*
X176317914Y-112926786D02*
X176270295Y-112926786D01*
X176270295Y-112926786D02*
X176175057Y-112974405D01*
X176175057Y-112974405D02*
X176127438Y-113022024D01*
X176127438Y-113022024D02*
X176079819Y-113117262D01*
X176079819Y-113117262D02*
X176079819Y-113307738D01*
X176079819Y-113307738D02*
X176127438Y-113402976D01*
X176127438Y-113402976D02*
X176175057Y-113450595D01*
X176175057Y-113450595D02*
X176270295Y-113498214D01*
X176270295Y-113498214D02*
X176317914Y-113498214D01*
X176317914Y-113498214D02*
X176413152Y-113450595D01*
X176413152Y-113450595D02*
X176460771Y-113402976D01*
X176460771Y-113402976D02*
X176508390Y-113307738D01*
X176508390Y-113307738D02*
X176508390Y-113117262D01*
X176508390Y-113117262D02*
X176556009Y-113022024D01*
X176556009Y-113022024D02*
X176603628Y-112974405D01*
X176603628Y-112974405D02*
X176698866Y-112926786D01*
X176698866Y-112926786D02*
X176889342Y-112926786D01*
X176889342Y-112926786D02*
X176984580Y-112974405D01*
X176984580Y-112974405D02*
X177032200Y-113022024D01*
X177032200Y-113022024D02*
X177079819Y-113117262D01*
X177079819Y-113117262D02*
X177079819Y-113307738D01*
X177079819Y-113307738D02*
X177032200Y-113402976D01*
X177032200Y-113402976D02*
X176984580Y-113450595D01*
X176984580Y-113450595D02*
X176889342Y-113498214D01*
X176889342Y-113498214D02*
X176698866Y-113498214D01*
X176698866Y-113498214D02*
X176603628Y-113450595D01*
X176603628Y-113450595D02*
X176556009Y-113402976D01*
X176556009Y-113402976D02*
X176508390Y-113307738D01*
X177079819Y-131086905D02*
X176079819Y-131086905D01*
X176079819Y-131086905D02*
X176079819Y-131325000D01*
X176079819Y-131325000D02*
X176127438Y-131467857D01*
X176127438Y-131467857D02*
X176222676Y-131563095D01*
X176222676Y-131563095D02*
X176317914Y-131610714D01*
X176317914Y-131610714D02*
X176508390Y-131658333D01*
X176508390Y-131658333D02*
X176651247Y-131658333D01*
X176651247Y-131658333D02*
X176841723Y-131610714D01*
X176841723Y-131610714D02*
X176936961Y-131563095D01*
X176936961Y-131563095D02*
X177032200Y-131467857D01*
X177032200Y-131467857D02*
X177079819Y-131325000D01*
X177079819Y-131325000D02*
X177079819Y-131086905D01*
X177079819Y-132134524D02*
X177079819Y-132325000D01*
X177079819Y-132325000D02*
X177032200Y-132420238D01*
X177032200Y-132420238D02*
X176984580Y-132467857D01*
X176984580Y-132467857D02*
X176841723Y-132563095D01*
X176841723Y-132563095D02*
X176651247Y-132610714D01*
X176651247Y-132610714D02*
X176270295Y-132610714D01*
X176270295Y-132610714D02*
X176175057Y-132563095D01*
X176175057Y-132563095D02*
X176127438Y-132515476D01*
X176127438Y-132515476D02*
X176079819Y-132420238D01*
X176079819Y-132420238D02*
X176079819Y-132229762D01*
X176079819Y-132229762D02*
X176127438Y-132134524D01*
X176127438Y-132134524D02*
X176175057Y-132086905D01*
X176175057Y-132086905D02*
X176270295Y-132039286D01*
X176270295Y-132039286D02*
X176508390Y-132039286D01*
X176508390Y-132039286D02*
X176603628Y-132086905D01*
X176603628Y-132086905D02*
X176651247Y-132134524D01*
X176651247Y-132134524D02*
X176698866Y-132229762D01*
X176698866Y-132229762D02*
X176698866Y-132420238D01*
X176698866Y-132420238D02*
X176651247Y-132515476D01*
X176651247Y-132515476D02*
X176603628Y-132563095D01*
X176603628Y-132563095D02*
X176508390Y-132610714D01*
X196129819Y-92448214D02*
X195129819Y-92448214D01*
X195129819Y-92448214D02*
X195129819Y-92686309D01*
X195129819Y-92686309D02*
X195177438Y-92829166D01*
X195177438Y-92829166D02*
X195272676Y-92924404D01*
X195272676Y-92924404D02*
X195367914Y-92972023D01*
X195367914Y-92972023D02*
X195558390Y-93019642D01*
X195558390Y-93019642D02*
X195701247Y-93019642D01*
X195701247Y-93019642D02*
X195891723Y-92972023D01*
X195891723Y-92972023D02*
X195986961Y-92924404D01*
X195986961Y-92924404D02*
X196082200Y-92829166D01*
X196082200Y-92829166D02*
X196129819Y-92686309D01*
X196129819Y-92686309D02*
X196129819Y-92448214D01*
X196129819Y-93972023D02*
X196129819Y-93400595D01*
X196129819Y-93686309D02*
X195129819Y-93686309D01*
X195129819Y-93686309D02*
X195272676Y-93591071D01*
X195272676Y-93591071D02*
X195367914Y-93495833D01*
X195367914Y-93495833D02*
X195415533Y-93400595D01*
X195129819Y-94591071D02*
X195129819Y-94686309D01*
X195129819Y-94686309D02*
X195177438Y-94781547D01*
X195177438Y-94781547D02*
X195225057Y-94829166D01*
X195225057Y-94829166D02*
X195320295Y-94876785D01*
X195320295Y-94876785D02*
X195510771Y-94924404D01*
X195510771Y-94924404D02*
X195748866Y-94924404D01*
X195748866Y-94924404D02*
X195939342Y-94876785D01*
X195939342Y-94876785D02*
X196034580Y-94829166D01*
X196034580Y-94829166D02*
X196082200Y-94781547D01*
X196082200Y-94781547D02*
X196129819Y-94686309D01*
X196129819Y-94686309D02*
X196129819Y-94591071D01*
X196129819Y-94591071D02*
X196082200Y-94495833D01*
X196082200Y-94495833D02*
X196034580Y-94448214D01*
X196034580Y-94448214D02*
X195939342Y-94400595D01*
X195939342Y-94400595D02*
X195748866Y-94352976D01*
X195748866Y-94352976D02*
X195510771Y-94352976D01*
X195510771Y-94352976D02*
X195320295Y-94400595D01*
X195320295Y-94400595D02*
X195225057Y-94448214D01*
X195225057Y-94448214D02*
X195177438Y-94495833D01*
X195177438Y-94495833D02*
X195129819Y-94591071D01*
X196129819Y-111498214D02*
X195129819Y-111498214D01*
X195129819Y-111498214D02*
X195129819Y-111736309D01*
X195129819Y-111736309D02*
X195177438Y-111879166D01*
X195177438Y-111879166D02*
X195272676Y-111974404D01*
X195272676Y-111974404D02*
X195367914Y-112022023D01*
X195367914Y-112022023D02*
X195558390Y-112069642D01*
X195558390Y-112069642D02*
X195701247Y-112069642D01*
X195701247Y-112069642D02*
X195891723Y-112022023D01*
X195891723Y-112022023D02*
X195986961Y-111974404D01*
X195986961Y-111974404D02*
X196082200Y-111879166D01*
X196082200Y-111879166D02*
X196129819Y-111736309D01*
X196129819Y-111736309D02*
X196129819Y-111498214D01*
X196129819Y-113022023D02*
X196129819Y-112450595D01*
X196129819Y-112736309D02*
X195129819Y-112736309D01*
X195129819Y-112736309D02*
X195272676Y-112641071D01*
X195272676Y-112641071D02*
X195367914Y-112545833D01*
X195367914Y-112545833D02*
X195415533Y-112450595D01*
X196129819Y-113974404D02*
X196129819Y-113402976D01*
X196129819Y-113688690D02*
X195129819Y-113688690D01*
X195129819Y-113688690D02*
X195272676Y-113593452D01*
X195272676Y-113593452D02*
X195367914Y-113498214D01*
X195367914Y-113498214D02*
X195415533Y-113402976D01*
X195954819Y-120935714D02*
X194954819Y-120935714D01*
X194954819Y-120935714D02*
X194954819Y-121173809D01*
X194954819Y-121173809D02*
X195002438Y-121316666D01*
X195002438Y-121316666D02*
X195097676Y-121411904D01*
X195097676Y-121411904D02*
X195192914Y-121459523D01*
X195192914Y-121459523D02*
X195383390Y-121507142D01*
X195383390Y-121507142D02*
X195526247Y-121507142D01*
X195526247Y-121507142D02*
X195716723Y-121459523D01*
X195716723Y-121459523D02*
X195811961Y-121411904D01*
X195811961Y-121411904D02*
X195907200Y-121316666D01*
X195907200Y-121316666D02*
X195954819Y-121173809D01*
X195954819Y-121173809D02*
X195954819Y-120935714D01*
X195954819Y-122459523D02*
X195954819Y-121888095D01*
X195954819Y-122173809D02*
X194954819Y-122173809D01*
X194954819Y-122173809D02*
X195097676Y-122078571D01*
X195097676Y-122078571D02*
X195192914Y-121983333D01*
X195192914Y-121983333D02*
X195240533Y-121888095D01*
X195050057Y-122840476D02*
X195002438Y-122888095D01*
X195002438Y-122888095D02*
X194954819Y-122983333D01*
X194954819Y-122983333D02*
X194954819Y-123221428D01*
X194954819Y-123221428D02*
X195002438Y-123316666D01*
X195002438Y-123316666D02*
X195050057Y-123364285D01*
X195050057Y-123364285D02*
X195145295Y-123411904D01*
X195145295Y-123411904D02*
X195240533Y-123411904D01*
X195240533Y-123411904D02*
X195383390Y-123364285D01*
X195383390Y-123364285D02*
X195954819Y-122792857D01*
X195954819Y-122792857D02*
X195954819Y-123411904D01*
X140723333Y-79104819D02*
X140723333Y-79819104D01*
X140723333Y-79819104D02*
X140770952Y-79961961D01*
X140770952Y-79961961D02*
X140866190Y-80057200D01*
X140866190Y-80057200D02*
X141009047Y-80104819D01*
X141009047Y-80104819D02*
X141104285Y-80104819D01*
X139723333Y-80104819D02*
X140294761Y-80104819D01*
X140009047Y-80104819D02*
X140009047Y-79104819D01*
X140009047Y-79104819D02*
X140104285Y-79247676D01*
X140104285Y-79247676D02*
X140199523Y-79342914D01*
X140199523Y-79342914D02*
X140294761Y-79390533D01*
X177002083Y-79254819D02*
X177002083Y-79969104D01*
X177002083Y-79969104D02*
X177049702Y-80111961D01*
X177049702Y-80111961D02*
X177144940Y-80207200D01*
X177144940Y-80207200D02*
X177287797Y-80254819D01*
X177287797Y-80254819D02*
X177383035Y-80254819D01*
X176573511Y-79350057D02*
X176525892Y-79302438D01*
X176525892Y-79302438D02*
X176430654Y-79254819D01*
X176430654Y-79254819D02*
X176192559Y-79254819D01*
X176192559Y-79254819D02*
X176097321Y-79302438D01*
X176097321Y-79302438D02*
X176049702Y-79350057D01*
X176049702Y-79350057D02*
X176002083Y-79445295D01*
X176002083Y-79445295D02*
X176002083Y-79540533D01*
X176002083Y-79540533D02*
X176049702Y-79683390D01*
X176049702Y-79683390D02*
X176621130Y-80254819D01*
X176621130Y-80254819D02*
X176002083Y-80254819D01*
D11*
X135525000Y-95912500D02*
X135525000Y-92012500D01*
X137525000Y-95912500D02*
X135525000Y-95912500D01*
X137525000Y-95912500D02*
X137525000Y-92012500D01*
X135525000Y-114962500D02*
X135525000Y-111062500D01*
X137525000Y-114962500D02*
X135525000Y-114962500D01*
X137525000Y-114962500D02*
X137525000Y-111062500D01*
X135525000Y-134012500D02*
X135525000Y-130112500D01*
X137525000Y-134012500D02*
X135525000Y-134012500D01*
X137525000Y-134012500D02*
X137525000Y-130112500D01*
X154575000Y-95912500D02*
X154575000Y-92012500D01*
X156575000Y-95912500D02*
X154575000Y-95912500D01*
X156575000Y-95912500D02*
X156575000Y-92012500D01*
X154575000Y-114962500D02*
X154575000Y-111062500D01*
X156575000Y-114962500D02*
X154575000Y-114962500D01*
X156575000Y-114962500D02*
X156575000Y-111062500D01*
X154575000Y-134012500D02*
X154575000Y-130112500D01*
X156575000Y-134012500D02*
X154575000Y-134012500D01*
X156575000Y-134012500D02*
X156575000Y-130112500D01*
X173625000Y-95912500D02*
X173625000Y-92012500D01*
X175625000Y-95912500D02*
X173625000Y-95912500D01*
X175625000Y-95912500D02*
X175625000Y-92012500D01*
X173625000Y-114962500D02*
X173625000Y-111062500D01*
X175625000Y-114962500D02*
X173625000Y-114962500D01*
X175625000Y-114962500D02*
X175625000Y-111062500D01*
X173625000Y-134075000D02*
X173625000Y-130175000D01*
X175625000Y-134075000D02*
X173625000Y-134075000D01*
X175625000Y-134075000D02*
X175625000Y-130175000D01*
X192675000Y-95912500D02*
X192675000Y-92012500D01*
X194675000Y-95912500D02*
X192675000Y-95912500D01*
X194675000Y-95912500D02*
X194675000Y-92012500D01*
X192675000Y-114962500D02*
X192675000Y-111062500D01*
X194675000Y-114962500D02*
X192675000Y-114962500D01*
X194675000Y-114962500D02*
X194675000Y-111062500D01*
X192500000Y-124400000D02*
X192500000Y-120500000D01*
X194500000Y-124400000D02*
X192500000Y-124400000D01*
X194500000Y-124400000D02*
X194500000Y-120500000D01*
X132800000Y-71190000D02*
X132800000Y-78810000D01*
X132800000Y-71190000D02*
X148040000Y-71190000D01*
X132800000Y-72460000D02*
X148040000Y-72460000D01*
X132800000Y-78810000D02*
X148040000Y-78810000D01*
X148040000Y-71190000D02*
X148040000Y-78810000D01*
X166528750Y-71190000D02*
X186848750Y-71190000D01*
X166528750Y-78810000D02*
X166528750Y-71190000D01*
X166528750Y-78810000D02*
X186848750Y-78810000D01*
X186848750Y-71190000D02*
X186848750Y-78810000D01*
X186848750Y-72460000D02*
X166528750Y-72460000D01*
%LPC*%
D12*
X123507500Y-88900000D03*
D13*
X128587500Y-88900000D03*
D12*
X133667500Y-88900000D03*
D14*
X125432501Y-85630000D03*
D15*
X126087500Y-84900000D03*
D16*
X131107500Y-84110000D03*
D15*
X131127500Y-83820000D03*
D12*
X123507500Y-107950000D03*
D13*
X128587500Y-107950000D03*
D12*
X133667500Y-107950000D03*
D14*
X125432501Y-104680000D03*
D15*
X126087500Y-103950000D03*
D16*
X131107500Y-103160000D03*
D15*
X131127500Y-102870000D03*
D12*
X123507500Y-127000000D03*
D13*
X128587500Y-127000000D03*
D12*
X133667500Y-127000000D03*
D14*
X125432501Y-123730000D03*
D15*
X126087500Y-123000000D03*
D16*
X131107500Y-122210000D03*
D15*
X131127500Y-121920000D03*
D12*
X142557500Y-88900000D03*
D13*
X147637500Y-88900000D03*
D12*
X152717500Y-88900000D03*
D14*
X144482501Y-85630000D03*
D15*
X145137500Y-84900000D03*
D16*
X150157500Y-84110000D03*
D15*
X150177500Y-83820000D03*
D12*
X142557500Y-107950000D03*
D13*
X147637500Y-107950000D03*
D12*
X152717500Y-107950000D03*
D14*
X144482501Y-104680000D03*
D15*
X145137500Y-103950000D03*
D16*
X150157500Y-103160000D03*
D15*
X150177500Y-102870000D03*
D12*
X142557500Y-127000000D03*
D13*
X147637500Y-127000000D03*
D12*
X152717500Y-127000000D03*
D14*
X144482501Y-123730000D03*
D15*
X145137500Y-123000000D03*
D16*
X150157500Y-122210000D03*
D15*
X150177500Y-121920000D03*
D12*
X161607500Y-88900000D03*
D13*
X166687500Y-88900000D03*
D12*
X171767500Y-88900000D03*
D14*
X163532501Y-85630000D03*
D15*
X164187500Y-84900000D03*
D16*
X169207500Y-84110000D03*
D15*
X169227500Y-83820000D03*
D12*
X161607500Y-107950000D03*
D13*
X166687500Y-107950000D03*
D12*
X171767500Y-107950000D03*
D14*
X163532501Y-104680000D03*
D15*
X164187500Y-103950000D03*
D16*
X169207500Y-103160000D03*
D15*
X169227500Y-102870000D03*
D12*
X161607500Y-127000000D03*
D13*
X166687500Y-127000000D03*
D12*
X171767500Y-127000000D03*
D14*
X163532501Y-123730000D03*
D15*
X164187500Y-123000000D03*
D16*
X169207500Y-122210000D03*
D15*
X169227500Y-121920000D03*
D12*
X180657500Y-88900000D03*
D13*
X185737500Y-88900000D03*
D12*
X190817500Y-88900000D03*
D14*
X182582501Y-85630000D03*
D15*
X183237500Y-84900000D03*
D16*
X188257500Y-84110000D03*
D15*
X188277500Y-83820000D03*
D12*
X180657500Y-107950000D03*
D13*
X185737500Y-107950000D03*
D12*
X190817500Y-107950000D03*
D14*
X182582501Y-104680000D03*
D15*
X183237500Y-103950000D03*
D16*
X188257500Y-103160000D03*
D15*
X188277500Y-102870000D03*
D12*
X180657500Y-127000000D03*
D13*
X185737500Y-127000000D03*
D12*
X190817500Y-127000000D03*
D14*
X182582501Y-123730000D03*
D15*
X183237500Y-123000000D03*
D16*
X188257500Y-122210000D03*
D15*
X188277500Y-121920000D03*
D17*
X195000000Y-75000000D03*
X195000000Y-135500000D03*
X119500000Y-75000000D03*
X119500000Y-135500000D03*
D18*
X136525000Y-95312500D03*
X136525000Y-92012500D03*
X136525000Y-114362500D03*
X136525000Y-111062500D03*
X136525000Y-133412500D03*
X136525000Y-130112500D03*
X155575000Y-95312500D03*
X155575000Y-92012500D03*
X155575000Y-114362500D03*
X155575000Y-111062500D03*
X155575000Y-133412500D03*
X155575000Y-130112500D03*
X174625000Y-95312500D03*
X174625000Y-92012500D03*
X174625000Y-114362500D03*
X174625000Y-111062500D03*
X174625000Y-133475000D03*
X174625000Y-130175000D03*
X193675000Y-95312500D03*
X193675000Y-92012500D03*
X193675000Y-114362500D03*
X193675000Y-111062500D03*
X193500000Y-123800000D03*
X193500000Y-120500000D03*
D19*
X135340000Y-75000000D03*
D20*
X140420000Y-75000000D03*
X145500000Y-75000000D03*
D19*
X169068750Y-75000000D03*
D20*
X174148750Y-75000000D03*
X179228750Y-75000000D03*
X184308750Y-75000000D03*
%LPD*%
M02*
