M48
; DRILL file {KiCad 8.0.7} date 2024-12-19T23:48:03-0800
; FORMAT={-:-/ absolute / inch / decimal}
; #@! TF.CreationDate,2024-12-19T23:48:03-08:00
; #@! TF.GenerationSoftware,Kicad,Pcbnew,8.0.7
; #@! TF.FileFunction,NonPlated,1,2,NPTH
FMAT,2
INCH
; #@! TA.AperFunction,NonPlated,NPTH,ComponentDrill
T1C0.0689
; #@! TA.AperFunction,NonPlated,NPTH,ComponentDrill
T2C0.0866
; #@! TA.AperFunction,NonPlated,NPTH,ComponentDrill
T3C0.1570
%
G90
G05
T1
X4.8625Y-3.5
X4.8625Y-4.25
X4.8625Y-5.0
X5.2625Y-3.5
X5.2625Y-4.25
X5.2625Y-5.0
X5.6125Y-3.5
X5.6125Y-4.25
X5.6125Y-5.0
X6.0125Y-3.5
X6.0125Y-4.25
X6.0125Y-5.0
X6.3625Y-3.5
X6.3625Y-4.25
X6.3625Y-5.0
X6.7625Y-3.5
X6.7625Y-4.25
X6.7625Y-5.0
X7.1125Y-3.5
X7.1125Y-4.25
X7.1125Y-5.0
X7.5125Y-3.5
X7.5125Y-4.25
X7.5125Y-5.0
T2
X4.7047Y-2.9528
X4.7047Y-5.3346
X7.6772Y-2.9528
X7.6772Y-5.3346
T3
X5.0625Y-3.5
X5.0625Y-4.25
X5.0625Y-5.0
X5.8125Y-3.5
X5.8125Y-4.25
X5.8125Y-5.0
X6.5625Y-3.5
X6.5625Y-4.25
X6.5625Y-5.0
X7.3125Y-3.5
X7.3125Y-4.25
X7.3125Y-5.0
M30
