G04 #@! TF.GenerationSoftware,KiCad,Pcbnew,(5.1.4)-1*
G04 #@! TF.CreationDate,2024-12-14T20:16:23-08:00*
G04 #@! TF.ProjectId,Deej keypad,4465656a-206b-4657-9970-61642e6b6963,rev?*
G04 #@! TF.SameCoordinates,Original*
G04 #@! TF.FileFunction,Legend,Top*
G04 #@! TF.FilePolarity,Positive*
%FSLAX46Y46*%
G04 Gerber Fmt 4.6, Leading zero omitted, Abs format (unit mm)*
G04 Created by KiCad (PCBNEW (5.1.4)-1) date 2024-12-14 20:16:23*
%MOMM*%
%LPD*%
G04 APERTURE LIST*
%ADD10C,0.150000*%
%ADD11C,2.302000*%
%ADD12C,1.852000*%
%ADD13C,4.089800*%
%ADD14R,3.102000X3.102000*%
%ADD15C,3.102000*%
G04 APERTURE END LIST*
D10*
X116141666Y-131396130D02*
X115808333Y-130919940D01*
X115570238Y-131396130D02*
X115570238Y-130396130D01*
X115951190Y-130396130D01*
X116046428Y-130443750D01*
X116094047Y-130491369D01*
X116141666Y-130586607D01*
X116141666Y-130729464D01*
X116094047Y-130824702D01*
X116046428Y-130872321D01*
X115951190Y-130919940D01*
X115570238Y-130919940D01*
X116570238Y-130872321D02*
X116903571Y-130872321D01*
X117046428Y-131396130D02*
X116570238Y-131396130D01*
X116570238Y-130396130D01*
X117046428Y-130396130D01*
X117808333Y-130872321D02*
X117475000Y-130872321D01*
X117475000Y-131396130D02*
X117475000Y-130396130D01*
X117951190Y-130396130D01*
X118475000Y-130396130D02*
X118475000Y-130634226D01*
X118236904Y-130538988D02*
X118475000Y-130634226D01*
X118713095Y-130538988D01*
X118332142Y-130824702D02*
X118475000Y-130634226D01*
X118617857Y-130824702D01*
X119236904Y-130396130D02*
X119236904Y-130634226D01*
X118998809Y-130538988D02*
X119236904Y-130634226D01*
X119475000Y-130538988D01*
X119094047Y-130824702D02*
X119236904Y-130634226D01*
X119379761Y-130824702D01*
X116141666Y-68689880D02*
X115808333Y-68213690D01*
X115570238Y-68689880D02*
X115570238Y-67689880D01*
X115951190Y-67689880D01*
X116046428Y-67737500D01*
X116094047Y-67785119D01*
X116141666Y-67880357D01*
X116141666Y-68023214D01*
X116094047Y-68118452D01*
X116046428Y-68166071D01*
X115951190Y-68213690D01*
X115570238Y-68213690D01*
X116570238Y-68166071D02*
X116903571Y-68166071D01*
X117046428Y-68689880D02*
X116570238Y-68689880D01*
X116570238Y-67689880D01*
X117046428Y-67689880D01*
X117808333Y-68166071D02*
X117475000Y-68166071D01*
X117475000Y-68689880D02*
X117475000Y-67689880D01*
X117951190Y-67689880D01*
X118475000Y-67689880D02*
X118475000Y-67927976D01*
X118236904Y-67832738D02*
X118475000Y-67927976D01*
X118713095Y-67832738D01*
X118332142Y-68118452D02*
X118475000Y-67927976D01*
X118617857Y-68118452D01*
X119236904Y-67689880D02*
X119236904Y-67927976D01*
X118998809Y-67832738D02*
X119236904Y-67927976D01*
X119475000Y-67832738D01*
X119094047Y-68118452D02*
X119236904Y-67927976D01*
X119379761Y-68118452D01*
X195516666Y-131396130D02*
X195183333Y-130919940D01*
X194945238Y-131396130D02*
X194945238Y-130396130D01*
X195326190Y-130396130D01*
X195421428Y-130443750D01*
X195469047Y-130491369D01*
X195516666Y-130586607D01*
X195516666Y-130729464D01*
X195469047Y-130824702D01*
X195421428Y-130872321D01*
X195326190Y-130919940D01*
X194945238Y-130919940D01*
X195945238Y-130872321D02*
X196278571Y-130872321D01*
X196421428Y-131396130D02*
X195945238Y-131396130D01*
X195945238Y-130396130D01*
X196421428Y-130396130D01*
X197183333Y-130872321D02*
X196850000Y-130872321D01*
X196850000Y-131396130D02*
X196850000Y-130396130D01*
X197326190Y-130396130D01*
X197850000Y-130396130D02*
X197850000Y-130634226D01*
X197611904Y-130538988D02*
X197850000Y-130634226D01*
X198088095Y-130538988D01*
X197707142Y-130824702D02*
X197850000Y-130634226D01*
X197992857Y-130824702D01*
X198611904Y-130396130D02*
X198611904Y-130634226D01*
X198373809Y-130538988D02*
X198611904Y-130634226D01*
X198850000Y-130538988D01*
X198469047Y-130824702D02*
X198611904Y-130634226D01*
X198754761Y-130824702D01*
X196310416Y-68689880D02*
X195977083Y-68213690D01*
X195738988Y-68689880D02*
X195738988Y-67689880D01*
X196119940Y-67689880D01*
X196215178Y-67737500D01*
X196262797Y-67785119D01*
X196310416Y-67880357D01*
X196310416Y-68023214D01*
X196262797Y-68118452D01*
X196215178Y-68166071D01*
X196119940Y-68213690D01*
X195738988Y-68213690D01*
X196738988Y-68166071D02*
X197072321Y-68166071D01*
X197215178Y-68689880D02*
X196738988Y-68689880D01*
X196738988Y-67689880D01*
X197215178Y-67689880D01*
X197977083Y-68166071D02*
X197643750Y-68166071D01*
X197643750Y-68689880D02*
X197643750Y-67689880D01*
X198119940Y-67689880D01*
X198643750Y-67689880D02*
X198643750Y-67927976D01*
X198405654Y-67832738D02*
X198643750Y-67927976D01*
X198881845Y-67832738D01*
X198500892Y-68118452D02*
X198643750Y-67927976D01*
X198786607Y-68118452D01*
X199405654Y-67689880D02*
X199405654Y-67927976D01*
X199167559Y-67832738D02*
X199405654Y-67927976D01*
X199643750Y-67832738D01*
X199262797Y-68118452D02*
X199405654Y-67927976D01*
X199548511Y-68118452D01*
%LPC*%
D11*
X117475000Y-134143750D03*
X117475000Y-71437500D03*
X196850000Y-134143750D03*
X197643750Y-71437500D03*
D12*
X133667500Y-107950000D03*
X123507500Y-107950000D03*
D13*
X128587500Y-107950000D03*
D12*
X133667500Y-88900000D03*
X123507500Y-88900000D03*
D13*
X128587500Y-88900000D03*
D14*
X134937500Y-73025000D03*
D15*
X140017500Y-73025000D03*
X145097500Y-73025000D03*
X174148750Y-73025000D03*
X179228750Y-73025000D03*
D14*
X169068750Y-73025000D03*
D15*
X184308750Y-73025000D03*
D12*
X171767500Y-127000000D03*
X161607500Y-127000000D03*
D13*
X166687500Y-127000000D03*
D12*
X171767500Y-88900000D03*
X161607500Y-88900000D03*
D13*
X166687500Y-88900000D03*
D12*
X190817500Y-127000000D03*
X180657500Y-127000000D03*
D13*
X185737500Y-127000000D03*
D12*
X190817500Y-107950000D03*
X180657500Y-107950000D03*
D13*
X185737500Y-107950000D03*
D12*
X190817500Y-88900000D03*
X180657500Y-88900000D03*
D13*
X185737500Y-88900000D03*
D12*
X171767500Y-107950000D03*
X161607500Y-107950000D03*
D13*
X166687500Y-107950000D03*
D12*
X152717500Y-127000000D03*
X142557500Y-127000000D03*
D13*
X147637500Y-127000000D03*
D12*
X152717500Y-107950000D03*
X142557500Y-107950000D03*
D13*
X147637500Y-107950000D03*
D12*
X152717500Y-88900000D03*
X142557500Y-88900000D03*
D13*
X147637500Y-88900000D03*
D12*
X133667500Y-127000000D03*
X123507500Y-127000000D03*
D13*
X128587500Y-127000000D03*
M02*
