G04 #@! TF.GenerationSoftware,KiCad,Pcbnew,8.0.7*
G04 #@! TF.CreationDate,2024-12-19T23:47:55-08:00*
G04 #@! TF.ProjectId,Deej keypad,4465656a-206b-4657-9970-61642e6b6963,rev?*
G04 #@! TF.SameCoordinates,Original*
G04 #@! TF.FileFunction,Legend,Top*
G04 #@! TF.FilePolarity,Positive*
%FSLAX46Y46*%
G04 Gerber Fmt 4.6, Leading zero omitted, Abs format (unit mm)*
G04 Created by KiCad (PCBNEW 8.0.7) date 2024-12-19 23:47:55*
%MOMM*%
%LPD*%
G01*
G04 APERTURE LIST*
G04 Aperture macros list*
%AMRoundRect*
0 Rectangle with rounded corners*
0 $1 Rounding radius*
0 $2 $3 $4 $5 $6 $7 $8 $9 X,Y pos of 4 corners*
0 Add a 4 corners polygon primitive as box body*
4,1,4,$2,$3,$4,$5,$6,$7,$8,$9,$2,$3,0*
0 Add four circle primitives for the rounded corners*
1,1,$1+$1,$2,$3*
1,1,$1+$1,$4,$5*
1,1,$1+$1,$6,$7*
1,1,$1+$1,$8,$9*
0 Add four rect primitives between the rounded corners*
20,1,$1+$1,$2,$3,$4,$5,0*
20,1,$1+$1,$4,$5,$6,$7,0*
20,1,$1+$1,$6,$7,$8,$9,0*
20,1,$1+$1,$8,$9,$2,$3,0*%
G04 Aperture macros list end*
%ADD10C,0.203200*%
%ADD11C,0.150000*%
%ADD12C,1.852000*%
%ADD13C,4.089800*%
%ADD14C,2.302000*%
%ADD15RoundRect,0.051000X-1.500000X-1.500000X1.500000X-1.500000X1.500000X1.500000X-1.500000X1.500000X0*%
%ADD16C,3.102000*%
G04 APERTURE END LIST*
D10*
X149905356Y-132520464D02*
X149905356Y-133609035D01*
X149905356Y-133609035D02*
X149832785Y-133826750D01*
X149832785Y-133826750D02*
X149687642Y-133971893D01*
X149687642Y-133971893D02*
X149469928Y-134044464D01*
X149469928Y-134044464D02*
X149324785Y-134044464D01*
X151211642Y-133971893D02*
X151066499Y-134044464D01*
X151066499Y-134044464D02*
X150776214Y-134044464D01*
X150776214Y-134044464D02*
X150631071Y-133971893D01*
X150631071Y-133971893D02*
X150558499Y-133826750D01*
X150558499Y-133826750D02*
X150558499Y-133246178D01*
X150558499Y-133246178D02*
X150631071Y-133101035D01*
X150631071Y-133101035D02*
X150776214Y-133028464D01*
X150776214Y-133028464D02*
X151066499Y-133028464D01*
X151066499Y-133028464D02*
X151211642Y-133101035D01*
X151211642Y-133101035D02*
X151284214Y-133246178D01*
X151284214Y-133246178D02*
X151284214Y-133391321D01*
X151284214Y-133391321D02*
X150558499Y-133536464D01*
X151937357Y-134044464D02*
X151937357Y-133028464D01*
X151937357Y-133318750D02*
X152009928Y-133173607D01*
X152009928Y-133173607D02*
X152082500Y-133101035D01*
X152082500Y-133101035D02*
X152227642Y-133028464D01*
X152227642Y-133028464D02*
X152372785Y-133028464D01*
X152880786Y-134044464D02*
X152880786Y-133028464D01*
X152880786Y-133318750D02*
X152953357Y-133173607D01*
X152953357Y-133173607D02*
X153025929Y-133101035D01*
X153025929Y-133101035D02*
X153171071Y-133028464D01*
X153171071Y-133028464D02*
X153316214Y-133028464D01*
X153679072Y-133028464D02*
X154041929Y-134044464D01*
X154404786Y-133028464D02*
X154041929Y-134044464D01*
X154041929Y-134044464D02*
X153896786Y-134407321D01*
X153896786Y-134407321D02*
X153824215Y-134479893D01*
X153824215Y-134479893D02*
X153679072Y-134552464D01*
X155057929Y-132520464D02*
X154912786Y-132810750D01*
X155638500Y-133971893D02*
X155783643Y-134044464D01*
X155783643Y-134044464D02*
X156073929Y-134044464D01*
X156073929Y-134044464D02*
X156219072Y-133971893D01*
X156219072Y-133971893D02*
X156291643Y-133826750D01*
X156291643Y-133826750D02*
X156291643Y-133754178D01*
X156291643Y-133754178D02*
X156219072Y-133609035D01*
X156219072Y-133609035D02*
X156073929Y-133536464D01*
X156073929Y-133536464D02*
X155856215Y-133536464D01*
X155856215Y-133536464D02*
X155711072Y-133463893D01*
X155711072Y-133463893D02*
X155638500Y-133318750D01*
X155638500Y-133318750D02*
X155638500Y-133246178D01*
X155638500Y-133246178D02*
X155711072Y-133101035D01*
X155711072Y-133101035D02*
X155856215Y-133028464D01*
X155856215Y-133028464D02*
X156073929Y-133028464D01*
X156073929Y-133028464D02*
X156219072Y-133101035D01*
X158105929Y-134044464D02*
X158105929Y-132520464D01*
X158105929Y-132520464D02*
X158468786Y-132520464D01*
X158468786Y-132520464D02*
X158686500Y-132593035D01*
X158686500Y-132593035D02*
X158831643Y-132738178D01*
X158831643Y-132738178D02*
X158904214Y-132883321D01*
X158904214Y-132883321D02*
X158976786Y-133173607D01*
X158976786Y-133173607D02*
X158976786Y-133391321D01*
X158976786Y-133391321D02*
X158904214Y-133681607D01*
X158904214Y-133681607D02*
X158831643Y-133826750D01*
X158831643Y-133826750D02*
X158686500Y-133971893D01*
X158686500Y-133971893D02*
X158468786Y-134044464D01*
X158468786Y-134044464D02*
X158105929Y-134044464D01*
X160210500Y-133971893D02*
X160065357Y-134044464D01*
X160065357Y-134044464D02*
X159775072Y-134044464D01*
X159775072Y-134044464D02*
X159629929Y-133971893D01*
X159629929Y-133971893D02*
X159557357Y-133826750D01*
X159557357Y-133826750D02*
X159557357Y-133246178D01*
X159557357Y-133246178D02*
X159629929Y-133101035D01*
X159629929Y-133101035D02*
X159775072Y-133028464D01*
X159775072Y-133028464D02*
X160065357Y-133028464D01*
X160065357Y-133028464D02*
X160210500Y-133101035D01*
X160210500Y-133101035D02*
X160283072Y-133246178D01*
X160283072Y-133246178D02*
X160283072Y-133391321D01*
X160283072Y-133391321D02*
X159557357Y-133536464D01*
X161516786Y-133971893D02*
X161371643Y-134044464D01*
X161371643Y-134044464D02*
X161081358Y-134044464D01*
X161081358Y-134044464D02*
X160936215Y-133971893D01*
X160936215Y-133971893D02*
X160863643Y-133826750D01*
X160863643Y-133826750D02*
X160863643Y-133246178D01*
X160863643Y-133246178D02*
X160936215Y-133101035D01*
X160936215Y-133101035D02*
X161081358Y-133028464D01*
X161081358Y-133028464D02*
X161371643Y-133028464D01*
X161371643Y-133028464D02*
X161516786Y-133101035D01*
X161516786Y-133101035D02*
X161589358Y-133246178D01*
X161589358Y-133246178D02*
X161589358Y-133391321D01*
X161589358Y-133391321D02*
X160863643Y-133536464D01*
X162242501Y-133028464D02*
X162242501Y-134334750D01*
X162242501Y-134334750D02*
X162169929Y-134479893D01*
X162169929Y-134479893D02*
X162024786Y-134552464D01*
X162024786Y-134552464D02*
X161952215Y-134552464D01*
X162242501Y-132520464D02*
X162169929Y-132593035D01*
X162169929Y-132593035D02*
X162242501Y-132665607D01*
X162242501Y-132665607D02*
X162315072Y-132593035D01*
X162315072Y-132593035D02*
X162242501Y-132520464D01*
X162242501Y-132520464D02*
X162242501Y-132665607D01*
X164927643Y-134044464D02*
X164056786Y-134044464D01*
X164492215Y-134044464D02*
X164492215Y-132520464D01*
X164492215Y-132520464D02*
X164347072Y-132738178D01*
X164347072Y-132738178D02*
X164201929Y-132883321D01*
X164201929Y-132883321D02*
X164056786Y-132955893D01*
D11*
X193666666Y-132754819D02*
X193333333Y-132278628D01*
X193095238Y-132754819D02*
X193095238Y-131754819D01*
X193095238Y-131754819D02*
X193476190Y-131754819D01*
X193476190Y-131754819D02*
X193571428Y-131802438D01*
X193571428Y-131802438D02*
X193619047Y-131850057D01*
X193619047Y-131850057D02*
X193666666Y-131945295D01*
X193666666Y-131945295D02*
X193666666Y-132088152D01*
X193666666Y-132088152D02*
X193619047Y-132183390D01*
X193619047Y-132183390D02*
X193571428Y-132231009D01*
X193571428Y-132231009D02*
X193476190Y-132278628D01*
X193476190Y-132278628D02*
X193095238Y-132278628D01*
X194095238Y-132231009D02*
X194428571Y-132231009D01*
X194571428Y-132754819D02*
X194095238Y-132754819D01*
X194095238Y-132754819D02*
X194095238Y-131754819D01*
X194095238Y-131754819D02*
X194571428Y-131754819D01*
X195333333Y-132231009D02*
X195000000Y-132231009D01*
X195000000Y-132754819D02*
X195000000Y-131754819D01*
X195000000Y-131754819D02*
X195476190Y-131754819D01*
X196000000Y-131754819D02*
X196000000Y-131992914D01*
X195761905Y-131897676D02*
X196000000Y-131992914D01*
X196000000Y-131992914D02*
X196238095Y-131897676D01*
X195857143Y-132183390D02*
X196000000Y-131992914D01*
X196000000Y-131992914D02*
X196142857Y-132183390D01*
X196761905Y-131754819D02*
X196761905Y-131992914D01*
X196523810Y-131897676D02*
X196761905Y-131992914D01*
X196761905Y-131992914D02*
X197000000Y-131897676D01*
X196619048Y-132183390D02*
X196761905Y-131992914D01*
X196761905Y-131992914D02*
X196904762Y-132183390D01*
X115166666Y-73454819D02*
X114833333Y-72978628D01*
X114595238Y-73454819D02*
X114595238Y-72454819D01*
X114595238Y-72454819D02*
X114976190Y-72454819D01*
X114976190Y-72454819D02*
X115071428Y-72502438D01*
X115071428Y-72502438D02*
X115119047Y-72550057D01*
X115119047Y-72550057D02*
X115166666Y-72645295D01*
X115166666Y-72645295D02*
X115166666Y-72788152D01*
X115166666Y-72788152D02*
X115119047Y-72883390D01*
X115119047Y-72883390D02*
X115071428Y-72931009D01*
X115071428Y-72931009D02*
X114976190Y-72978628D01*
X114976190Y-72978628D02*
X114595238Y-72978628D01*
X115595238Y-72931009D02*
X115928571Y-72931009D01*
X116071428Y-73454819D02*
X115595238Y-73454819D01*
X115595238Y-73454819D02*
X115595238Y-72454819D01*
X115595238Y-72454819D02*
X116071428Y-72454819D01*
X116833333Y-72931009D02*
X116500000Y-72931009D01*
X116500000Y-73454819D02*
X116500000Y-72454819D01*
X116500000Y-72454819D02*
X116976190Y-72454819D01*
X117500000Y-72454819D02*
X117500000Y-72692914D01*
X117261905Y-72597676D02*
X117500000Y-72692914D01*
X117500000Y-72692914D02*
X117738095Y-72597676D01*
X117357143Y-72883390D02*
X117500000Y-72692914D01*
X117500000Y-72692914D02*
X117642857Y-72883390D01*
X118261905Y-72454819D02*
X118261905Y-72692914D01*
X118023810Y-72597676D02*
X118261905Y-72692914D01*
X118261905Y-72692914D02*
X118500000Y-72597676D01*
X118119048Y-72883390D02*
X118261905Y-72692914D01*
X118261905Y-72692914D02*
X118404762Y-72883390D01*
X118166666Y-132754819D02*
X117833333Y-132278628D01*
X117595238Y-132754819D02*
X117595238Y-131754819D01*
X117595238Y-131754819D02*
X117976190Y-131754819D01*
X117976190Y-131754819D02*
X118071428Y-131802438D01*
X118071428Y-131802438D02*
X118119047Y-131850057D01*
X118119047Y-131850057D02*
X118166666Y-131945295D01*
X118166666Y-131945295D02*
X118166666Y-132088152D01*
X118166666Y-132088152D02*
X118119047Y-132183390D01*
X118119047Y-132183390D02*
X118071428Y-132231009D01*
X118071428Y-132231009D02*
X117976190Y-132278628D01*
X117976190Y-132278628D02*
X117595238Y-132278628D01*
X118595238Y-132231009D02*
X118928571Y-132231009D01*
X119071428Y-132754819D02*
X118595238Y-132754819D01*
X118595238Y-132754819D02*
X118595238Y-131754819D01*
X118595238Y-131754819D02*
X119071428Y-131754819D01*
X119833333Y-132231009D02*
X119500000Y-132231009D01*
X119500000Y-132754819D02*
X119500000Y-131754819D01*
X119500000Y-131754819D02*
X119976190Y-131754819D01*
X120500000Y-131754819D02*
X120500000Y-131992914D01*
X120261905Y-131897676D02*
X120500000Y-131992914D01*
X120500000Y-131992914D02*
X120738095Y-131897676D01*
X120357143Y-132183390D02*
X120500000Y-131992914D01*
X120500000Y-131992914D02*
X120642857Y-132183390D01*
X121261905Y-131754819D02*
X121261905Y-131992914D01*
X121023810Y-131897676D02*
X121261905Y-131992914D01*
X121261905Y-131992914D02*
X121500000Y-131897676D01*
X121119048Y-132183390D02*
X121261905Y-131992914D01*
X121261905Y-131992914D02*
X121404762Y-132183390D01*
%LPC*%
D12*
X123507500Y-88900000D03*
D13*
X128587500Y-88900000D03*
D12*
X133667500Y-88900000D03*
X123507500Y-107950000D03*
D13*
X128587500Y-107950000D03*
D12*
X133667500Y-107950000D03*
X123507500Y-127000000D03*
D13*
X128587500Y-127000000D03*
D12*
X133667500Y-127000000D03*
X142557500Y-88900000D03*
D13*
X147637500Y-88900000D03*
D12*
X152717500Y-88900000D03*
X142557500Y-107950000D03*
D13*
X147637500Y-107950000D03*
D12*
X152717500Y-107950000D03*
X142557500Y-127000000D03*
D13*
X147637500Y-127000000D03*
D12*
X152717500Y-127000000D03*
X161607500Y-88900000D03*
D13*
X166687500Y-88900000D03*
D12*
X171767500Y-88900000D03*
X161607500Y-107950000D03*
D13*
X166687500Y-107950000D03*
D12*
X171767500Y-107950000D03*
X161607500Y-127000000D03*
D13*
X166687500Y-127000000D03*
D12*
X171767500Y-127000000D03*
X180657500Y-88900000D03*
D13*
X185737500Y-88900000D03*
D12*
X190817500Y-88900000D03*
X180657500Y-107950000D03*
D13*
X185737500Y-107950000D03*
D12*
X190817500Y-107950000D03*
X180657500Y-127000000D03*
D13*
X185737500Y-127000000D03*
D12*
X190817500Y-127000000D03*
D14*
X195000000Y-75000000D03*
X195000000Y-135500000D03*
X119500000Y-75000000D03*
X119500000Y-135500000D03*
D15*
X135340000Y-75000000D03*
D16*
X140420000Y-75000000D03*
X145500000Y-75000000D03*
D15*
X169068750Y-75000000D03*
D16*
X174148750Y-75000000D03*
X179228750Y-75000000D03*
X184308750Y-75000000D03*
%LPD*%
M02*
